STARTFONT 2.1
COMMENT
COMMENT Converted from OpenType font "ipaexg.ttf" by "..\otf2bdf.exe 3.0".
COMMENT
FONT -FreeType-IPAexGothic-Medium-R-Normal--16-160-72-72-P-140-ISO10646-1
SIZE 16 72 72
FONTBOUNDINGBOX 21 20 -4 -5
STARTPROPERTIES 19
FOUNDRY "FreeType"
FAMILY_NAME "IPAexGothic"
WEIGHT_NAME "Medium"
SLANT "R"
SETWIDTH_NAME "Normal"
ADD_STYLE_NAME ""
PIXEL_SIZE 16
POINT_SIZE 160
RESOLUTION_X 72
RESOLUTION_Y 72
SPACING "P"
AVERAGE_WIDTH 140
CHARSET_REGISTRY "ISO10646"
CHARSET_ENCODING "1"
FONT_ASCENT 14
FONT_DESCENT 1
COPYRIGHT "Copyright(c) Information-technology Promotion Agency, Japan (IPA), 2003-2019. You must accept "https://opensource.org/licenses/IPA/" to use this product."
_OTF_FONTFILE "ipaexg.ttf"
_OTF_PSNAME "IPAexGothic"
ENDPROPERTIES
CHARS 11691
STARTCHAR 0020
ENCODING 32
SWIDTH 250 0
DWIDTH 4 0
BBX 0 0 0 0
BITMAP
ENDCHAR
STARTCHAR 0021
ENCODING 33
SWIDTH 312 0
DWIDTH 5 0
BBX 2 12 2 0
BITMAP
C0
C0
C0
C0
C0
C0
C0
C0
C0
00
C0
C0
ENDCHAR
STARTCHAR 0022
ENCODING 34
SWIDTH 312 0
DWIDTH 5 0
BBX 4 4 1 7
BITMAP
B0
A0
A0
A0
ENDCHAR
STARTCHAR 0023
ENCODING 35
SWIDTH 625 0
DWIDTH 10 0
BBX 8 12 1 0
BITMAP
12
12
12
FF
24
24
24
FF
24
44
48
48
ENDCHAR
STARTCHAR 0024
ENCODING 36
SWIDTH 625 0
DWIDTH 10 0
BBX 7 14 2 -2
BITMAP
10
30
7C
C4
80
80
60
18
06
02
82
C4
78
10
ENDCHAR
STARTCHAR 0025
ENCODING 37
SWIDTH 875 0
DWIDTH 14 0
BBX 12 12 1 0
BITMAP
7040
8880
8880
8900
8A00
7200
04E0
0910
0910
1110
2110
40E0
ENDCHAR
STARTCHAR 0026
ENCODING 38
SWIDTH 687 0
DWIDTH 11 0
BBX 10 12 1 -1
BITMAP
3C00
6200
4200
4200
2400
3800
7880
8C80
8700
8300
C780
7CC0
ENDCHAR
STARTCHAR 0027
ENCODING 39
SWIDTH 187 0
DWIDTH 3 0
BBX 1 4 1 7
BITMAP
80
80
80
80
ENDCHAR
STARTCHAR 0028
ENCODING 40
SWIDTH 312 0
DWIDTH 5 0
BBX 4 15 1 -2
BITMAP
20
20
40
40
80
80
80
80
80
80
80
40
40
20
10
ENDCHAR
STARTCHAR 0029
ENCODING 41
SWIDTH 312 0
DWIDTH 5 0
BBX 4 15 0 -2
BITMAP
40
40
20
20
10
10
10
10
10
10
10
20
20
40
80
ENDCHAR
STARTCHAR 002A
ENCODING 42
SWIDTH 375 0
DWIDTH 6 0
BBX 4 4 1 7
BITMAP
D0
E0
F0
40
ENDCHAR
STARTCHAR 002B
ENCODING 43
SWIDTH 687 0
DWIDTH 11 0
BBX 9 9 1 0
BITMAP
0800
0800
0800
0800
FF80
0800
0800
0800
0800
ENDCHAR
STARTCHAR 002C
ENCODING 44
SWIDTH 250 0
DWIDTH 4 0
BBX 2 4 1 -3
BITMAP
C0
C0
80
80
ENDCHAR
STARTCHAR 002D
ENCODING 45
SWIDTH 375 0
DWIDTH 6 0
BBX 4 1 1 5
BITMAP
F0
ENDCHAR
STARTCHAR 002E
ENCODING 46
SWIDTH 250 0
DWIDTH 4 0
BBX 2 2 1 0
BITMAP
C0
C0
ENDCHAR
STARTCHAR 002F
ENCODING 47
SWIDTH 500 0
DWIDTH 8 0
BBX 6 14 1 -2
BITMAP
04
08
08
08
10
10
20
20
20
40
40
40
80
80
ENDCHAR
STARTCHAR 0030
ENCODING 48
SWIDTH 625 0
DWIDTH 10 0
BBX 8 12 1 0
BITMAP
3C
66
42
81
81
81
81
81
81
42
62
3C
ENDCHAR
STARTCHAR 0031
ENCODING 49
SWIDTH 625 0
DWIDTH 10 0
BBX 4 12 2 0
BITMAP
30
F0
10
10
10
10
10
10
10
10
10
10
ENDCHAR
STARTCHAR 0032
ENCODING 50
SWIDTH 625 0
DWIDTH 10 0
BBX 8 12 1 0
BITMAP
3C
62
41
C1
01
02
0C
18
30
40
C0
FF
ENDCHAR
STARTCHAR 0033
ENCODING 51
SWIDTH 625 0
DWIDTH 10 0
BBX 8 12 1 0
BITMAP
3C
43
01
01
02
3C
06
01
01
81
C2
3C
ENDCHAR
STARTCHAR 0034
ENCODING 52
SWIDTH 625 0
DWIDTH 10 0
BBX 10 12 0 0
BITMAP
0300
0700
0F00
0B00
1300
3300
6300
4300
FFC0
0300
0300
0300
ENDCHAR
STARTCHAR 0035
ENCODING 53
SWIDTH 625 0
DWIDTH 10 0
BBX 8 12 1 0
BITMAP
7F
40
40
40
5C
62
C1
01
01
01
C2
3C
ENDCHAR
STARTCHAR 0036
ENCODING 54
SWIDTH 625 0
DWIDTH 10 0
BBX 8 12 1 0
BITMAP
1E
63
40
C0
DC
E2
C1
C1
C1
41
62
3C
ENDCHAR
STARTCHAR 0037
ENCODING 55
SWIDTH 625 0
DWIDTH 10 0
BBX 8 12 1 0
BITMAP
FF
03
02
04
04
0C
08
18
10
10
30
30
ENDCHAR
STARTCHAR 0038
ENCODING 56
SWIDTH 625 0
DWIDTH 10 0
BBX 8 12 1 0
BITMAP
3E
C3
81
81
C2
3C
66
81
81
81
C3
3C
ENDCHAR
STARTCHAR 0039
ENCODING 57
SWIDTH 625 0
DWIDTH 10 0
BBX 8 12 1 0
BITMAP
3C
46
82
83
83
83
45
3B
03
02
C6
78
ENDCHAR
STARTCHAR 003A
ENCODING 58
SWIDTH 312 0
DWIDTH 5 0
BBX 2 8 2 0
BITMAP
C0
C0
00
00
00
00
C0
C0
ENDCHAR
STARTCHAR 003B
ENCODING 59
SWIDTH 312 0
DWIDTH 5 0
BBX 2 10 2 -3
BITMAP
C0
C0
00
00
00
00
C0
C0
80
80
ENDCHAR
STARTCHAR 003C
ENCODING 60
SWIDTH 687 0
DWIDTH 11 0
BBX 9 8 1 1
BITMAP
0380
0C00
3000
C000
C000
3800
0600
0180
ENDCHAR
STARTCHAR 003D
ENCODING 61
SWIDTH 687 0
DWIDTH 11 0
BBX 9 4 1 3
BITMAP
FF80
0000
0000
FF80
ENDCHAR
STARTCHAR 003E
ENCODING 62
SWIDTH 687 0
DWIDTH 11 0
BBX 9 8 1 1
BITMAP
C000
3800
0600
0180
0300
0C00
3000
C000
ENDCHAR
STARTCHAR 003F
ENCODING 63
SWIDTH 562 0
DWIDTH 9 0
BBX 8 12 0 0
BITMAP
3C
63
41
C1
03
06
0C
18
18
00
18
18
ENDCHAR
STARTCHAR 0040
ENCODING 64
SWIDTH 875 0
DWIDTH 14 0
BBX 12 12 1 0
BITMAP
0F80
3040
6720
4990
9890
9090
9110
9110
D320
4EC0
3020
1FC0
ENDCHAR
STARTCHAR 0041
ENCODING 65
SWIDTH 625 0
DWIDTH 10 0
BBX 10 12 0 1
BITMAP
0C00
0C00
0E00
1200
1200
3300
2100
3F00
6080
4080
40C0
C0C0
ENDCHAR
STARTCHAR 0042
ENCODING 66
SWIDTH 687 0
DWIDTH 11 0
BBX 8 12 2 0
BITMAP
FC
86
82
82
86
F8
86
81
81
81
82
FC
ENDCHAR
STARTCHAR 0043
ENCODING 67
SWIDTH 750 0
DWIDTH 12 0
BBX 10 12 1 0
BITMAP
1F00
3180
60C0
C080
C000
C000
C000
C000
C000
60C0
3180
1F00
ENDCHAR
STARTCHAR 0044
ENCODING 68
SWIDTH 750 0
DWIDTH 12 0
BBX 9 12 2 0
BITMAP
FC00
8600
8300
8180
8180
8180
8180
8180
8180
8300
8600
FC00
ENDCHAR
STARTCHAR 0045
ENCODING 69
SWIDTH 625 0
DWIDTH 10 0
BBX 7 12 2 0
BITMAP
FE
80
80
80
80
FC
80
80
80
80
80
FE
ENDCHAR
STARTCHAR 0046
ENCODING 70
SWIDTH 562 0
DWIDTH 9 0
BBX 7 12 2 0
BITMAP
FE
80
80
80
80
FC
80
80
80
80
80
80
ENDCHAR
STARTCHAR 0047
ENCODING 71
SWIDTH 750 0
DWIDTH 12 0
BBX 10 12 1 0
BITMAP
1F00
3180
60C0
C000
C000
C000
C3C0
C040
C040
6040
30C0
1F00
ENDCHAR
STARTCHAR 0048
ENCODING 72
SWIDTH 750 0
DWIDTH 12 0
BBX 8 11 2 0
BITMAP
81
81
81
81
81
FF
81
81
81
81
81
ENDCHAR
STARTCHAR 0049
ENCODING 73
SWIDTH 312 0
DWIDTH 5 0
BBX 1 12 2 0
BITMAP
80
80
80
80
80
80
80
80
80
80
80
80
ENDCHAR
STARTCHAR 004A
ENCODING 74
SWIDTH 375 0
DWIDTH 6 0
BBX 4 11 1 1
BITMAP
10
10
10
10
10
10
10
10
10
10
E0
ENDCHAR
STARTCHAR 004B
ENCODING 75
SWIDTH 625 0
DWIDTH 10 0
BBX 8 12 2 0
BITMAP
82
86
8C
98
B0
E0
D0
98
8C
86
82
83
ENDCHAR
STARTCHAR 004C
ENCODING 76
SWIDTH 500 0
DWIDTH 8 0
BBX 6 11 2 1
BITMAP
80
80
80
80
80
80
80
80
80
80
FC
ENDCHAR
STARTCHAR 004D
ENCODING 77
SWIDTH 875 0
DWIDTH 14 0
BBX 11 11 2 0
BITMAP
C060
C060
E0E0
A0A0
B1A0
9120
9120
9B20
8A20
8E20
8420
ENDCHAR
STARTCHAR 004E
ENCODING 78
SWIDTH 750 0
DWIDTH 12 0
BBX 9 11 2 0
BITMAP
C080
E080
A080
B080
9880
8C80
8C80
8680
8380
8180
8180
ENDCHAR
STARTCHAR 004F
ENCODING 79
SWIDTH 812 0
DWIDTH 13 0
BBX 11 12 1 0
BITMAP
1F00
3180
60C0
C060
C060
C060
C060
C060
C060
60C0
3180
1F00
ENDCHAR
STARTCHAR 0050
ENCODING 80
SWIDTH 625 0
DWIDTH 10 0
BBX 7 12 2 0
BITMAP
F8
86
82
82
82
84
F8
80
80
80
80
80
ENDCHAR
STARTCHAR 0051
ENCODING 81
SWIDTH 812 0
DWIDTH 13 0
BBX 11 13 1 -1
BITMAP
1F00
3080
6040
C020
C020
C020
C020
C020
C460
6340
3180
1FC0
0020
ENDCHAR
STARTCHAR 0052
ENCODING 82
SWIDTH 625 0
DWIDTH 10 0
BBX 8 12 2 0
BITMAP
F8
84
82
82
82
84
F8
8C
84
86
82
83
ENDCHAR
STARTCHAR 0053
ENCODING 83
SWIDTH 562 0
DWIDTH 9 0
BBX 8 12 1 0
BITMAP
3C
C6
80
80
C0
78
0E
03
01
01
C6
3C
ENDCHAR
STARTCHAR 0054
ENCODING 84
SWIDTH 625 0
DWIDTH 10 0
BBX 9 11 0 0
BITMAP
FF80
0800
0800
0800
0800
0800
0800
0800
0800
0800
0800
ENDCHAR
STARTCHAR 0055
ENCODING 85
SWIDTH 750 0
DWIDTH 12 0
BBX 10 11 1 1
BITMAP
8040
8040
8040
8040
8040
8040
8040
8040
8040
6180
3F00
ENDCHAR
STARTCHAR 0056
ENCODING 86
SWIDTH 625 0
DWIDTH 10 0
BBX 10 12 0 0
BITMAP
C0C0
40C0
6080
6180
2100
3100
1300
1200
1E00
0C00
0C00
0C00
ENDCHAR
STARTCHAR 0057
ENCODING 87
SWIDTH 937 0
DWIDTH 15 0
BBX 15 12 0 0
BITMAP
C106
4304
4284
628C
6288
26C8
3458
3450
1C50
1870
1830
0820
ENDCHAR
STARTCHAR 0058
ENCODING 88
SWIDTH 687 0
DWIDTH 11 0
BBX 9 12 1 0
BITMAP
C180
4100
6300
3600
1400
1C00
1C00
3400
2600
6300
C100
C180
ENDCHAR
STARTCHAR 0059
ENCODING 89
SWIDTH 625 0
DWIDTH 10 0
BBX 9 11 0 0
BITMAP
C180
4100
6300
3600
1400
0800
0800
0800
0800
0800
0800
ENDCHAR
STARTCHAR 005A
ENCODING 90
SWIDTH 625 0
DWIDTH 10 0
BBX 9 12 1 0
BITMAP
FF00
0300
0600
0600
0C00
1800
1800
3000
6000
4000
C000
FF80
ENDCHAR
STARTCHAR 005B
ENCODING 91
SWIDTH 312 0
DWIDTH 5 0
BBX 3 14 1 -2
BITMAP
E0
80
80
80
80
80
80
80
80
80
80
80
80
E0
ENDCHAR
STARTCHAR 005C
ENCODING 92
SWIDTH 500 0
DWIDTH 8 0
BBX 6 14 1 -2
BITMAP
80
40
40
40
20
20
20
10
10
08
08
08
04
04
ENDCHAR
STARTCHAR 005D
ENCODING 93
SWIDTH 312 0
DWIDTH 5 0
BBX 3 14 0 -2
BITMAP
E0
20
20
20
20
20
20
20
20
20
20
20
20
E0
ENDCHAR
STARTCHAR 005E
ENCODING 94
SWIDTH 500 0
DWIDTH 8 0
BBX 8 4 0 5
BITMAP
18
24
66
C3
ENDCHAR
STARTCHAR 005F
ENCODING 95
SWIDTH 500 0
DWIDTH 8 0
BBX 8 1 0 -2
BITMAP
FF
ENDCHAR
STARTCHAR 0060
ENCODING 96
SWIDTH 500 0
DWIDTH 8 0
BBX 3 3 2 9
BITMAP
C0
40
20
ENDCHAR
STARTCHAR 0061
ENCODING 97
SWIDTH 562 0
DWIDTH 9 0
BBX 7 8 0 0
BITMAP
3C
66
02
3E
C2
82
86
7A
ENDCHAR
STARTCHAR 0062
ENCODING 98
SWIDTH 625 0
DWIDTH 10 0
BBX 7 12 1 -1
BITMAP
80
80
80
80
B8
C4
82
82
82
82
C4
B8
ENDCHAR
STARTCHAR 0063
ENCODING 99
SWIDTH 562 0
DWIDTH 9 0
BBX 7 8 1 0
BITMAP
3C
46
80
80
80
80
46
3C
ENDCHAR
STARTCHAR 0064
ENCODING 100
SWIDTH 625 0
DWIDTH 10 0
BBX 7 12 1 0
BITMAP
02
02
02
02
3A
46
82
82
82
82
46
3A
ENDCHAR
STARTCHAR 0065
ENCODING 101
SWIDTH 562 0
DWIDTH 9 0
BBX 7 8 1 0
BITMAP
3C
46
82
FE
80
C0
42
3C
ENDCHAR
STARTCHAR 0066
ENCODING 102
SWIDTH 312 0
DWIDTH 5 0
BBX 5 12 1 0
BITMAP
38
40
40
40
F0
40
40
40
40
40
40
40
ENDCHAR
STARTCHAR 0067
ENCODING 103
SWIDTH 562 0
DWIDTH 9 0
BBX 7 11 1 -2
BITMAP
7E
C6
82
C6
7C
80
C0
3C
C2
82
7C
ENDCHAR
STARTCHAR 0068
ENCODING 104
SWIDTH 625 0
DWIDTH 10 0
BBX 7 12 1 0
BITMAP
80
80
80
80
BC
C6
82
82
82
82
82
82
ENDCHAR
STARTCHAR 0069
ENCODING 105
SWIDTH 250 0
DWIDTH 4 0
BBX 2 11 1 0
BITMAP
C0
C0
00
00
80
80
80
80
80
80
80
ENDCHAR
STARTCHAR 006A
ENCODING 106
SWIDTH 250 0
DWIDTH 4 0
BBX 4 14 -1 -4
BITMAP
30
30
00
00
10
10
10
10
10
10
10
10
30
E0
ENDCHAR
STARTCHAR 006B
ENCODING 107
SWIDTH 500 0
DWIDTH 8 0
BBX 6 12 1 0
BITMAP
80
80
80
80
8C
98
B0
E0
F0
90
88
8C
ENDCHAR
STARTCHAR 006C
ENCODING 108
SWIDTH 250 0
DWIDTH 4 0
BBX 1 12 1 0
BITMAP
80
80
80
80
80
80
80
80
80
80
80
80
ENDCHAR
STARTCHAR 006D
ENCODING 109
SWIDTH 875 0
DWIDTH 14 0
BBX 12 8 1 0
BITMAP
B9E0
C630
8410
8410
8410
8410
8410
8410
ENDCHAR
STARTCHAR 006E
ENCODING 110
SWIDTH 625 0
DWIDTH 10 0
BBX 7 8 1 0
BITMAP
BC
C6
82
82
82
82
82
82
ENDCHAR
STARTCHAR 006F
ENCODING 111
SWIDTH 625 0
DWIDTH 10 0
BBX 8 8 1 0
BITMAP
3C
42
81
81
81
81
42
3C
ENDCHAR
STARTCHAR 0070
ENCODING 112
SWIDTH 625 0
DWIDTH 10 0
BBX 7 11 1 -4
BITMAP
B8
C4
82
82
82
82
C4
B8
80
80
80
ENDCHAR
STARTCHAR 0071
ENCODING 113
SWIDTH 625 0
DWIDTH 10 0
BBX 7 11 2 -3
BITMAP
3A
46
82
82
82
82
46
3A
02
02
02
ENDCHAR
STARTCHAR 0072
ENCODING 114
SWIDTH 375 0
DWIDTH 6 0
BBX 4 8 1 1
BITMAP
B0
C0
80
80
80
80
80
80
ENDCHAR
STARTCHAR 0073
ENCODING 115
SWIDTH 437 0
DWIDTH 7 0
BBX 6 8 1 0
BITMAP
78
88
80
60
18
04
84
78
ENDCHAR
STARTCHAR 0074
ENCODING 116
SWIDTH 375 0
DWIDTH 6 0
BBX 4 10 1 1
BITMAP
40
40
F0
40
40
40
40
40
40
70
ENDCHAR
STARTCHAR 0075
ENCODING 117
SWIDTH 625 0
DWIDTH 10 0
BBX 7 8 1 0
BITMAP
82
82
82
82
82
82
C6
7A
ENDCHAR
STARTCHAR 0076
ENCODING 118
SWIDTH 500 0
DWIDTH 8 0
BBX 8 8 0 0
BITMAP
C3
42
66
24
24
38
18
18
ENDCHAR
STARTCHAR 0077
ENCODING 119
SWIDTH 750 0
DWIDTH 12 0
BBX 12 8 0 0
BITMAP
C630
4620
4620
6960
2940
2940
30C0
1080
ENDCHAR
STARTCHAR 0078
ENCODING 120
SWIDTH 500 0
DWIDTH 8 0
BBX 6 8 1 0
BITMAP
84
C8
78
30
30
58
CC
84
ENDCHAR
STARTCHAR 0079
ENCODING 121
SWIDTH 500 0
DWIDTH 8 0
BBX 8 11 0 -4
BITMAP
C3
42
66
24
24
1C
18
18
10
30
60
ENDCHAR
STARTCHAR 007A
ENCODING 122
SWIDTH 500 0
DWIDTH 8 0
BBX 6 8 1 0
BITMAP
FC
08
18
30
20
40
C0
FC
ENDCHAR
STARTCHAR 007B
ENCODING 123
SWIDTH 312 0
DWIDTH 5 0
BBX 4 15 1 -3
BITMAP
30
40
40
40
40
40
40
80
40
40
40
40
40
40
20
ENDCHAR
STARTCHAR 007C
ENCODING 124
SWIDTH 187 0
DWIDTH 3 0
BBX 1 14 1 -3
BITMAP
80
80
80
80
80
80
80
80
80
80
80
80
80
80
ENDCHAR
STARTCHAR 007D
ENCODING 125
SWIDTH 312 0
DWIDTH 5 0
BBX 4 15 0 -3
BITMAP
C0
20
20
20
20
20
20
10
20
20
20
20
20
20
40
ENDCHAR
STARTCHAR 007E
ENCODING 126
SWIDTH 500 0
DWIDTH 8 0
BBX 5 2 1 10
BITMAP
60
98
ENDCHAR
STARTCHAR 00A0
ENCODING 160
SWIDTH 250 0
DWIDTH 4 0
BBX 0 0 0 0
BITMAP
ENDCHAR
STARTCHAR 00A1
ENCODING 161
SWIDTH 312 0
DWIDTH 5 0
BBX 2 12 2 0
BITMAP
C0
C0
00
C0
C0
C0
C0
C0
C0
C0
C0
C0
ENDCHAR
STARTCHAR 00A2
ENCODING 162
SWIDTH 625 0
DWIDTH 10 0
BBX 8 12 1 1
BITMAP
04
3C
46
8B
88
98
90
D3
72
3C
20
40
ENDCHAR
STARTCHAR 00A3
ENCODING 163
SWIDTH 812 0
DWIDTH 13 0
BBX 11 12 1 0
BITMAP
0F00
1180
1080
1000
7F00
0C00
0400
7400
8C20
8C20
CA40
7180
ENDCHAR
STARTCHAR 00A4
ENCODING 164
SWIDTH 625 0
DWIDTH 10 0
BBX 7 7 2 2
BITMAP
FC
C4
82
82
84
C4
38
ENDCHAR
STARTCHAR 00A5
ENCODING 165
SWIDTH 625 0
DWIDTH 10 0
BBX 9 12 0 0
BITMAP
C180
4100
6300
2200
1400
1C00
7F00
0800
7F00
0800
0800
0800
ENDCHAR
STARTCHAR 00A6
ENCODING 166
SWIDTH 187 0
DWIDTH 3 0
BBX 1 14 1 -3
BITMAP
80
80
80
80
80
80
00
00
80
80
80
80
80
80
ENDCHAR
STARTCHAR 00A7
ENCODING 167
SWIDTH 625 0
DWIDTH 10 0
BBX 7 14 1 -1
BITMAP
3C
46
46
40
30
4C
82
C2
76
0C
02
42
42
3C
ENDCHAR
STARTCHAR 00A8
ENCODING 168
SWIDTH 500 0
DWIDTH 8 0
BBX 4 1 2 10
BITMAP
90
ENDCHAR
STARTCHAR 00A9
ENCODING 169
SWIDTH 1000 0
DWIDTH 16 0
BBX 14 13 1 -1
BITMAP
0FC0
3020
4790
4868
9004
9004
9004
9004
C86C
4788
2010
1860
0FC0
ENDCHAR
STARTCHAR 00AA
ENCODING 170
SWIDTH 437 0
DWIDTH 7 0
BBX 5 8 1 4
BITMAP
70
48
78
88
98
78
00
F8
ENDCHAR
STARTCHAR 00AB
ENCODING 171
SWIDTH 625 0
DWIDTH 10 0
BBX 6 7 2 0
BITMAP
24
48
D8
90
D8
48
24
ENDCHAR
STARTCHAR 00AC
ENCODING 172
SWIDTH 687 0
DWIDTH 11 0
BBX 8 4 1 2
BITMAP
FF
01
01
01
ENDCHAR
STARTCHAR 00AD
ENCODING 173
SWIDTH 687 0
DWIDTH 11 0
BBX 9 1 1 5
BITMAP
FF80
ENDCHAR
STARTCHAR 00AE
ENCODING 174
SWIDTH 1000 0
DWIDTH 16 0
BBX 13 12 1 0
BITMAP
0F80
3060
4F90
4850
8848
88C8
8F08
8988
48D0
6850
3060
0F80
ENDCHAR
STARTCHAR 00AF
ENCODING 175
SWIDTH 500 0
DWIDTH 8 0
BBX 4 1 2 10
BITMAP
F0
ENDCHAR
STARTCHAR 00B0
ENCODING 176
SWIDTH 312 0
DWIDTH 5 0
BBX 3 3 1 10
BITMAP
E0
A0
E0
ENDCHAR
STARTCHAR 00B1
ENCODING 177
SWIDTH 687 0
DWIDTH 11 0
BBX 9 9 1 2
BITMAP
0800
0800
0800
FF80
0800
0800
0800
0000
FF80
ENDCHAR
STARTCHAR 00B2
ENCODING 178
SWIDTH 375 0
DWIDTH 6 0
BBX 4 6 1 6
BITMAP
60
90
10
60
80
F0
ENDCHAR
STARTCHAR 00B3
ENCODING 179
SWIDTH 375 0
DWIDTH 6 0
BBX 4 6 1 6
BITMAP
E0
10
70
10
90
E0
ENDCHAR
STARTCHAR 00B4
ENCODING 180
SWIDTH 500 0
DWIDTH 8 0
BBX 3 3 3 9
BITMAP
60
40
80
ENDCHAR
STARTCHAR 00B6
ENCODING 182
SWIDTH 1000 0
DWIDTH 16 0
BBX 6 14 4 -2
BITMAP
7C
F4
F4
F4
F4
34
14
14
14
14
14
14
14
14
ENDCHAR
STARTCHAR 00B7
ENCODING 183
SWIDTH 250 0
DWIDTH 4 0
BBX 2 2 1 4
BITMAP
C0
C0
ENDCHAR
STARTCHAR 00B8
ENCODING 184
SWIDTH 500 0
DWIDTH 8 0
BBX 4 4 2 -3
BITMAP
40
30
10
E0
ENDCHAR
STARTCHAR 00B9
ENCODING 185
SWIDTH 375 0
DWIDTH 6 0
BBX 3 6 1 5
BITMAP
20
E0
20
20
20
20
ENDCHAR
STARTCHAR 00BA
ENCODING 186
SWIDTH 437 0
DWIDTH 7 0
BBX 5 8 1 4
BITMAP
70
88
88
88
88
70
00
F8
ENDCHAR
STARTCHAR 00BB
ENCODING 187
SWIDTH 625 0
DWIDTH 10 0
BBX 6 7 2 0
BITMAP
90
90
48
24
48
98
90
ENDCHAR
STARTCHAR 00BC
ENCODING 188
SWIDTH 875 0
DWIDTH 14 0
BBX 11 12 1 -1
BITMAP
2040
E080
2080
2100
2200
2200
04C0
08C0
0940
1240
23E0
2040
ENDCHAR
STARTCHAR 00BD
ENCODING 189
SWIDTH 875 0
DWIDTH 14 0
BBX 12 12 1 -1
BITMAP
2040
E040
2080
2100
2100
2200
04E0
0910
0830
10C0
2100
21F0
ENDCHAR
STARTCHAR 00BE
ENCODING 190
SWIDTH 875 0
DWIDTH 14 0
BBX 11 12 1 -1
BITMAP
E040
9080
3100
7100
1200
E400
04C0
0940
1140
1240
23E0
4040
ENDCHAR
STARTCHAR 00BF
ENCODING 191
SWIDTH 562 0
DWIDTH 9 0
BBX 8 12 1 0
BITMAP
18
18
00
18
18
10
60
C0
80
83
C6
3C
ENDCHAR
STARTCHAR 00C0
ENCODING 192
SWIDTH 625 0
DWIDTH 10 0
BBX 10 14 0 0
BITMAP
0800
0C00
0000
0C00
0C00
1A00
1200
1300
2100
3F00
6080
4080
40C0
C0C0
ENDCHAR
STARTCHAR 00C1
ENCODING 193
SWIDTH 625 0
DWIDTH 10 0
BBX 10 14 0 0
BITMAP
0600
0400
0000
0C00
0C00
1A00
1200
1300
2100
3F00
6080
4080
40C0
C0C0
ENDCHAR
STARTCHAR 00C2
ENCODING 194
SWIDTH 625 0
DWIDTH 10 0
BBX 10 15 0 0
BITMAP
0C00
0A00
1000
0C00
0C00
0E00
1200
1200
3300
2100
3F00
6080
4080
40C0
C0C0
ENDCHAR
STARTCHAR 00C3
ENCODING 195
SWIDTH 625 0
DWIDTH 10 0
BBX 10 15 0 0
BITMAP
1800
2700
0000
0C00
0C00
0E00
1200
1200
3300
2100
3F00
6080
4080
40C0
C0C0
ENDCHAR
STARTCHAR 00C4
ENCODING 196
SWIDTH 625 0
DWIDTH 10 0
BBX 10 14 0 1
BITMAP
1300
0000
0C00
0C00
0E00
1200
1200
3300
2100
3F00
6080
4080
40C0
C0C0
ENDCHAR
STARTCHAR 00C5
ENCODING 197
SWIDTH 625 0
DWIDTH 10 0
BBX 10 15 0 0
BITMAP
0E00
0A00
0E00
0C00
0C00
0E00
1A00
1200
1300
2100
3F00
6080
4080
40C0
C0C0
ENDCHAR
STARTCHAR 00C6
ENCODING 198
SWIDTH 875 0
DWIDTH 14 0
BBX 13 12 0 0
BITMAP
07F8
0E00
0B00
0B00
1300
11F8
3100
3F00
6100
6180
4180
C1F8
ENDCHAR
STARTCHAR 00C7
ENCODING 199
SWIDTH 750 0
DWIDTH 12 0
BBX 9 16 1 -5
BITMAP
1F00
3180
6080
C080
C000
C000
C000
C000
C000
6080
7180
3F80
0400
0C00
0200
0E00
ENDCHAR
STARTCHAR 00C8
ENCODING 200
SWIDTH 625 0
DWIDTH 10 0
BBX 7 14 2 0
BITMAP
20
10
FE
80
80
80
80
FC
80
80
80
80
80
FE
ENDCHAR
STARTCHAR 00C9
ENCODING 201
SWIDTH 625 0
DWIDTH 10 0
BBX 7 14 2 0
BITMAP
18
00
FE
80
80
80
80
FC
80
80
80
80
80
FE
ENDCHAR
STARTCHAR 00CA
ENCODING 202
SWIDTH 625 0
DWIDTH 10 0
BBX 7 15 2 0
BITMAP
30
28
00
FE
80
80
80
80
FC
80
80
80
80
80
FE
ENDCHAR
STARTCHAR 00CB
ENCODING 203
SWIDTH 625 0
DWIDTH 10 0
BBX 7 14 2 1
BITMAP
4C
00
FE
80
80
80
80
FC
80
80
80
80
80
FE
ENDCHAR
STARTCHAR 00CC
ENCODING 204
SWIDTH 312 0
DWIDTH 5 0
BBX 2 14 1 0
BITMAP
80
40
00
40
40
40
40
40
40
40
40
40
40
40
ENDCHAR
STARTCHAR 00CD
ENCODING 205
SWIDTH 312 0
DWIDTH 5 0
BBX 2 14 2 0
BITMAP
40
80
00
80
80
80
80
80
80
80
80
80
80
80
ENDCHAR
STARTCHAR 00CE
ENCODING 206
SWIDTH 312 0
DWIDTH 5 0
BBX 3 14 1 1
BITMAP
E0
A0
00
40
40
40
40
40
40
40
40
40
40
40
ENDCHAR
STARTCHAR 00CF
ENCODING 207
SWIDTH 312 0
DWIDTH 5 0
BBX 5 14 0 0
BITMAP
D8
D8
00
20
20
20
20
20
20
20
20
20
20
20
ENDCHAR
STARTCHAR 00D0
ENCODING 208
SWIDTH 750 0
DWIDTH 12 0
BBX 10 12 1 0
BITMAP
7E00
4300
4180
40C0
40C0
F8C0
40C0
40C0
40C0
4180
4300
7E00
ENDCHAR
STARTCHAR 00D1
ENCODING 209
SWIDTH 750 0
DWIDTH 12 0
BBX 9 14 2 0
BITMAP
3800
6E00
0000
C080
E080
A080
B080
9880
8C80
8480
8680
8380
8180
8180
ENDCHAR
STARTCHAR 00D2
ENCODING 210
SWIDTH 812 0
DWIDTH 13 0
BBX 11 14 1 0
BITMAP
0800
0400
1F00
3180
60C0
C060
C060
C060
C060
C060
C060
60C0
3180
1F00
ENDCHAR
STARTCHAR 00D3
ENCODING 211
SWIDTH 812 0
DWIDTH 13 0
BBX 11 14 1 0
BITMAP
0600
0000
1F00
3180
60C0
C060
C060
C060
C060
C060
C060
60C0
3180
1F00
ENDCHAR
STARTCHAR 00D4
ENCODING 212
SWIDTH 812 0
DWIDTH 13 0
BBX 11 15 1 0
BITMAP
0C00
0A00
0000
1F00
3180
60C0
C060
C060
C060
C060
C060
C060
60C0
3180
1F00
ENDCHAR
STARTCHAR 00D5
ENCODING 213
SWIDTH 812 0
DWIDTH 13 0
BBX 11 15 1 0
BITMAP
1800
1700
0000
1F00
3180
60C0
C060
C060
C060
C060
C060
C060
60C0
3180
1F00
ENDCHAR
STARTCHAR 00D6
ENCODING 214
SWIDTH 812 0
DWIDTH 13 0
BBX 11 14 1 1
BITMAP
1300
0000
1F00
3180
60C0
C060
C060
C060
C060
C060
C060
60C0
3180
1F00
ENDCHAR
STARTCHAR 00D7
ENCODING 215
SWIDTH 687 0
DWIDTH 11 0
BBX 7 7 2 2
BITMAP
82
44
28
10
28
44
80
ENDCHAR
STARTCHAR 00D8
ENCODING 216
SWIDTH 812 0
DWIDTH 13 0
BBX 11 12 1 -1
BITMAP
1F40
3180
61C0
C160
C260
C460
C860
C860
D060
60C0
7180
5F00
ENDCHAR
STARTCHAR 00D9
ENCODING 217
SWIDTH 750 0
DWIDTH 12 0
BBX 10 14 1 0
BITMAP
1800
0C00
0000
8040
8040
8040
8040
8040
8040
8040
8040
8040
6180
3F00
ENDCHAR
STARTCHAR 00DA
ENCODING 218
SWIDTH 750 0
DWIDTH 12 0
BBX 10 14 1 0
BITMAP
0600
0C00
0000
8040
8040
8040
8040
8040
8040
8040
8040
8040
6180
3F00
ENDCHAR
STARTCHAR 00DB
ENCODING 219
SWIDTH 750 0
DWIDTH 12 0
BBX 10 14 1 1
BITMAP
1E00
1200
0000
8040
8040
8040
8040
8040
8040
8040
8040
8040
6180
3F00
ENDCHAR
STARTCHAR 00DC
ENCODING 220
SWIDTH 750 0
DWIDTH 12 0
BBX 10 14 1 0
BITMAP
3300
3300
0000
8040
8040
8040
8040
8040
8040
8040
8040
8040
6180
3F00
ENDCHAR
STARTCHAR 00DD
ENCODING 221
SWIDTH 625 0
DWIDTH 10 0
BBX 9 13 0 0
BITMAP
0C00
0000
C180
4100
6300
3600
1400
0800
0800
0800
0800
0800
0800
ENDCHAR
STARTCHAR 00DE
ENCODING 222
SWIDTH 625 0
DWIDTH 10 0
BBX 7 12 1 0
BITMAP
80
80
F8
84
82
82
82
84
F8
80
80
80
ENDCHAR
STARTCHAR 00DF
ENCODING 223
SWIDTH 562 0
DWIDTH 9 0
BBX 6 12 1 0
BITMAP
78
CC
84
84
88
B0
88
84
84
84
8C
B8
ENDCHAR
STARTCHAR 00E0
ENCODING 224
SWIDTH 562 0
DWIDTH 9 0
BBX 7 11 0 1
BITMAP
10
08
00
3C
66
02
3E
C2
82
86
7A
ENDCHAR
STARTCHAR 00E1
ENCODING 225
SWIDTH 562 0
DWIDTH 9 0
BBX 7 11 0 1
BITMAP
08
10
00
3C
66
02
3E
C2
82
86
7A
ENDCHAR
STARTCHAR 00E2
ENCODING 226
SWIDTH 562 0
DWIDTH 9 0
BBX 7 11 0 1
BITMAP
18
24
00
3C
66
02
3E
C2
82
86
7A
ENDCHAR
STARTCHAR 00E3
ENCODING 227
SWIDTH 562 0
DWIDTH 9 0
BBX 7 12 0 0
BITMAP
30
4C
00
00
3C
66
02
3E
C2
82
86
7A
ENDCHAR
STARTCHAR 00E4
ENCODING 228
SWIDTH 562 0
DWIDTH 9 0
BBX 7 11 0 1
BITMAP
24
00
00
3C
66
02
3E
C2
82
86
7A
ENDCHAR
STARTCHAR 00E5
ENCODING 229
SWIDTH 562 0
DWIDTH 9 0
BBX 7 12 0 0
BITMAP
18
18
18
00
3C
66
02
3E
C2
82
86
7A
ENDCHAR
STARTCHAR 00E6
ENCODING 230
SWIDTH 875 0
DWIDTH 14 0
BBX 12 8 1 0
BITMAP
79E0
C630
0610
7FF0
C400
8600
8F10
79E0
ENDCHAR
STARTCHAR 00E7
ENCODING 231
SWIDTH 562 0
DWIDTH 9 0
BBX 7 12 1 -4
BITMAP
3C
46
80
80
80
80
46
7C
10
1C
04
38
ENDCHAR
STARTCHAR 00E8
ENCODING 232
SWIDTH 562 0
DWIDTH 9 0
BBX 7 11 1 1
BITMAP
30
10
00
3C
46
82
FE
80
C0
42
3C
ENDCHAR
STARTCHAR 00E9
ENCODING 233
SWIDTH 562 0
DWIDTH 9 0
BBX 7 11 1 1
BITMAP
18
10
00
3C
46
82
FE
80
C0
42
3C
ENDCHAR
STARTCHAR 00EA
ENCODING 234
SWIDTH 562 0
DWIDTH 9 0
BBX 7 11 1 1
BITMAP
38
24
00
3C
46
82
FE
80
C0
42
3C
ENDCHAR
STARTCHAR 00EB
ENCODING 235
SWIDTH 562 0
DWIDTH 9 0
BBX 7 11 1 1
BITMAP
6C
00
00
3C
46
82
FE
80
C0
42
3C
ENDCHAR
STARTCHAR 00EC
ENCODING 236
SWIDTH 250 0
DWIDTH 4 0
BBX 2 11 0 1
BITMAP
C0
40
00
40
40
40
40
40
40
40
40
ENDCHAR
STARTCHAR 00ED
ENCODING 237
SWIDTH 250 0
DWIDTH 4 0
BBX 2 11 1 1
BITMAP
C0
80
00
80
80
80
80
80
80
80
80
ENDCHAR
STARTCHAR 00EE
ENCODING 238
SWIDTH 250 0
DWIDTH 4 0
BBX 3 11 0 1
BITMAP
E0
A0
00
40
40
40
40
40
40
40
40
ENDCHAR
STARTCHAR 00EF
ENCODING 239
SWIDTH 250 0
DWIDTH 4 0
BBX 5 11 -1 1
BITMAP
D8
00
00
20
20
20
20
20
20
20
20
ENDCHAR
STARTCHAR 00F0
ENCODING 240
SWIDTH 625 0
DWIDTH 10 0
BBX 8 12 1 0
BITMAP
24
18
3C
46
3E
43
81
81
81
81
42
3C
ENDCHAR
STARTCHAR 00F1
ENCODING 241
SWIDTH 625 0
DWIDTH 10 0
BBX 7 12 1 0
BITMAP
70
5C
00
00
BC
C6
82
82
82
82
82
82
ENDCHAR
STARTCHAR 00F2
ENCODING 242
SWIDTH 625 0
DWIDTH 10 0
BBX 8 11 1 1
BITMAP
30
18
00
3C
46
81
81
81
81
42
3C
ENDCHAR
STARTCHAR 00F3
ENCODING 243
SWIDTH 625 0
DWIDTH 10 0
BBX 8 11 1 1
BITMAP
08
10
00
3C
46
81
81
81
81
42
3C
ENDCHAR
STARTCHAR 00F4
ENCODING 244
SWIDTH 625 0
DWIDTH 10 0
BBX 8 11 1 1
BITMAP
18
24
00
3C
46
81
81
81
81
42
3C
ENDCHAR
STARTCHAR 00F5
ENCODING 245
SWIDTH 625 0
DWIDTH 10 0
BBX 8 12 1 0
BITMAP
30
4C
00
00
3C
46
81
81
81
81
42
3C
ENDCHAR
STARTCHAR 00F6
ENCODING 246
SWIDTH 625 0
DWIDTH 10 0
BBX 8 11 1 1
BITMAP
24
00
00
3C
46
81
81
81
81
42
3C
ENDCHAR
STARTCHAR 00F7
ENCODING 247
SWIDTH 687 0
DWIDTH 11 0
BBX 9 7 1 2
BITMAP
1800
1800
0000
FF80
0000
1800
1800
ENDCHAR
STARTCHAR 00F8
ENCODING 248
SWIDTH 625 0
DWIDTH 10 0
BBX 8 8 1 0
BITMAP
3E
46
87
89
91
A1
42
FC
ENDCHAR
STARTCHAR 00F9
ENCODING 249
SWIDTH 625 0
DWIDTH 10 0
BBX 7 11 1 1
BITMAP
30
10
00
82
82
82
82
82
82
C6
7A
ENDCHAR
STARTCHAR 00FA
ENCODING 250
SWIDTH 625 0
DWIDTH 10 0
BBX 7 11 1 1
BITMAP
18
10
00
82
82
82
82
82
82
C6
7A
ENDCHAR
STARTCHAR 00FB
ENCODING 251
SWIDTH 625 0
DWIDTH 10 0
BBX 7 11 1 1
BITMAP
38
44
00
82
82
82
82
82
82
C6
7A
ENDCHAR
STARTCHAR 00FC
ENCODING 252
SWIDTH 625 0
DWIDTH 10 0
BBX 7 11 1 1
BITMAP
64
00
00
82
82
82
82
82
82
C6
7A
ENDCHAR
STARTCHAR 00FD
ENCODING 253
SWIDTH 500 0
DWIDTH 8 0
BBX 8 14 0 -3
BITMAP
08
10
00
C3
42
66
24
24
1C
18
18
10
30
60
ENDCHAR
STARTCHAR 00FE
ENCODING 254
SWIDTH 625 0
DWIDTH 10 0
BBX 7 15 1 -4
BITMAP
80
80
80
80
B8
C4
82
82
82
82
C6
BC
80
80
80
ENDCHAR
STARTCHAR 00FF
ENCODING 255
SWIDTH 500 0
DWIDTH 8 0
BBX 8 14 0 -3
BITMAP
24
00
00
C3
42
66
24
24
1C
18
18
10
30
60
ENDCHAR
STARTCHAR 0100
ENCODING 256
SWIDTH 625 0
DWIDTH 10 0
BBX 10 14 0 0
BITMAP
1E00
0000
0C00
0C00
0E00
1A00
1200
3300
2100
3F00
6080
4080
40C0
C0C0
ENDCHAR
STARTCHAR 0101
ENCODING 257
SWIDTH 562 0
DWIDTH 9 0
BBX 7 11 0 0
BITMAP
3C
00
00
3C
66
02
3E
C2
82
86
7A
ENDCHAR
STARTCHAR 0102
ENCODING 258
SWIDTH 625 0
DWIDTH 10 0
BBX 10 15 0 0
BITMAP
1200
1E00
0000
0C00
0C00
0E00
1200
1200
3300
2100
3F00
6080
4080
40C0
C0C0
ENDCHAR
STARTCHAR 0103
ENCODING 259
SWIDTH 562 0
DWIDTH 9 0
BBX 7 11 0 1
BITMAP
24
3C
00
3C
66
02
3E
C2
82
86
7A
ENDCHAR
STARTCHAR 0104
ENCODING 260
SWIDTH 625 0
DWIDTH 10 0
BBX 10 16 0 -4
BITMAP
0C00
0C00
0E00
1200
1200
3300
2100
3F00
6080
4080
40C0
C0C0
00C0
0100
0100
01C0
ENDCHAR
STARTCHAR 0105
ENCODING 261
SWIDTH 562 0
DWIDTH 9 0
BBX 7 12 0 -4
BITMAP
3C
66
02
3E
C2
82
86
7A
06
0C
08
0E
ENDCHAR
STARTCHAR 0106
ENCODING 262
SWIDTH 750 0
DWIDTH 12 0
BBX 10 14 1 0
BITMAP
0600
0000
1F00
3180
6080
C080
C000
C000
C000
C000
C000
60C0
3180
1F00
ENDCHAR
STARTCHAR 0107
ENCODING 263
SWIDTH 562 0
DWIDTH 9 0
BBX 7 11 1 1
BITMAP
08
10
00
3C
46
80
80
80
80
C6
3C
ENDCHAR
STARTCHAR 0108
ENCODING 264
SWIDTH 750 0
DWIDTH 12 0
BBX 10 15 1 0
BITMAP
0C00
0A00
0000
1F00
3180
6080
C080
C000
C000
C000
C000
C000
60C0
3180
1F00
ENDCHAR
STARTCHAR 0109
ENCODING 265
SWIDTH 562 0
DWIDTH 9 0
BBX 7 11 1 1
BITMAP
38
24
00
3C
46
80
80
80
80
C6
3C
ENDCHAR
STARTCHAR 010C
ENCODING 268
SWIDTH 750 0
DWIDTH 12 0
BBX 10 15 1 0
BITMAP
0A00
0E00
0000
1F00
3180
6080
C080
C000
C000
C000
C000
C000
60C0
3180
1F00
ENDCHAR
STARTCHAR 010D
ENCODING 269
SWIDTH 562 0
DWIDTH 9 0
BBX 7 11 1 1
BITMAP
28
18
00
3C
46
80
80
80
80
C6
3C
ENDCHAR
STARTCHAR 010E
ENCODING 270
SWIDTH 750 0
DWIDTH 12 0
BBX 9 15 2 0
BITMAP
2400
1800
0000
FC00
8600
8300
8180
8180
8180
8180
8180
8180
8300
8600
FC00
ENDCHAR
STARTCHAR 010F
ENCODING 271
SWIDTH 625 0
DWIDTH 10 0
BBX 10 12 1 0
BITMAP
02C0
0280
0280
0200
3A00
4600
8200
8200
8200
8200
4600
3A00
ENDCHAR
STARTCHAR 0111
ENCODING 273
SWIDTH 625 0
DWIDTH 10 0
BBX 8 12 1 0
BITMAP
02
02
1F
02
3A
46
82
82
82
82
46
3A
ENDCHAR
STARTCHAR 0112
ENCODING 274
SWIDTH 625 0
DWIDTH 10 0
BBX 7 14 2 0
BITMAP
78
00
FE
80
80
80
80
FC
80
80
80
80
80
FE
ENDCHAR
STARTCHAR 0113
ENCODING 275
SWIDTH 562 0
DWIDTH 9 0
BBX 7 11 1 0
BITMAP
3C
00
00
3C
46
82
FE
80
C0
42
3C
ENDCHAR
STARTCHAR 0118
ENCODING 280
SWIDTH 625 0
DWIDTH 10 0
BBX 7 16 2 -4
BITMAP
FE
80
80
80
80
FC
80
80
80
80
80
FE
30
40
48
70
ENDCHAR
STARTCHAR 0119
ENCODING 281
SWIDTH 562 0
DWIDTH 9 0
BBX 7 12 1 -4
BITMAP
3C
46
82
FE
80
C0
42
3C
10
20
20
38
ENDCHAR
STARTCHAR 011A
ENCODING 282
SWIDTH 625 0
DWIDTH 10 0
BBX 7 15 2 0
BITMAP
28
38
00
FE
80
80
80
80
FC
80
80
80
80
80
FE
ENDCHAR
STARTCHAR 011B
ENCODING 283
SWIDTH 562 0
DWIDTH 9 0
BBX 7 11 1 1
BITMAP
28
10
00
3C
46
82
FE
80
C0
42
3C
ENDCHAR
STARTCHAR 011C
ENCODING 284
SWIDTH 750 0
DWIDTH 12 0
BBX 10 15 1 0
BITMAP
0600
0A00
0000
1F00
3180
60C0
C000
C000
C000
C3C0
C040
C040
6040
30C0
1F00
ENDCHAR
STARTCHAR 011D
ENCODING 285
SWIDTH 562 0
DWIDTH 9 0
BBX 7 14 1 -2
BITMAP
38
48
00
7E
C6
82
C6
7C
80
C0
3E
C2
82
7C
ENDCHAR
STARTCHAR 0124
ENCODING 292
SWIDTH 750 0
DWIDTH 12 0
BBX 8 14 2 0
BITMAP
18
1C
20
81
81
81
81
81
FF
81
81
81
81
81
ENDCHAR
STARTCHAR 0125
ENCODING 293
SWIDTH 625 0
DWIDTH 10 0
BBX 8 15 0 0
BITMAP
40
A0
90
40
40
40
40
5E
63
41
41
41
41
41
41
ENDCHAR
STARTCHAR 0127
ENCODING 295
SWIDTH 625 0
DWIDTH 10 0
BBX 8 12 0 1
BITMAP
40
F8
40
40
5E
63
41
41
41
41
41
41
ENDCHAR
STARTCHAR 012A
ENCODING 298
SWIDTH 312 0
DWIDTH 5 0
BBX 3 14 1 0
BITMAP
E0
00
40
40
40
40
40
40
40
40
40
40
40
40
ENDCHAR
STARTCHAR 012B
ENCODING 299
SWIDTH 250 0
DWIDTH 4 0
BBX 3 11 0 0
BITMAP
E0
00
00
40
40
40
40
40
40
40
40
ENDCHAR
STARTCHAR 0134
ENCODING 308
SWIDTH 375 0
DWIDTH 6 0
BBX 5 14 1 1
BITMAP
30
28
00
10
10
10
10
10
10
10
10
10
10
E0
ENDCHAR
STARTCHAR 0135
ENCODING 309
SWIDTH 250 0
DWIDTH 4 0
BBX 4 15 -1 -4
BITMAP
20
50
50
00
20
20
20
20
20
20
20
20
20
60
C0
ENDCHAR
STARTCHAR 0139
ENCODING 313
SWIDTH 500 0
DWIDTH 8 0
BBX 6 14 2 0
BITMAP
20
40
00
80
80
80
80
80
80
80
80
80
80
FC
ENDCHAR
STARTCHAR 013A
ENCODING 314
SWIDTH 250 0
DWIDTH 4 0
BBX 2 15 1 0
BITMAP
40
80
80
80
80
80
80
80
80
80
80
80
80
80
80
ENDCHAR
STARTCHAR 013D
ENCODING 317
SWIDTH 500 0
DWIDTH 8 0
BBX 6 11 2 1
BITMAP
88
90
90
80
80
80
80
80
80
80
FC
ENDCHAR
STARTCHAR 013E
ENCODING 318
SWIDTH 312 0
DWIDTH 5 0
BBX 3 12 1 0
BITMAP
A0
A0
A0
80
80
80
80
80
80
80
80
80
ENDCHAR
STARTCHAR 0141
ENCODING 321
SWIDTH 500 0
DWIDTH 8 0
BBX 7 11 1 1
BITMAP
40
40
40
58
60
C0
40
40
40
40
7E
ENDCHAR
STARTCHAR 0142
ENCODING 322
SWIDTH 250 0
DWIDTH 4 0
BBX 3 12 0 0
BITMAP
40
40
40
40
60
40
C0
40
40
40
40
40
ENDCHAR
STARTCHAR 0143
ENCODING 323
SWIDTH 750 0
DWIDTH 12 0
BBX 9 13 2 0
BITMAP
0400
0800
C080
E080
A080
B080
9880
8C80
8480
8680
8380
8180
8180
ENDCHAR
STARTCHAR 0144
ENCODING 324
SWIDTH 625 0
DWIDTH 10 0
BBX 7 11 1 1
BITMAP
0C
10
00
BC
C6
82
82
82
82
82
82
ENDCHAR
STARTCHAR 0147
ENCODING 327
SWIDTH 750 0
DWIDTH 12 0
BBX 9 14 2 0
BITMAP
1200
1C00
0000
C080
E080
A080
B080
9880
8C80
8480
8680
8380
8180
8180
ENDCHAR
STARTCHAR 0148
ENCODING 328
SWIDTH 625 0
DWIDTH 10 0
BBX 7 11 1 1
BITMAP
2C
18
00
BC
C6
82
82
82
82
82
82
ENDCHAR
STARTCHAR 014B
ENCODING 331
SWIDTH 625 0
DWIDTH 10 0
BBX 7 11 1 -4
BITMAP
BC
C2
82
82
82
82
82
82
02
06
1C
ENDCHAR
STARTCHAR 014C
ENCODING 332
SWIDTH 812 0
DWIDTH 13 0
BBX 11 14 1 0
BITMAP
1F00
0000
1F00
3180
60C0
C060
C060
C060
C060
C060
C060
60C0
3180
1F00
ENDCHAR
STARTCHAR 014D
ENCODING 333
SWIDTH 625 0
DWIDTH 10 0
BBX 8 11 1 0
BITMAP
3C
00
00
3C
42
81
81
81
81
42
3C
ENDCHAR
STARTCHAR 0150
ENCODING 336
SWIDTH 812 0
DWIDTH 13 0
BBX 11 15 1 0
BITMAP
0500
0A00
0000
1F00
3180
60C0
C060
C060
C060
C060
C060
C060
60C0
3180
1F00
ENDCHAR
STARTCHAR 0151
ENCODING 337
SWIDTH 625 0
DWIDTH 10 0
BBX 8 11 1 1
BITMAP
14
28
00
3C
42
81
81
81
81
42
3C
ENDCHAR
STARTCHAR 0152
ENCODING 338
SWIDTH 1000 0
DWIDTH 16 0
BBX 14 12 2 0
BITMAP
1FFC
3100
6100
C100
C100
C1F8
C100
C100
C100
6100
3100
1FFC
ENDCHAR
STARTCHAR 0153
ENCODING 339
SWIDTH 937 0
DWIDTH 15 0
BBX 14 8 1 0
BITMAP
3CF0
4798
8308
83FC
8300
8300
4788
3CF0
ENDCHAR
STARTCHAR 0154
ENCODING 340
SWIDTH 625 0
DWIDTH 10 0
BBX 8 14 2 0
BITMAP
18
00
F8
84
82
82
82
84
F8
8C
84
86
82
83
ENDCHAR
STARTCHAR 0155
ENCODING 341
SWIDTH 375 0
DWIDTH 6 0
BBX 4 11 1 1
BITMAP
20
40
00
B0
C0
80
80
80
80
80
80
ENDCHAR
STARTCHAR 0158
ENCODING 344
SWIDTH 625 0
DWIDTH 10 0
BBX 8 15 2 0
BITMAP
48
30
00
F8
84
82
82
82
84
F8
8C
84
86
82
83
ENDCHAR
STARTCHAR 0159
ENCODING 345
SWIDTH 375 0
DWIDTH 6 0
BBX 4 11 1 1
BITMAP
A0
40
00
B0
C0
80
80
80
80
80
80
ENDCHAR
STARTCHAR 015A
ENCODING 346
SWIDTH 562 0
DWIDTH 9 0
BBX 8 14 1 0
BITMAP
08
00
3C
C6
80
80
C0
38
0E
03
01
01
C6
3C
ENDCHAR
STARTCHAR 015B
ENCODING 347
SWIDTH 437 0
DWIDTH 7 0
BBX 6 11 1 1
BITMAP
10
20
00
78
88
80
60
18
04
84
78
ENDCHAR
STARTCHAR 015C
ENCODING 348
SWIDTH 562 0
DWIDTH 9 0
BBX 8 15 1 0
BITMAP
18
28
00
3C
C6
80
80
C0
38
0E
03
01
01
C6
3C
ENDCHAR
STARTCHAR 015D
ENCODING 349
SWIDTH 437 0
DWIDTH 7 0
BBX 6 11 1 1
BITMAP
30
48
00
78
88
80
60
18
04
84
78
ENDCHAR
STARTCHAR 015E
ENCODING 350
SWIDTH 562 0
DWIDTH 9 0
BBX 8 16 1 -5
BITMAP
3C
C6
80
80
C0
38
0E
03
01
01
C6
3C
00
10
10
20
ENDCHAR
STARTCHAR 015F
ENCODING 351
SWIDTH 437 0
DWIDTH 7 0
BBX 6 12 1 -5
BITMAP
78
88
80
60
18
04
84
78
00
20
40
40
ENDCHAR
STARTCHAR 0160
ENCODING 352
SWIDTH 562 0
DWIDTH 9 0
BBX 8 15 1 0
BITMAP
28
38
00
3C
C6
80
80
C0
38
0E
03
01
01
C6
3C
ENDCHAR
STARTCHAR 0161
ENCODING 353
SWIDTH 437 0
DWIDTH 7 0
BBX 6 11 1 1
BITMAP
50
20
00
78
88
80
60
18
04
84
78
ENDCHAR
STARTCHAR 0162
ENCODING 354
SWIDTH 625 0
DWIDTH 10 0
BBX 9 15 0 -4
BITMAP
FF80
0800
0800
0800
0800
0800
0800
0800
0800
0800
0800
0000
0800
0800
1000
ENDCHAR
STARTCHAR 0163
ENCODING 355
SWIDTH 375 0
DWIDTH 6 0
BBX 4 14 1 -4
BITMAP
40
40
F0
40
40
40
40
40
40
70
00
20
40
40
ENDCHAR
STARTCHAR 0164
ENCODING 356
SWIDTH 625 0
DWIDTH 10 0
BBX 9 14 0 0
BITMAP
1400
0C00
0000
FF80
0800
0800
0800
0800
0800
0800
0800
0800
0800
0800
ENDCHAR
STARTCHAR 0165
ENCODING 357
SWIDTH 375 0
DWIDTH 6 0
BBX 5 12 1 1
BITMAP
08
08
50
40
F0
40
40
40
40
40
40
70
ENDCHAR
STARTCHAR 016A
ENCODING 362
SWIDTH 750 0
DWIDTH 12 0
BBX 10 14 1 0
BITMAP
3F00
0000
8040
8040
8040
8040
8040
8040
8040
8040
8040
8040
6180
3F00
ENDCHAR
STARTCHAR 016B
ENCODING 363
SWIDTH 625 0
DWIDTH 10 0
BBX 7 11 1 0
BITMAP
7C
00
00
82
82
82
82
82
82
C6
7A
ENDCHAR
STARTCHAR 016C
ENCODING 364
SWIDTH 750 0
DWIDTH 12 0
BBX 10 14 1 1
BITMAP
3300
1E00
0000
8040
8040
8040
8040
8040
8040
8040
8040
8040
6180
3F00
ENDCHAR
STARTCHAR 016D
ENCODING 365
SWIDTH 625 0
DWIDTH 10 0
BBX 7 11 1 1
BITMAP
44
38
00
82
82
82
82
82
82
C6
7A
ENDCHAR
STARTCHAR 016E
ENCODING 366
SWIDTH 750 0
DWIDTH 12 0
BBX 10 15 1 0
BITMAP
0C00
1200
1C00
8040
8040
8040
8040
8040
8040
8040
8040
8040
8040
6180
3F00
ENDCHAR
STARTCHAR 016F
ENCODING 367
SWIDTH 625 0
DWIDTH 10 0
BBX 7 12 1 0
BITMAP
38
28
38
00
82
82
82
82
82
82
C6
7A
ENDCHAR
STARTCHAR 0170
ENCODING 368
SWIDTH 750 0
DWIDTH 12 0
BBX 10 14 1 1
BITMAP
0900
1A00
0000
8040
8040
8040
8040
8040
8040
8040
8040
8040
6180
3F00
ENDCHAR
STARTCHAR 0171
ENCODING 369
SWIDTH 625 0
DWIDTH 10 0
BBX 7 11 1 1
BITMAP
34
2C
00
82
82
82
82
82
82
C6
7A
ENDCHAR
STARTCHAR 0179
ENCODING 377
SWIDTH 625 0
DWIDTH 10 0
BBX 9 14 1 0
BITMAP
0C00
0000
FF00
0300
0200
0600
0C00
1800
1800
3000
6000
4000
C000
FF80
ENDCHAR
STARTCHAR 017A
ENCODING 378
SWIDTH 500 0
DWIDTH 8 0
BBX 6 11 1 1
BITMAP
10
20
00
FC
08
18
30
20
40
C0
FC
ENDCHAR
STARTCHAR 017B
ENCODING 379
SWIDTH 625 0
DWIDTH 10 0
BBX 10 14 0 0
BITMAP
0C00
0C00
7F80
0180
0100
0300
0600
0C00
0800
1800
3000
6000
4000
FFC0
ENDCHAR
STARTCHAR 017C
ENCODING 380
SWIDTH 500 0
DWIDTH 8 0
BBX 7 11 0 0
BITMAP
18
18
00
7E
06
0C
18
10
20
40
FE
ENDCHAR
STARTCHAR 017D
ENCODING 381
SWIDTH 625 0
DWIDTH 10 0
BBX 9 15 1 0
BITMAP
2400
1800
0000
FF00
0300
0200
0600
0C00
1800
1800
3000
6000
4000
C000
FF80
ENDCHAR
STARTCHAR 017E
ENCODING 382
SWIDTH 500 0
DWIDTH 8 0
BBX 6 11 1 1
BITMAP
78
30
00
FC
08
18
30
20
40
C0
FC
ENDCHAR
STARTCHAR 0193
ENCODING 403
SWIDTH 750 0
DWIDTH 12 0
BBX 12 14 1 0
BITMAP
0060
0050
1F40
31C0
60C0
C040
C000
C000
C3C0
C040
C040
6040
30C0
1F00
ENDCHAR
STARTCHAR 01C2
ENCODING 450
SWIDTH 500 0
DWIDTH 8 0
BBX 7 12 1 -1
BITMAP
10
10
10
10
FE
10
10
FE
10
10
10
10
ENDCHAR
STARTCHAR 01CD
ENCODING 461
SWIDTH 625 0
DWIDTH 10 0
BBX 10 15 0 0
BITMAP
1200
0C00
0000
0C00
0C00
0E00
1200
1200
3300
2100
3F00
6080
4080
40C0
C0C0
ENDCHAR
STARTCHAR 01CE
ENCODING 462
SWIDTH 562 0
DWIDTH 9 0
BBX 7 11 0 1
BITMAP
3C
18
00
3C
66
02
3E
C2
82
86
7A
ENDCHAR
STARTCHAR 01D0
ENCODING 464
SWIDTH 250 0
DWIDTH 4 0
BBX 3 12 0 0
BITMAP
A0
A0
40
00
40
40
40
40
40
40
40
40
ENDCHAR
STARTCHAR 01D1
ENCODING 465
SWIDTH 812 0
DWIDTH 13 0
BBX 11 15 1 0
BITMAP
1200
0E00
0000
1F00
3180
60C0
C060
C060
C060
C060
C060
C060
60C0
3180
1F00
ENDCHAR
STARTCHAR 01D2
ENCODING 466
SWIDTH 625 0
DWIDTH 10 0
BBX 8 11 1 1
BITMAP
3C
18
00
3C
42
81
81
81
81
42
3C
ENDCHAR
STARTCHAR 01D4
ENCODING 468
SWIDTH 625 0
DWIDTH 10 0
BBX 7 11 1 1
BITMAP
6C
10
00
82
82
82
82
82
82
C6
7A
ENDCHAR
STARTCHAR 01D6
ENCODING 470
SWIDTH 625 0
DWIDTH 10 0
BBX 7 13 1 0
BITMAP
7C
00
64
64
00
82
82
82
82
82
82
C6
7A
ENDCHAR
STARTCHAR 01D8
ENCODING 472
SWIDTH 625 0
DWIDTH 10 0
BBX 7 14 1 0
BITMAP
08
18
00
64
00
00
82
82
82
82
82
82
C6
7A
ENDCHAR
STARTCHAR 01DA
ENCODING 474
SWIDTH 625 0
DWIDTH 10 0
BBX 7 14 1 0
BITMAP
44
38
00
64
00
00
82
82
82
82
82
82
C6
7A
ENDCHAR
STARTCHAR 01DC
ENCODING 476
SWIDTH 625 0
DWIDTH 10 0
BBX 7 14 1 0
BITMAP
20
30
00
64
00
00
82
82
82
82
82
82
C6
7A
ENDCHAR
STARTCHAR 01F8
ENCODING 504
SWIDTH 750 0
DWIDTH 12 0
BBX 9 13 2 0
BITMAP
1800
0000
C080
E080
A080
B080
9880
8C80
8480
8680
8380
8180
8180
ENDCHAR
STARTCHAR 01F9
ENCODING 505
SWIDTH 625 0
DWIDTH 10 0
BBX 7 11 1 1
BITMAP
60
10
00
BC
C6
82
82
82
82
82
82
ENDCHAR
STARTCHAR 01FD
ENCODING 509
SWIDTH 875 0
DWIDTH 14 0
BBX 12 11 1 1
BITMAP
0300
0200
0000
79E0
C630
0610
7FF0
C400
8600
8F10
79E0
ENDCHAR
STARTCHAR 0250
ENCODING 592
SWIDTH 562 0
DWIDTH 9 0
BBX 7 8 1 0
BITMAP
BC
C2
82
86
F8
80
CC
78
ENDCHAR
STARTCHAR 0251
ENCODING 593
SWIDTH 625 0
DWIDTH 10 0
BBX 7 8 2 0
BITMAP
3A
46
82
82
82
82
46
3A
ENDCHAR
STARTCHAR 0252
ENCODING 594
SWIDTH 625 0
DWIDTH 10 0
BBX 7 8 1 0
BITMAP
B8
C4
82
82
82
82
C4
B8
ENDCHAR
STARTCHAR 0253
ENCODING 595
SWIDTH 625 0
DWIDTH 10 0
BBX 7 12 1 -1
BITMAP
38
44
80
80
B8
C4
82
82
82
82
C4
B8
ENDCHAR
STARTCHAR 0254
ENCODING 596
SWIDTH 562 0
DWIDTH 9 0
BBX 7 8 1 0
BITMAP
78
C4
02
02
02
02
84
78
ENDCHAR
STARTCHAR 0255
ENCODING 597
SWIDTH 562 0
DWIDTH 9 0
BBX 7 9 1 -2
BITMAP
3C
46
80
80
80
8E
52
7C
20
ENDCHAR
STARTCHAR 0256
ENCODING 598
SWIDTH 625 0
DWIDTH 10 0
BBX 9 15 1 -3
BITMAP
0200
0200
0200
0200
3A00
4600
8200
8200
8200
8200
4600
3A00
0200
0200
0380
ENDCHAR
STARTCHAR 0257
ENCODING 599
SWIDTH 625 0
DWIDTH 10 0
BBX 9 12 1 0
BITMAP
0380
0200
0200
0200
3A00
4600
8200
8200
8200
8200
4600
3A00
ENDCHAR
STARTCHAR 0258
ENCODING 600
SWIDTH 562 0
DWIDTH 9 0
BBX 7 8 1 0
BITMAP
78
C4
82
FE
02
02
84
78
ENDCHAR
STARTCHAR 0259
ENCODING 601
SWIDTH 562 0
DWIDTH 9 0
BBX 7 8 1 0
BITMAP
78
C4
02
02
FE
82
C4
78
ENDCHAR
STARTCHAR 025A
ENCODING 602
SWIDTH 812 0
DWIDTH 13 0
BBX 12 8 1 0
BITMAP
3C00
C680
8340
8F50
1930
6100
6200
3C00
ENDCHAR
STARTCHAR 025C
ENCODING 604
SWIDTH 500 0
DWIDTH 8 0
BBX 7 8 0 0
BITMAP
7C
02
02
3C
06
02
02
FC
ENDCHAR
STARTCHAR 025E
ENCODING 606
SWIDTH 625 0
DWIDTH 10 0
BBX 8 8 1 0
BITMAP
3C
42
82
9C
83
81
43
3E
ENDCHAR
STARTCHAR 025F
ENCODING 607
SWIDTH 250 0
DWIDTH 4 0
BBX 4 11 -1 -3
BITMAP
20
20
20
20
20
20
20
70
20
60
C0
ENDCHAR
STARTCHAR 0260
ENCODING 608
SWIDTH 625 0
DWIDTH 10 0
BBX 9 15 2 -3
BITMAP
0380
0200
0200
0200
3A00
4600
8200
8200
8200
8200
4600
3A00
0200
C600
7800
ENDCHAR
STARTCHAR 0261
ENCODING 609
SWIDTH 625 0
DWIDTH 10 0
BBX 7 11 2 -2
BITMAP
3A
46
82
82
82
82
46
3A
02
C6
78
ENDCHAR
STARTCHAR 0264
ENCODING 612
SWIDTH 562 0
DWIDTH 9 0
BBX 9 8 0 0
BITMAP
E180
3600
1C00
1C00
2200
2200
2200
1C00
ENDCHAR
STARTCHAR 0265
ENCODING 613
SWIDTH 625 0
DWIDTH 10 0
BBX 7 11 1 -4
BITMAP
82
82
82
82
82
82
C6
7A
02
02
02
ENDCHAR
STARTCHAR 0266
ENCODING 614
SWIDTH 625 0
DWIDTH 10 0
BBX 7 12 1 0
BITMAP
3C
46
80
80
BC
C6
82
82
82
82
82
82
ENDCHAR
STARTCHAR 0267
ENCODING 615
SWIDTH 625 0
DWIDTH 10 0
BBX 7 15 1 -4
BITMAP
3C
46
80
80
BC
C2
82
82
82
82
82
82
02
06
1C
ENDCHAR
STARTCHAR 0268
ENCODING 616
SWIDTH 312 0
DWIDTH 5 0
BBX 4 12 1 -1
BITMAP
60
60
00
00
40
40
40
F0
40
40
40
40
ENDCHAR
STARTCHAR 026C
ENCODING 620
SWIDTH 312 0
DWIDTH 5 0
BBX 5 12 0 0
BITMAP
10
10
10
F0
90
D0
38
10
10
10
10
10
ENDCHAR
STARTCHAR 026D
ENCODING 621
SWIDTH 312 0
DWIDTH 5 0
BBX 3 15 1 -2
BITMAP
80
80
80
80
80
80
80
80
80
80
80
80
80
80
E0
ENDCHAR
STARTCHAR 026E
ENCODING 622
SWIDTH 625 0
DWIDTH 10 0
BBX 8 15 1 -3
BITMAP
80
80
80
80
FE
86
8C
98
BE
83
81
81
01
62
3C
ENDCHAR
STARTCHAR 026F
ENCODING 623
SWIDTH 875 0
DWIDTH 14 0
BBX 12 8 1 0
BITMAP
8410
8410
8410
8410
8410
8410
8E30
73D0
ENDCHAR
STARTCHAR 0270
ENCODING 624
SWIDTH 875 0
DWIDTH 14 0
BBX 12 11 1 -4
BITMAP
8410
8410
8410
8410
8410
8410
8E30
73D0
0010
0010
0010
ENDCHAR
STARTCHAR 0271
ENCODING 625
SWIDTH 875 0
DWIDTH 14 0
BBX 12 11 1 -4
BITMAP
B9E0
C630
8410
8410
8410
8410
8410
8410
0010
0030
00E0
ENDCHAR
STARTCHAR 0272
ENCODING 626
SWIDTH 625 0
DWIDTH 10 0
BBX 9 11 -1 -4
BITMAP
2F00
3080
2080
2080
2080
2080
2080
2080
2000
6000
C000
ENDCHAR
STARTCHAR 0273
ENCODING 627
SWIDTH 625 0
DWIDTH 10 0
BBX 9 11 1 -3
BITMAP
BC00
C200
8200
8200
8200
8200
8200
8200
0200
0200
0380
ENDCHAR
STARTCHAR 0275
ENCODING 629
SWIDTH 625 0
DWIDTH 10 0
BBX 8 8 1 0
BITMAP
7C
46
83
FF
83
C3
46
3C
ENDCHAR
STARTCHAR 0279
ENCODING 633
SWIDTH 375 0
DWIDTH 6 0
BBX 4 8 0 -1
BITMAP
10
10
10
10
10
10
30
D0
ENDCHAR
STARTCHAR 027A
ENCODING 634
SWIDTH 375 0
DWIDTH 6 0
BBX 4 11 0 0
BITMAP
10
10
10
10
10
10
10
10
10
30
D0
ENDCHAR
STARTCHAR 027B
ENCODING 635
SWIDTH 375 0
DWIDTH 6 0
BBX 6 11 0 -3
BITMAP
10
10
10
10
10
10
30
D0
10
10
1C
ENDCHAR
STARTCHAR 027D
ENCODING 637
SWIDTH 375 0
DWIDTH 6 0
BBX 4 11 1 -2
BITMAP
B0
C0
80
80
80
80
80
80
80
80
E0
ENDCHAR
STARTCHAR 027E
ENCODING 638
SWIDTH 375 0
DWIDTH 6 0
BBX 4 8 1 0
BITMAP
70
80
80
80
80
80
80
80
ENDCHAR
STARTCHAR 0281
ENCODING 641
SWIDTH 562 0
DWIDTH 9 0
BBX 6 8 1 0
BITMAP
84
8C
98
F0
8C
84
84
F8
ENDCHAR
STARTCHAR 0282
ENCODING 642
SWIDTH 437 0
DWIDTH 7 0
BBX 6 11 1 -3
BITMAP
78
80
80
60
18
04
84
F8
80
80
E0
ENDCHAR
STARTCHAR 0283
ENCODING 643
SWIDTH 312 0
DWIDTH 5 0
BBX 4 16 1 -3
BITMAP
30
40
40
40
40
40
40
40
40
40
40
40
40
40
C0
80
ENDCHAR
STARTCHAR 0284
ENCODING 644
SWIDTH 312 0
DWIDTH 5 0
BBX 6 15 0 -4
BITMAP
1C
20
20
20
20
20
20
20
20
20
20
F8
20
60
C0
ENDCHAR
STARTCHAR 0288
ENCODING 648
SWIDTH 375 0
DWIDTH 6 0
BBX 4 13 1 -2
BITMAP
40
40
F0
40
40
40
40
40
40
40
40
40
70
ENDCHAR
STARTCHAR 0289
ENCODING 649
SWIDTH 625 0
DWIDTH 10 0
BBX 9 8 0 0
BITMAP
4100
4100
4100
FF80
4100
4100
4300
3D00
ENDCHAR
STARTCHAR 028A
ENCODING 650
SWIDTH 625 0
DWIDTH 10 0
BBX 8 8 1 0
BITMAP
E7
66
C3
81
81
81
42
3C
ENDCHAR
STARTCHAR 028B
ENCODING 651
SWIDTH 562 0
DWIDTH 9 0
BBX 7 8 1 1
BITMAP
8C
84
84
86
84
84
8C
78
ENDCHAR
STARTCHAR 028C
ENCODING 652
SWIDTH 500 0
DWIDTH 8 0
BBX 8 8 0 1
BITMAP
18
18
38
24
64
46
42
C3
ENDCHAR
STARTCHAR 028D
ENCODING 653
SWIDTH 750 0
DWIDTH 12 0
BBX 12 8 0 1
BITMAP
1080
30C0
2940
2940
6960
4620
4620
C630
ENDCHAR
STARTCHAR 028E
ENCODING 654
SWIDTH 500 0
DWIDTH 8 0
BBX 8 11 0 1
BITMAP
06
0C
08
18
18
38
2C
24
66
42
C3
ENDCHAR
STARTCHAR 0290
ENCODING 656
SWIDTH 500 0
DWIDTH 8 0
BBX 8 11 1 -3
BITMAP
FC
0C
18
10
20
60
C0
FC
04
04
07
ENDCHAR
STARTCHAR 0291
ENCODING 657
SWIDTH 500 0
DWIDTH 8 0
BBX 7 9 1 -2
BITMAP
FC
08
10
30
20
4E
92
FE
20
ENDCHAR
STARTCHAR 0292
ENCODING 658
SWIDTH 500 0
DWIDTH 8 0
BBX 6 11 1 -3
BITMAP
FC
08
10
20
78
0C
04
04
84
88
70
ENDCHAR
STARTCHAR 0294
ENCODING 660
SWIDTH 500 0
DWIDTH 8 0
BBX 7 11 0 0
BITMAP
3C
C6
02
02
06
18
10
10
10
10
10
ENDCHAR
STARTCHAR 0295
ENCODING 661
SWIDTH 500 0
DWIDTH 8 0
BBX 7 11 0 0
BITMAP
78
C6
80
80
C0
30
10
10
10
10
10
ENDCHAR
STARTCHAR 0298
ENCODING 664
SWIDTH 625 0
DWIDTH 10 0
BBX 8 8 1 0
BITMAP
3C
42
9D
9D
9D
81
42
3C
ENDCHAR
STARTCHAR 029D
ENCODING 669
SWIDTH 375 0
DWIDTH 6 0
BBX 6 14 -1 -3
BITMAP
18
18
00
00
08
08
08
08
08
08
08
F8
8C
70
ENDCHAR
STARTCHAR 02A1
ENCODING 673
SWIDTH 500 0
DWIDTH 8 0
BBX 7 11 0 0
BITMAP
3C
C6
02
02
06
18
10
38
10
10
10
ENDCHAR
STARTCHAR 02A2
ENCODING 674
SWIDTH 500 0
DWIDTH 8 0
BBX 7 11 0 0
BITMAP
78
C6
80
80
C0
30
10
38
10
10
10
ENDCHAR
STARTCHAR 02BB
ENCODING 699
SWIDTH 1000 0
DWIDTH 16 0
BBX 2 4 13 10
BITMAP
40
80
C0
C0
ENDCHAR
STARTCHAR 02BC
ENCODING 700
SWIDTH 1000 0
DWIDTH 16 0
BBX 2 4 1 8
BITMAP
C0
C0
40
80
ENDCHAR
STARTCHAR 02C6
ENCODING 710
SWIDTH 500 0
DWIDTH 8 0
BBX 4 3 2 9
BITMAP
60
60
90
ENDCHAR
STARTCHAR 02C7
ENCODING 711
SWIDTH 500 0
DWIDTH 8 0
BBX 4 3 2 9
BITMAP
90
60
60
ENDCHAR
STARTCHAR 02C8
ENCODING 712
SWIDTH 187 0
DWIDTH 3 0
BBX 1 6 1 5
BITMAP
80
80
80
80
80
80
ENDCHAR
STARTCHAR 02CC
ENCODING 716
SWIDTH 187 0
DWIDTH 3 0
BBX 1 6 1 -3
BITMAP
80
80
80
80
80
80
ENDCHAR
STARTCHAR 02D0
ENCODING 720
SWIDTH 312 0
DWIDTH 5 0
BBX 2 8 1 0
BITMAP
C0
40
00
00
00
00
40
C0
ENDCHAR
STARTCHAR 02D1
ENCODING 721
SWIDTH 312 0
DWIDTH 5 0
BBX 2 2 1 5
BITMAP
C0
40
ENDCHAR
STARTCHAR 02D8
ENCODING 728
SWIDTH 500 0
DWIDTH 8 0
BBX 4 1 2 11
BITMAP
F0
ENDCHAR
STARTCHAR 02D9
ENCODING 729
SWIDTH 500 0
DWIDTH 8 0
BBX 2 2 3 9
BITMAP
C0
C0
ENDCHAR
STARTCHAR 02DB
ENCODING 731
SWIDTH 500 0
DWIDTH 8 0
BBX 3 4 2 -3
BITMAP
60
80
80
E0
ENDCHAR
STARTCHAR 02DC
ENCODING 732
SWIDTH 500 0
DWIDTH 8 0
BBX 5 2 1 10
BITMAP
60
98
ENDCHAR
STARTCHAR 02DD
ENCODING 733
SWIDTH 500 0
DWIDTH 8 0
BBX 5 3 2 9
BITMAP
48
50
A0
ENDCHAR
STARTCHAR 02DE
ENCODING 734
SWIDTH 500 0
DWIDTH 8 0
BBX 5 4 2 1
BITMAP
E0
20
28
30
ENDCHAR
STARTCHAR 02E5
ENCODING 741
SWIDTH 500 0
DWIDTH 8 0
BBX 4 12 1 0
BITMAP
F0
10
10
10
10
10
10
10
10
10
10
10
ENDCHAR
STARTCHAR 02E6
ENCODING 742
SWIDTH 500 0
DWIDTH 8 0
BBX 4 12 1 -1
BITMAP
10
10
10
F0
10
10
10
10
10
10
10
10
ENDCHAR
STARTCHAR 02E7
ENCODING 743
SWIDTH 500 0
DWIDTH 8 0
BBX 4 11 1 0
BITMAP
10
10
10
10
10
F0
10
10
10
10
10
ENDCHAR
STARTCHAR 02E8
ENCODING 744
SWIDTH 500 0
DWIDTH 8 0
BBX 4 12 1 1
BITMAP
10
10
10
10
10
10
10
10
F0
10
10
10
ENDCHAR
STARTCHAR 02E9
ENCODING 745
SWIDTH 500 0
DWIDTH 8 0
BBX 4 12 1 0
BITMAP
10
10
10
10
10
10
10
10
10
10
10
F0
ENDCHAR
STARTCHAR 0300
ENCODING 768
SWIDTH 500 0
DWIDTH 8 0
BBX 3 3 2 9
BITMAP
C0
40
20
ENDCHAR
STARTCHAR 0301
ENCODING 769
SWIDTH 500 0
DWIDTH 8 0
BBX 3 3 3 9
BITMAP
60
40
80
ENDCHAR
STARTCHAR 0302
ENCODING 770
SWIDTH 500 0
DWIDTH 8 0
BBX 4 3 2 9
BITMAP
60
60
90
ENDCHAR
STARTCHAR 0303
ENCODING 771
SWIDTH 500 0
DWIDTH 8 0
BBX 5 2 1 10
BITMAP
60
98
ENDCHAR
STARTCHAR 0304
ENCODING 772
SWIDTH 500 0
DWIDTH 8 0
BBX 4 1 2 10
BITMAP
F0
ENDCHAR
STARTCHAR 0305
ENCODING 773
SWIDTH 500 0
DWIDTH 8 0
BBX 4 1 2 10
BITMAP
F0
ENDCHAR
STARTCHAR 0306
ENCODING 774
SWIDTH 500 0
DWIDTH 8 0
BBX 4 1 2 11
BITMAP
F0
ENDCHAR
STARTCHAR 0308
ENCODING 776
SWIDTH 500 0
DWIDTH 8 0
BBX 4 1 2 10
BITMAP
90
ENDCHAR
STARTCHAR 030B
ENCODING 779
SWIDTH 500 0
DWIDTH 8 0
BBX 5 3 2 9
BITMAP
48
50
A0
ENDCHAR
STARTCHAR 030C
ENCODING 780
SWIDTH 500 0
DWIDTH 8 0
BBX 4 3 2 9
BITMAP
90
60
60
ENDCHAR
STARTCHAR 030F
ENCODING 783
SWIDTH 500 0
DWIDTH 8 0
BBX 5 3 1 9
BITMAP
90
50
28
ENDCHAR
STARTCHAR 0318
ENCODING 792
SWIDTH 500 0
DWIDTH 8 0
BBX 3 5 2 -5
BITMAP
20
20
E0
20
20
ENDCHAR
STARTCHAR 0319
ENCODING 793
SWIDTH 500 0
DWIDTH 8 0
BBX 3 5 3 -5
BITMAP
80
80
E0
80
80
ENDCHAR
STARTCHAR 031A
ENCODING 794
SWIDTH 500 0
DWIDTH 8 0
BBX 4 4 0 6
BITMAP
F0
10
10
10
ENDCHAR
STARTCHAR 031C
ENCODING 796
SWIDTH 500 0
DWIDTH 8 0
BBX 2 3 3 -4
BITMAP
80
80
C0
ENDCHAR
STARTCHAR 031D
ENCODING 797
SWIDTH 500 0
DWIDTH 8 0
BBX 5 3 2 -3
BITMAP
20
20
F8
ENDCHAR
STARTCHAR 031E
ENCODING 798
SWIDTH 500 0
DWIDTH 8 0
BBX 5 3 2 -4
BITMAP
F8
20
20
ENDCHAR
STARTCHAR 031F
ENCODING 799
SWIDTH 500 0
DWIDTH 8 0
BBX 5 5 2 -5
BITMAP
20
20
F8
20
20
ENDCHAR
STARTCHAR 0320
ENCODING 800
SWIDTH 500 0
DWIDTH 8 0
BBX 4 1 2 -2
BITMAP
F0
ENDCHAR
STARTCHAR 0324
ENCODING 804
SWIDTH 500 0
DWIDTH 8 0
BBX 4 1 2 -2
BITMAP
90
ENDCHAR
STARTCHAR 0325
ENCODING 805
SWIDTH 500 0
DWIDTH 8 0
BBX 2 2 3 -3
BITMAP
C0
C0
ENDCHAR
STARTCHAR 0327
ENCODING 807
SWIDTH 500 0
DWIDTH 8 0
BBX 4 4 2 -3
BITMAP
40
30
10
E0
ENDCHAR
STARTCHAR 0329
ENCODING 809
SWIDTH 500 0
DWIDTH 8 0
BBX 1 4 4 -5
BITMAP
80
80
80
80
ENDCHAR
STARTCHAR 032A
ENCODING 810
SWIDTH 500 0
DWIDTH 8 0
BBX 4 3 2 -4
BITMAP
F0
90
90
ENDCHAR
STARTCHAR 032C
ENCODING 812
SWIDTH 500 0
DWIDTH 8 0
BBX 4 2 2 -2
BITMAP
F0
60
ENDCHAR
STARTCHAR 032F
ENCODING 815
SWIDTH 500 0
DWIDTH 8 0
BBX 4 2 2 -3
BITMAP
F0
90
ENDCHAR
STARTCHAR 0330
ENCODING 816
SWIDTH 500 0
DWIDTH 8 0
BBX 5 1 2 -2
BITMAP
F8
ENDCHAR
STARTCHAR 0332
ENCODING 818
SWIDTH 500 0
DWIDTH 8 0
BBX 8 1 0 -2
BITMAP
FF
ENDCHAR
STARTCHAR 0334
ENCODING 820
SWIDTH 500 0
DWIDTH 8 0
BBX 5 2 1 4
BITMAP
60
98
ENDCHAR
STARTCHAR 0336
ENCODING 822
SWIDTH 937 0
DWIDTH 15 0
BBX 13 1 1 6
BITMAP
FFF8
ENDCHAR
STARTCHAR 0339
ENCODING 825
SWIDTH 500 0
DWIDTH 8 0
BBX 2 3 3 -4
BITMAP
40
40
C0
ENDCHAR
STARTCHAR 033A
ENCODING 826
SWIDTH 500 0
DWIDTH 8 0
BBX 4 3 2 -4
BITMAP
90
90
F0
ENDCHAR
STARTCHAR 033B
ENCODING 827
SWIDTH 500 0
DWIDTH 8 0
BBX 4 3 2 -4
BITMAP
F0
90
F0
ENDCHAR
STARTCHAR 033C
ENCODING 828
SWIDTH 500 0
DWIDTH 8 0
BBX 4 1 2 -3
BITMAP
F0
ENDCHAR
STARTCHAR 033D
ENCODING 829
SWIDTH 500 0
DWIDTH 8 0
BBX 4 4 2 9
BITMAP
90
60
60
10
ENDCHAR
STARTCHAR 0361
ENCODING 865
SWIDTH 0 0
DWIDTH 0 0
BBX 8 2 -4 12
BITMAP
3C
C3
ENDCHAR
STARTCHAR 0391
ENCODING 913
SWIDTH 1000 0
DWIDTH 16 0
BBX 10 11 3 1
BITMAP
0C00
1E00
1200
1200
3300
2100
7F80
4080
4080
C0C0
8040
ENDCHAR
STARTCHAR 0392
ENCODING 914
SWIDTH 1000 0
DWIDTH 16 0
BBX 9 11 4 1
BITMAP
FE00
8300
8100
8100
8200
FC00
8300
8080
8080
8180
FE00
ENDCHAR
STARTCHAR 0393
ENCODING 915
SWIDTH 1000 0
DWIDTH 16 0
BBX 9 11 4 1
BITMAP
FF80
C000
C000
C000
C000
C000
C000
C000
C000
C000
C000
ENDCHAR
STARTCHAR 0394
ENCODING 916
SWIDTH 1000 0
DWIDTH 16 0
BBX 10 11 3 1
BITMAP
0C00
1E00
1E00
1200
3300
2100
6180
4080
C0C0
C0C0
FFC0
ENDCHAR
STARTCHAR 0395
ENCODING 917
SWIDTH 1000 0
DWIDTH 16 0
BBX 8 11 4 1
BITMAP
FF
80
80
80
80
FE
80
80
80
80
FF
ENDCHAR
STARTCHAR 0396
ENCODING 918
SWIDTH 1000 0
DWIDTH 16 0
BBX 10 11 3 1
BITMAP
7F80
0180
0300
0600
0400
0C00
1800
3000
2000
4000
FFC0
ENDCHAR
STARTCHAR 0397
ENCODING 919
SWIDTH 1000 0
DWIDTH 16 0
BBX 10 11 3 0
BITMAP
8040
8040
8040
8040
8040
FFC0
8040
8040
8040
8040
8040
ENDCHAR
STARTCHAR 0398
ENCODING 920
SWIDTH 1000 0
DWIDTH 16 0
BBX 10 12 3 0
BITMAP
1E00
3300
6180
C0C0
C0C0
FFC0
C0C0
C0C0
C0C0
6180
3300
1E00
ENDCHAR
STARTCHAR 0399
ENCODING 921
SWIDTH 1000 0
DWIDTH 16 0
BBX 2 11 7 1
BITMAP
C0
C0
C0
C0
C0
C0
C0
C0
C0
C0
C0
ENDCHAR
STARTCHAR 039A
ENCODING 922
SWIDTH 1000 0
DWIDTH 16 0
BBX 9 11 4 1
BITMAP
8300
8600
8C00
9800
B000
F800
CC00
8600
8200
8300
8180
ENDCHAR
STARTCHAR 039B
ENCODING 923
SWIDTH 1000 0
DWIDTH 16 0
BBX 10 11 3 1
BITMAP
0C00
0C00
1E00
1200
3300
2100
2100
6180
4080
C0C0
C0C0
ENDCHAR
STARTCHAR 039C
ENCODING 924
SWIDTH 1000 0
DWIDTH 16 0
BBX 12 11 2 1
BITMAP
C030
E070
E050
A050
B0D0
9090
9990
8910
8F10
8F10
8610
ENDCHAR
STARTCHAR 039D
ENCODING 925
SWIDTH 1000 0
DWIDTH 16 0
BBX 10 11 3 1
BITMAP
C040
E040
B040
9840
8840
8C40
8640
8340
81C0
80C0
80C0
ENDCHAR
STARTCHAR 039E
ENCODING 926
SWIDTH 1000 0
DWIDTH 16 0
BBX 10 11 3 1
BITMAP
7F80
0000
0000
0000
0000
7F80
0000
0000
0000
0000
FFC0
ENDCHAR
STARTCHAR 039F
ENCODING 927
SWIDTH 1000 0
DWIDTH 16 0
BBX 10 12 3 0
BITMAP
1E00
3300
6180
C0C0
C0C0
C0C0
C0C0
C0C0
C0C0
6180
3300
1E00
ENDCHAR
STARTCHAR 03A0
ENCODING 928
SWIDTH 1000 0
DWIDTH 16 0
BBX 8 11 4 0
BITMAP
FF
81
81
81
81
81
81
81
81
81
81
ENDCHAR
STARTCHAR 03A1
ENCODING 929
SWIDTH 1000 0
DWIDTH 16 0
BBX 8 11 4 0
BITMAP
FC
83
81
81
83
FC
80
80
80
80
80
ENDCHAR
STARTCHAR 03A3
ENCODING 931
SWIDTH 1000 0
DWIDTH 16 0
BBX 10 11 3 1
BITMAP
FFC0
6000
3000
1800
0C00
0400
0800
1000
2000
4000
FFC0
ENDCHAR
STARTCHAR 03A4
ENCODING 932
SWIDTH 1000 0
DWIDTH 16 0
BBX 10 11 3 1
BITMAP
FFC0
0C00
0C00
0C00
0C00
0C00
0C00
0C00
0C00
0C00
0C00
ENDCHAR
STARTCHAR 03A5
ENCODING 933
SWIDTH 1000 0
DWIDTH 16 0
BBX 9 11 3 0
BITMAP
C180
C180
6300
2200
1400
1C00
0800
0800
0800
0800
0800
ENDCHAR
STARTCHAR 03A6
ENCODING 934
SWIDTH 1000 0
DWIDTH 16 0
BBX 11 11 2 1
BITMAP
0400
0400
3F80
4440
8420
8420
8420
4440
3F80
0E00
0400
ENDCHAR
STARTCHAR 03A7
ENCODING 935
SWIDTH 1000 0
DWIDTH 16 0
BBX 10 11 3 1
BITMAP
4080
6180
3300
1E00
0C00
0C00
1E00
3300
2100
6180
C0C0
ENDCHAR
STARTCHAR 03A8
ENCODING 936
SWIDTH 1000 0
DWIDTH 16 0
BBX 10 11 3 1
BITMAP
8840
8840
8840
8840
8840
8840
4880
7F00
0800
0800
0800
ENDCHAR
STARTCHAR 03A9
ENCODING 937
SWIDTH 1000 0
DWIDTH 16 0
BBX 12 11 2 1
BITMAP
0F00
30C0
2040
4020
4020
4020
4020
2040
30C0
0900
F9F0
ENDCHAR
STARTCHAR 03B1
ENCODING 945
SWIDTH 1000 0
DWIDTH 16 0
BBX 10 8 3 0
BITMAP
1C80
2280
4300
C300
8200
8640
8A80
7180
ENDCHAR
STARTCHAR 03B2
ENCODING 946
SWIDTH 1000 0
DWIDTH 16 0
BBX 9 14 3 -2
BITMAP
0700
1880
1080
3080
2180
2E00
6200
4100
4100
4100
6300
DE00
C000
8000
ENDCHAR
STARTCHAR 03B3
ENCODING 947
SWIDTH 1000 0
DWIDTH 16 0
BBX 9 9 3 0
BITMAP
7880
C980
0B00
0A00
0C00
0800
0800
1800
1800
ENDCHAR
STARTCHAR 03B4
ENCODING 948
SWIDTH 1000 0
DWIDTH 16 0
BBX 8 12 4 0
BITMAP
1C
27
21
10
1C
64
42
82
82
86
CC
78
ENDCHAR
STARTCHAR 03B5
ENCODING 949
SWIDTH 1000 0
DWIDTH 16 0
BBX 7 8 4 0
BITMAP
3E
42
40
3C
C0
82
86
78
ENDCHAR
STARTCHAR 03B6
ENCODING 950
SWIDTH 1000 0
DWIDTH 16 0
BBX 8 13 5 0
BITMAP
63
4E
78
20
60
40
80
80
80
F8
04
04
F8
ENDCHAR
STARTCHAR 03B7
ENCODING 951
SWIDTH 1000 0
DWIDTH 16 0
BBX 9 9 3 -1
BITMAP
7780
DC80
1880
1080
3100
2100
2100
0300
0200
ENDCHAR
STARTCHAR 03B8
ENCODING 952
SWIDTH 1000 0
DWIDTH 16 0
BBX 8 12 4 0
BITMAP
1E
32
61
41
C1
FF
83
83
82
86
4C
78
ENDCHAR
STARTCHAR 03B9
ENCODING 953
SWIDTH 1000 0
DWIDTH 16 0
BBX 6 8 5 0
BITMAP
30
20
40
40
80
8C
98
70
ENDCHAR
STARTCHAR 03BA
ENCODING 954
SWIDTH 1000 0
DWIDTH 16 0
BBX 8 8 4 1
BITMAP
23
2C
70
70
48
C9
CB
0E
ENDCHAR
STARTCHAR 03BB
ENCODING 955
SWIDTH 1000 0
DWIDTH 16 0
BBX 9 11 3 1
BITMAP
1C00
2600
0200
0200
0600
0E00
1A00
1200
3300
6100
C180
ENDCHAR
STARTCHAR 03BC
ENCODING 956
SWIDTH 1000 0
DWIDTH 16 0
BBX 11 10 3 -1
BITMAP
3180
2100
2100
2100
6300
6320
6540
5980
C000
8000
ENDCHAR
STARTCHAR 03BD
ENCODING 957
SWIDTH 1000 0
DWIDTH 16 0
BBX 7 8 5 1
BITMAP
82
C6
46
44
4C
58
F0
C0
ENDCHAR
STARTCHAR 03BE
ENCODING 958
SWIDTH 1000 0
DWIDTH 16 0
BBX 7 13 4 0
BITMAP
1E
20
40
40
3E
3E
C0
80
80
78
06
02
7C
ENDCHAR
STARTCHAR 03BF
ENCODING 959
SWIDTH 1000 0
DWIDTH 16 0
BBX 8 8 4 0
BITMAP
3E
63
41
81
81
82
C6
78
ENDCHAR
STARTCHAR 03C0
ENCODING 960
SWIDTH 1000 0
DWIDTH 16 0
BBX 9 8 4 1
BITMAP
FF80
A400
2400
6400
4800
C880
C900
0E00
ENDCHAR
STARTCHAR 03C1
ENCODING 961
SWIDTH 1000 0
DWIDTH 16 0
BBX 8 10 4 -2
BITMAP
1E
23
41
41
C1
C3
A2
BC
80
80
ENDCHAR
STARTCHAR 03C2
ENCODING 962
SWIDTH 562 0
DWIDTH 9 0
BBX 8 11 1 -3
BITMAP
3C
46
83
80
C0
60
38
0C
04
84
78
ENDCHAR
STARTCHAR 03C3
ENCODING 963
SWIDTH 1000 0
DWIDTH 16 0
BBX 9 9 4 0
BITMAP
1F80
2200
4100
8100
8100
8100
8200
4600
3800
ENDCHAR
STARTCHAR 03C4
ENCODING 964
SWIDTH 1000 0
DWIDTH 16 0
BBX 8 8 4 1
BITMAP
FF
18
10
10
20
22
26
1C
ENDCHAR
STARTCHAR 03C5
ENCODING 965
SWIDTH 1000 0
DWIDTH 16 0
BBX 9 8 3 1
BITMAP
7100
D080
1080
2080
4080
4100
4200
3C00
ENDCHAR
STARTCHAR 03C6
ENCODING 966
SWIDTH 1000 0
DWIDTH 16 0
BBX 10 12 3 -1
BITMAP
0200
0600
0E00
3580
4440
8C40
8840
8840
4980
3F00
1000
1000
ENDCHAR
STARTCHAR 03C7
ENCODING 967
SWIDTH 1000 0
DWIDTH 16 0
BBX 8 9 4 -1
BITMAP
63
96
14
18
18
38
68
49
8E
ENDCHAR
STARTCHAR 03C8
ENCODING 968
SWIDTH 1000 0
DWIDTH 16 0
BBX 10 13 3 -1
BITMAP
0200
0200
0600
3480
64C0
C440
8C40
8840
C880
7F00
1C00
1000
1000
ENDCHAR
STARTCHAR 03C9
ENCODING 969
SWIDTH 1000 0
DWIDTH 16 0
BBX 10 9 3 0
BITMAP
0080
3080
6440
4C40
8C40
8840
8840
9480
6700
ENDCHAR
STARTCHAR 0401
ENCODING 1025
SWIDTH 1000 0
DWIDTH 16 0
BBX 8 13 4 1
BITMAP
64
00
FF
80
80
80
80
FE
80
80
80
80
FF
ENDCHAR
STARTCHAR 0410
ENCODING 1040
SWIDTH 1000 0
DWIDTH 16 0
BBX 10 11 3 1
BITMAP
0C00
1E00
1200
1200
3300
2100
7F80
4080
4080
C0C0
8040
ENDCHAR
STARTCHAR 0411
ENCODING 1041
SWIDTH 1000 0
DWIDTH 16 0
BBX 9 11 4 1
BITMAP
FF00
8000
8000
8000
8000
FE00
8180
8080
8080
8180
FE00
ENDCHAR
STARTCHAR 0412
ENCODING 1042
SWIDTH 1000 0
DWIDTH 16 0
BBX 9 11 4 1
BITMAP
FE00
8300
8100
8100
8200
FC00
8300
8080
8080
8180
FE00
ENDCHAR
STARTCHAR 0413
ENCODING 1043
SWIDTH 1000 0
DWIDTH 16 0
BBX 9 11 4 1
BITMAP
FF80
C000
C000
C000
C000
C000
C000
C000
C000
C000
C000
ENDCHAR
STARTCHAR 0414
ENCODING 1044
SWIDTH 1000 0
DWIDTH 16 0
BBX 10 13 3 -1
BITMAP
1F80
1080
1080
1080
3080
3080
3080
2080
6080
6080
FFC0
8040
8040
ENDCHAR
STARTCHAR 0415
ENCODING 1045
SWIDTH 1000 0
DWIDTH 16 0
BBX 8 11 4 1
BITMAP
FF
80
80
80
80
FE
80
80
80
80
FF
ENDCHAR
STARTCHAR 0416
ENCODING 1046
SWIDTH 1000 0
DWIDTH 16 0
BBX 13 11 1 2
BITMAP
4210
6230
2220
3260
1FC0
1A80
1240
3260
2220
6230
C218
ENDCHAR
STARTCHAR 0417
ENCODING 1047
SWIDTH 1000 0
DWIDTH 16 0
BBX 9 12 3 0
BITMAP
1E00
6100
4080
0080
0180
0E00
0300
0080
0080
C080
6100
3E00
ENDCHAR
STARTCHAR 0418
ENCODING 1048
SWIDTH 1000 0
DWIDTH 16 0
BBX 10 11 3 1
BITMAP
8040
8040
80C0
83C0
8640
8C40
9840
F040
C040
8040
8040
ENDCHAR
STARTCHAR 0419
ENCODING 1049
SWIDTH 1000 0
DWIDTH 16 0
BBX 10 13 3 0
BITMAP
2100
1E00
8040
8040
80C0
83C0
8640
8C40
9840
F040
C040
8040
8040
ENDCHAR
STARTCHAR 041A
ENCODING 1050
SWIDTH 1000 0
DWIDTH 16 0
BBX 9 11 4 2
BITMAP
8100
8300
8200
8600
BC00
F800
8C00
8600
8300
8100
8180
ENDCHAR
STARTCHAR 041B
ENCODING 1051
SWIDTH 1000 0
DWIDTH 16 0
BBX 10 12 2 0
BITMAP
0FC0
0840
0840
0840
0840
0840
0840
0840
8840
9840
9040
6000
ENDCHAR
STARTCHAR 041C
ENCODING 1052
SWIDTH 1000 0
DWIDTH 16 0
BBX 12 11 2 1
BITMAP
C030
E070
E050
A050
B0D0
9090
9990
8910
8F10
8F10
8610
ENDCHAR
STARTCHAR 041D
ENCODING 1053
SWIDTH 1000 0
DWIDTH 16 0
BBX 10 11 3 0
BITMAP
8040
8040
8040
8040
8040
FFC0
8040
8040
8040
8040
8040
ENDCHAR
STARTCHAR 041E
ENCODING 1054
SWIDTH 1000 0
DWIDTH 16 0
BBX 10 12 3 0
BITMAP
1E00
3300
6180
C0C0
C0C0
C0C0
C0C0
C0C0
C0C0
6180
3300
1E00
ENDCHAR
STARTCHAR 041F
ENCODING 1055
SWIDTH 1000 0
DWIDTH 16 0
BBX 8 11 4 0
BITMAP
FF
81
81
81
81
81
81
81
81
81
81
ENDCHAR
STARTCHAR 0420
ENCODING 1056
SWIDTH 1000 0
DWIDTH 16 0
BBX 8 11 4 0
BITMAP
FC
83
81
81
83
FC
80
80
80
80
80
ENDCHAR
STARTCHAR 0421
ENCODING 1057
SWIDTH 1000 0
DWIDTH 16 0
BBX 10 12 3 0
BITMAP
1F00
2180
40C0
8000
8000
8000
8000
80C0
80C0
4080
2180
1E00
ENDCHAR
STARTCHAR 0422
ENCODING 1058
SWIDTH 1000 0
DWIDTH 16 0
BBX 10 11 3 1
BITMAP
FFC0
0C00
0C00
0C00
0C00
0C00
0C00
0C00
0C00
0C00
0C00
ENDCHAR
STARTCHAR 0423
ENCODING 1059
SWIDTH 1000 0
DWIDTH 16 0
BBX 9 11 4 0
BITMAP
8180
C100
4100
6300
2200
3600
1400
0C00
0800
1800
F000
ENDCHAR
STARTCHAR 0424
ENCODING 1060
SWIDTH 1000 0
DWIDTH 16 0
BBX 11 11 2 1
BITMAP
0400
0400
3F80
4440
8420
8420
8420
4440
3F80
0E00
0400
ENDCHAR
STARTCHAR 0425
ENCODING 1061
SWIDTH 1000 0
DWIDTH 16 0
BBX 10 11 3 1
BITMAP
4080
6180
3300
1E00
0C00
0C00
1E00
3300
2100
6180
C0C0
ENDCHAR
STARTCHAR 0426
ENCODING 1062
SWIDTH 1000 0
DWIDTH 16 0
BBX 11 13 3 -1
BITMAP
8080
8080
8080
8080
8080
8080
8080
8080
8080
8080
FFE0
0020
0020
ENDCHAR
STARTCHAR 0427
ENCODING 1063
SWIDTH 1000 0
DWIDTH 16 0
BBX 8 11 4 1
BITMAP
81
81
81
81
81
81
C7
79
01
01
01
ENDCHAR
STARTCHAR 0428
ENCODING 1064
SWIDTH 1000 0
DWIDTH 16 0
BBX 12 11 2 1
BITMAP
8410
8410
8410
8410
8410
8410
8410
8410
8410
8410
FFF0
ENDCHAR
STARTCHAR 0429
ENCODING 1065
SWIDTH 1000 0
DWIDTH 16 0
BBX 13 13 2 -1
BITMAP
8420
8420
8420
8420
8420
8420
8420
8420
8420
8420
FFF8
0008
0008
ENDCHAR
STARTCHAR 042A
ENCODING 1066
SWIDTH 1000 0
DWIDTH 16 0
BBX 11 11 2 1
BITMAP
F000
1000
1000
1000
1000
1F80
1060
1020
1020
1060
1F80
ENDCHAR
STARTCHAR 042B
ENCODING 1067
SWIDTH 1000 0
DWIDTH 16 0
BBX 10 11 3 1
BITMAP
8040
8040
8040
8040
8040
FC40
8340
8140
8140
8240
FC40
ENDCHAR
STARTCHAR 042C
ENCODING 1068
SWIDTH 1000 0
DWIDTH 16 0
BBX 9 11 4 1
BITMAP
8000
8000
8000
8000
8000
FE00
8180
8080
8080
8180
FE00
ENDCHAR
STARTCHAR 042D
ENCODING 1069
SWIDTH 1000 0
DWIDTH 16 0
BBX 10 12 3 0
BITMAP
3E00
6100
C080
0040
3040
4940
0640
0040
C040
4080
6100
1E00
ENDCHAR
STARTCHAR 042E
ENCODING 1070
SWIDTH 1000 0
DWIDTH 16 0
BBX 12 12 2 0
BITMAP
8780
8C60
9820
9010
9010
F010
9010
9010
9030
8860
8CE0
0780
ENDCHAR
STARTCHAR 042F
ENCODING 1071
SWIDTH 1000 0
DWIDTH 16 0
BBX 8 11 4 1
BITMAP
7F
C1
81
81
C1
7F
11
31
61
41
C1
ENDCHAR
STARTCHAR 0430
ENCODING 1072
SWIDTH 1000 0
DWIDTH 16 0
BBX 8 8 4 0
BITMAP
7C
46
02
7E
C2
86
8E
73
ENDCHAR
STARTCHAR 0431
ENCODING 1073
SWIDTH 1000 0
DWIDTH 16 0
BBX 8 12 4 0
BITMAP
06
1C
30
40
DC
E2
81
81
81
81
42
3C
ENDCHAR
STARTCHAR 0432
ENCODING 1074
SWIDTH 1000 0
DWIDTH 16 0
BBX 6 7 5 1
BITMAP
F8
84
84
F8
84
84
F8
ENDCHAR
STARTCHAR 0433
ENCODING 1075
SWIDTH 1000 0
DWIDTH 16 0
BBX 6 7 5 0
BITMAP
FC
80
80
80
80
80
80
ENDCHAR
STARTCHAR 0434
ENCODING 1076
SWIDTH 1000 0
DWIDTH 16 0
BBX 9 9 3 -1
BITMAP
1F00
1100
1100
3100
2100
6100
FF80
8080
8080
ENDCHAR
STARTCHAR 0435
ENCODING 1077
SWIDTH 1000 0
DWIDTH 16 0
BBX 8 8 4 0
BITMAP
3C
42
FF
80
C3
C3
66
3C
ENDCHAR
STARTCHAR 0436
ENCODING 1078
SWIDTH 1000 0
DWIDTH 16 0
BBX 9 8 3 1
BITMAP
8880
C980
4900
7F00
7E00
4900
C980
8880
ENDCHAR
STARTCHAR 0437
ENCODING 1079
SWIDTH 1000 0
DWIDTH 16 0
BBX 7 8 4 0
BITMAP
7C
02
1C
04
02
C2
62
3C
ENDCHAR
STARTCHAR 0438
ENCODING 1080
SWIDTH 1000 0
DWIDTH 16 0
BBX 8 7 4 1
BITMAP
81
87
8D
B9
F1
C1
81
ENDCHAR
STARTCHAR 0439
ENCODING 1081
SWIDTH 1000 0
DWIDTH 16 0
BBX 8 10 4 1
BITMAP
42
3C
00
81
87
8D
B9
F1
C1
81
ENDCHAR
STARTCHAR 043A
ENCODING 1082
SWIDTH 1000 0
DWIDTH 16 0
BBX 7 8 5 1
BITMAP
84
84
8C
B8
F0
88
8C
86
ENDCHAR
STARTCHAR 043B
ENCODING 1083
SWIDTH 1000 0
DWIDTH 16 0
BBX 8 8 3 0
BITMAP
1F
19
19
11
11
91
91
60
ENDCHAR
STARTCHAR 043C
ENCODING 1084
SWIDTH 1000 0
DWIDTH 16 0
BBX 8 7 4 0
BITMAP
C3
C7
A5
A5
BD
99
99
ENDCHAR
STARTCHAR 043D
ENCODING 1085
SWIDTH 1000 0
DWIDTH 16 0
BBX 7 7 5 0
BITMAP
82
82
82
FE
82
82
82
ENDCHAR
STARTCHAR 043E
ENCODING 1086
SWIDTH 1000 0
DWIDTH 16 0
BBX 8 8 4 0
BITMAP
3C
42
81
81
81
81
42
3C
ENDCHAR
STARTCHAR 043F
ENCODING 1087
SWIDTH 1000 0
DWIDTH 16 0
BBX 6 7 5 0
BITMAP
FC
84
84
84
84
84
84
ENDCHAR
STARTCHAR 0440
ENCODING 1088
SWIDTH 1000 0
DWIDTH 16 0
BBX 7 10 5 -2
BITMAP
B8
C4
82
82
82
82
C4
B8
80
80
ENDCHAR
STARTCHAR 0441
ENCODING 1089
SWIDTH 1000 0
DWIDTH 16 0
BBX 8 8 4 0
BITMAP
3C
42
80
80
80
83
46
3C
ENDCHAR
STARTCHAR 0442
ENCODING 1090
SWIDTH 1000 0
DWIDTH 16 0
BBX 7 7 4 0
BITMAP
FE
10
10
10
10
10
10
ENDCHAR
STARTCHAR 0443
ENCODING 1091
SWIDTH 1000 0
DWIDTH 16 0
BBX 8 10 4 -2
BITMAP
C1
43
62
26
34
1C
18
18
F0
E0
ENDCHAR
STARTCHAR 0444
ENCODING 1092
SWIDTH 1000 0
DWIDTH 16 0
BBX 9 14 3 -2
BITMAP
0800
0800
0800
0800
7F00
C980
8880
8880
8880
8880
DD80
6B00
0800
0800
ENDCHAR
STARTCHAR 0445
ENCODING 1093
SWIDTH 1000 0
DWIDTH 16 0
BBX 8 7 4 1
BITMAP
C3
66
3C
18
3C
66
C3
ENDCHAR
STARTCHAR 0446
ENCODING 1094
SWIDTH 1000 0
DWIDTH 16 0
BBX 9 9 4 0
BITMAP
8200
8200
8200
8200
8200
8200
FF80
0080
0080
ENDCHAR
STARTCHAR 0447
ENCODING 1095
SWIDTH 1000 0
DWIDTH 16 0
BBX 7 7 4 1
BITMAP
82
82
82
C6
7A
02
02
ENDCHAR
STARTCHAR 0448
ENCODING 1096
SWIDTH 1000 0
DWIDTH 16 0
BBX 10 7 3 2
BITMAP
8840
8840
8840
8840
8840
8840
FFC0
ENDCHAR
STARTCHAR 0449
ENCODING 1097
SWIDTH 1000 0
DWIDTH 16 0
BBX 11 9 3 0
BITMAP
8840
8840
8840
8840
8840
8840
FFE0
0020
0020
ENDCHAR
STARTCHAR 044A
ENCODING 1098
SWIDTH 1000 0
DWIDTH 16 0
BBX 9 7 3 1
BITMAP
E000
2000
3F00
2080
2080
2080
3F00
ENDCHAR
STARTCHAR 044B
ENCODING 1099
SWIDTH 1000 0
DWIDTH 16 0
BBX 10 7 3 2
BITMAP
8040
8040
FC40
8340
8140
8340
FC40
ENDCHAR
STARTCHAR 044C
ENCODING 1100
SWIDTH 1000 0
DWIDTH 16 0
BBX 7 7 5 2
BITMAP
80
80
FC
82
82
82
FC
ENDCHAR
STARTCHAR 044D
ENCODING 1101
SWIDTH 1000 0
DWIDTH 16 0
BBX 8 8 4 0
BITMAP
3C
42
01
3D
01
C1
62
3C
ENDCHAR
STARTCHAR 044E
ENCODING 1102
SWIDTH 1000 0
DWIDTH 16 0
BBX 10 8 3 0
BITMAP
8F00
9880
9040
F040
9040
9040
9880
0F00
ENDCHAR
STARTCHAR 044F
ENCODING 1103
SWIDTH 1000 0
DWIDTH 16 0
BBX 7 7 4 1
BITMAP
3E
42
42
3E
32
62
C2
ENDCHAR
STARTCHAR 0451
ENCODING 1105
SWIDTH 1000 0
DWIDTH 16 0
BBX 8 10 4 1
BITMAP
66
00
3C
42
FF
80
C3
C3
66
3C
ENDCHAR
STARTCHAR 1E3E
ENCODING 7742
SWIDTH 875 0
DWIDTH 14 0
BBX 11 13 2 0
BITMAP
0600
0000
C060
C060
E0E0
A0A0
B1A0
9120
9120
9A20
8A20
8E20
8420
ENDCHAR
STARTCHAR 1E3F
ENCODING 7743
SWIDTH 875 0
DWIDTH 14 0
BBX 12 11 1 1
BITMAP
0300
0400
0000
B9E0
C630
8410
8410
8410
8410
8410
8410
ENDCHAR
STARTCHAR 1F70
ENCODING 8048
SWIDTH 625 0
DWIDTH 10 0
BBX 7 11 2 1
BITMAP
30
10
00
3A
46
82
82
82
82
46
3A
ENDCHAR
STARTCHAR 1F71
ENCODING 8049
SWIDTH 625 0
DWIDTH 10 0
BBX 7 11 2 1
BITMAP
08
10
00
3A
46
82
82
82
82
46
3A
ENDCHAR
STARTCHAR 1F72
ENCODING 8050
SWIDTH 500 0
DWIDTH 8 0
BBX 7 11 1 1
BITMAP
20
10
00
7C
80
80
78
C0
80
80
7E
ENDCHAR
STARTCHAR 1F73
ENCODING 8051
SWIDTH 500 0
DWIDTH 8 0
BBX 7 11 1 1
BITMAP
18
10
00
7C
80
80
78
C0
80
80
7E
ENDCHAR
STARTCHAR 2002
ENCODING 8194
SWIDTH 500 0
DWIDTH 8 0
BBX 0 0 0 0
BITMAP
ENDCHAR
STARTCHAR 2003
ENCODING 8195
SWIDTH 1000 0
DWIDTH 16 0
BBX 0 0 0 0
BITMAP
ENDCHAR
STARTCHAR 2010
ENCODING 8208
SWIDTH 375 0
DWIDTH 6 0
BBX 4 1 1 5
BITMAP
F0
ENDCHAR
STARTCHAR 2011
ENCODING 8209
SWIDTH 375 0
DWIDTH 6 0
BBX 4 1 1 5
BITMAP
F0
ENDCHAR
STARTCHAR 2012
ENCODING 8210
SWIDTH 375 0
DWIDTH 6 0
BBX 4 1 1 5
BITMAP
F0
ENDCHAR
STARTCHAR 2013
ENCODING 8211
SWIDTH 562 0
DWIDTH 9 0
BBX 7 1 1 4
BITMAP
FE
ENDCHAR
STARTCHAR 2014
ENCODING 8212
SWIDTH 937 0
DWIDTH 15 0
BBX 13 1 1 6
BITMAP
FFF8
ENDCHAR
STARTCHAR 2015
ENCODING 8213
SWIDTH 1000 0
DWIDTH 16 0
BBX 14 1 1 6
BITMAP
FFFC
ENDCHAR
STARTCHAR 2016
ENCODING 8214
SWIDTH 1000 0
DWIDTH 16 0
BBX 4 16 6 -1
BITMAP
90
90
90
90
90
90
90
90
90
90
90
90
90
90
90
90
ENDCHAR
STARTCHAR 2018
ENCODING 8216
SWIDTH 1000 0
DWIDTH 16 0
BBX 2 4 13 10
BITMAP
40
80
C0
C0
ENDCHAR
STARTCHAR 2019
ENCODING 8217
SWIDTH 1000 0
DWIDTH 16 0
BBX 2 4 1 8
BITMAP
C0
C0
40
80
ENDCHAR
STARTCHAR 201C
ENCODING 8220
SWIDTH 1000 0
DWIDTH 16 0
BBX 5 4 10 10
BITMAP
48
90
D8
D8
ENDCHAR
STARTCHAR 201D
ENCODING 8221
SWIDTH 1000 0
DWIDTH 16 0
BBX 5 4 1 8
BITMAP
D8
D8
48
90
ENDCHAR
STARTCHAR 2020
ENCODING 8224
SWIDTH 1000 0
DWIDTH 16 0
BBX 7 14 5 -2
BITMAP
38
38
10
FE
D6
38
10
10
10
10
10
10
10
10
ENDCHAR
STARTCHAR 2021
ENCODING 8225
SWIDTH 1000 0
DWIDTH 16 0
BBX 6 15 5 -1
BITMAP
30
30
30
FC
20
30
20
20
20
30
30
EC
FC
30
30
ENDCHAR
STARTCHAR 2022
ENCODING 8226
SWIDTH 375 0
DWIDTH 6 0
BBX 4 4 1 4
BITMAP
60
F0
F0
60
ENDCHAR
STARTCHAR 2025
ENCODING 8229
SWIDTH 1000 0
DWIDTH 16 0
BBX 10 2 3 5
BITMAP
C0C0
C0C0
ENDCHAR
STARTCHAR 2026
ENCODING 8230
SWIDTH 1000 0
DWIDTH 16 0
BBX 12 2 2 5
BITMAP
C630
C630
ENDCHAR
STARTCHAR 2030
ENCODING 8240
SWIDTH 1000 0
DWIDTH 16 0
BBX 14 14 1 -1
BITMAP
0080
6180
9100
9200
9200
9400
6C00
0B18
14A4
14A4
24A4
44A4
4318
8000
ENDCHAR
STARTCHAR 2032
ENCODING 8242
SWIDTH 250 0
DWIDTH 4 0
BBX 2 4 1 10
BITMAP
40
40
80
80
ENDCHAR
STARTCHAR 2033
ENCODING 8243
SWIDTH 437 0
DWIDTH 7 0
BBX 4 4 1 10
BITMAP
50
50
90
80
ENDCHAR
STARTCHAR 203B
ENCODING 8251
SWIDTH 1000 0
DWIDTH 16 0
BBX 12 12 2 0
BITMAP
8610
4620
2040
1080
0900
C630
C630
0900
1080
2040
4620
8610
ENDCHAR
STARTCHAR 203C
ENCODING 8252
SWIDTH 500 0
DWIDTH 8 0
BBX 4 12 2 0
BITMAP
F0
F0
F0
F0
F0
F0
F0
F0
F0
00
F0
F0
ENDCHAR
STARTCHAR 203E
ENCODING 8254
SWIDTH 500 0
DWIDTH 8 0
BBX 4 1 2 10
BITMAP
F0
ENDCHAR
STARTCHAR 203F
ENCODING 8255
SWIDTH 437 0
DWIDTH 7 0
BBX 7 2 0 -2
BITMAP
80
7E
ENDCHAR
STARTCHAR 2042
ENCODING 8258
SWIDTH 1000 0
DWIDTH 16 0
BBX 12 12 2 0
BITMAP
0600
0F00
0600
0D00
0600
0600
2040
2040
F9E0
70E0
A950
2040
ENDCHAR
STARTCHAR 2047
ENCODING 8263
SWIDTH 1000 0
DWIDTH 16 0
BBX 14 12 1 0
BITMAP
7878
CC8C
8504
8404
0C0C
1818
1020
3060
3060
0000
3060
3060
ENDCHAR
STARTCHAR 2048
ENCODING 8264
SWIDTH 750 0
DWIDTH 12 0
BBX 11 12 0 0
BITMAP
3C60
6360
C160
0160
0260
0660
0860
1860
1860
0000
1860
1860
ENDCHAR
STARTCHAR 2049
ENCODING 8265
SWIDTH 750 0
DWIDTH 12 0
BBX 10 12 2 0
BITMAP
C780
D8C0
D040
C040
C080
C180
C200
C600
C600
0000
C600
C600
ENDCHAR
STARTCHAR 2051
ENCODING 8273
SWIDTH 1000 0
DWIDTH 16 0
BBX 4 12 6 0
BITMAP
60
F0
40
F0
60
00
00
60
F0
60
F0
60
ENDCHAR
STARTCHAR 205A
ENCODING 8282
SWIDTH 1000 0
DWIDTH 16 0
BBX 2 10 7 1
BITMAP
C0
C0
00
00
00
00
00
00
C0
C0
ENDCHAR
STARTCHAR 205D
ENCODING 8285
SWIDTH 1000 0
DWIDTH 16 0
BBX 2 12 7 0
BITMAP
C0
C0
00
00
00
C0
C0
00
00
00
C0
C0
ENDCHAR
STARTCHAR 20AC
ENCODING 8364
SWIDTH 625 0
DWIDTH 10 0
BBX 9 12 0 0
BITMAP
0F00
1880
3000
2000
FF80
2000
2000
FF80
2000
3000
1880
0F00
ENDCHAR
STARTCHAR 2103
ENCODING 8451
SWIDTH 1000 0
DWIDTH 16 0
BBX 13 13 1 1
BITMAP
4000
A3C0
A630
6C10
1818
1000
1000
1000
1000
1008
0818
0430
03E0
ENDCHAR
STARTCHAR 210F
ENCODING 8463
SWIDTH 562 0
DWIDTH 9 0
BBX 8 12 0 0
BITMAP
10
10
7C
20
2E
39
31
61
43
42
42
C2
ENDCHAR
STARTCHAR 2113
ENCODING 8467
SWIDTH 1000 0
DWIDTH 16 0
BBX 8 12 4 0
BITMAP
0C
12
22
22
42
46
44
4C
48
71
E2
9C
ENDCHAR
STARTCHAR 2116
ENCODING 8470
SWIDTH 1000 0
DWIDTH 16 0
BBX 14 11 1 1
BITMAP
C400
C400
E400
A4E0
B5A0
9510
9510
9D10
8D10
8DBC
84EC
ENDCHAR
STARTCHAR 2121
ENCODING 8481
SWIDTH 1000 0
DWIDTH 16 0
BBX 14 11 1 1
BITMAP
F800
2000
2000
27A0
2420
2420
2720
2420
2420
2420
27BC
ENDCHAR
STARTCHAR 2127
ENCODING 8487
SWIDTH 812 0
DWIDTH 13 0
BBX 11 12 1 0
BITMAP
F1E0
1180
60C0
60C0
C060
C060
C060
C060
C060
60C0
3180
1F00
ENDCHAR
STARTCHAR 212B
ENCODING 8491
SWIDTH 1000 0
DWIDTH 16 0
BBX 10 13 3 1
BITMAP
1E00
1200
1C00
0000
0C00
1E00
1200
3300
2100
7F80
4080
C0C0
8040
ENDCHAR
STARTCHAR 2135
ENCODING 8501
SWIDTH 687 0
DWIDTH 11 0
BBX 9 12 1 -1
BITMAP
4000
8200
8300
8180
6280
3600
DC00
8700
8180
4080
4080
C100
ENDCHAR
STARTCHAR 2153
ENCODING 8531
SWIDTH 875 0
DWIDTH 14 0
BBX 12 12 1 -1
BITMAP
2040
E040
2080
2100
2100
2200
04E0
0820
0860
1030
2110
20E0
ENDCHAR
STARTCHAR 2154
ENCODING 8532
SWIDTH 875 0
DWIDTH 14 0
BBX 12 12 1 -1
BITMAP
7040
9080
1080
6100
8200
F2E0
0590
0810
0860
1010
2110
40E0
ENDCHAR
STARTCHAR 2155
ENCODING 8533
SWIDTH 875 0
DWIDTH 14 0
BBX 12 12 1 -1
BITMAP
2040
E040
2080
2100
2100
2200
04E0
0880
08E0
1010
2010
20E0
ENDCHAR
STARTCHAR 2160
ENCODING 8544
SWIDTH 1000 0
DWIDTH 16 0
BBX 2 11 7 1
BITMAP
C0
C0
C0
C0
C0
C0
C0
C0
C0
C0
C0
ENDCHAR
STARTCHAR 2161
ENCODING 8545
SWIDTH 1000 0
DWIDTH 16 0
BBX 6 11 5 1
BITMAP
84
84
84
84
84
84
84
84
84
84
84
ENDCHAR
STARTCHAR 2162
ENCODING 8546
SWIDTH 1000 0
DWIDTH 16 0
BBX 10 11 3 1
BITMAP
8840
8840
8840
8840
8840
8840
8840
8840
8840
8840
8840
ENDCHAR
STARTCHAR 2163
ENCODING 8547
SWIDTH 1000 0
DWIDTH 16 0
BBX 11 11 3 1
BITMAP
B020
9020
9060
9840
88C0
88C0
8C80
8580
8780
8700
8300
ENDCHAR
STARTCHAR 2164
ENCODING 8548
SWIDTH 1000 0
DWIDTH 16 0
BBX 10 11 3 1
BITMAP
C0C0
C0C0
4080
6180
2100
3300
3300
1200
1E00
0C00
0C00
ENDCHAR
STARTCHAR 2165
ENCODING 8549
SWIDTH 1000 0
DWIDTH 16 0
BBX 11 11 2 1
BITMAP
81A0
8120
C120
4320
6220
6220
2620
3420
3C20
1C20
1820
ENDCHAR
STARTCHAR 2166
ENCODING 8550
SWIDTH 1000 0
DWIDTH 16 0
BBX 13 11 1 2
BITMAP
C348
C248
4248
4648
6648
2448
2448
3C48
3848
1848
1848
ENDCHAR
STARTCHAR 2167
ENCODING 8551
SWIDTH 1000 0
DWIDTH 16 0
BBX 14 11 1 2
BITMAP
C2A4
C6A4
44A4
44A4
64A4
6CA4
2CA4
28A4
28A4
38A4
18A4
ENDCHAR
STARTCHAR 2168
ENCODING 8552
SWIDTH 1000 0
DWIDTH 16 0
BBX 11 11 2 1
BITMAP
9860
8C40
84C0
8780
8300
8300
8780
8480
8CC0
9860
9020
ENDCHAR
STARTCHAR 2169
ENCODING 8553
SWIDTH 1000 0
DWIDTH 16 0
BBX 10 11 3 1
BITMAP
4080
6180
3300
1E00
0C00
0C00
1E00
3300
2100
6180
C0C0
ENDCHAR
STARTCHAR 216A
ENCODING 8554
SWIDTH 1000 0
DWIDTH 16 0
BBX 11 11 3 1
BITMAP
C320
4620
6420
3C20
1820
1820
3C20
2420
6620
C320
8120
ENDCHAR
STARTCHAR 216B
ENCODING 8555
SWIDTH 1000 0
DWIDTH 16 0
BBX 13 11 1 2
BITMAP
4248
6648
2448
3C48
1848
1848
3C48
2448
6648
4248
C348
ENDCHAR
STARTCHAR 2170
ENCODING 8560
SWIDTH 1000 0
DWIDTH 16 0
BBX 2 12 7 0
BITMAP
C0
C0
00
00
80
80
80
80
80
80
80
80
ENDCHAR
STARTCHAR 2171
ENCODING 8561
SWIDTH 1000 0
DWIDTH 16 0
BBX 6 12 5 0
BITMAP
CC
CC
00
00
84
84
84
84
84
84
84
84
ENDCHAR
STARTCHAR 2172
ENCODING 8562
SWIDTH 1000 0
DWIDTH 16 0
BBX 8 12 4 0
BITMAP
DB
DB
00
00
91
91
91
91
91
91
91
91
ENDCHAR
STARTCHAR 2173
ENCODING 8563
SWIDTH 1000 0
DWIDTH 16 0
BBX 11 12 3 0
BITMAP
C000
C000
0000
0000
9860
8840
8CC0
8480
8580
8700
8300
8300
ENDCHAR
STARTCHAR 2174
ENCODING 8564
SWIDTH 1000 0
DWIDTH 16 0
BBX 8 7 4 1
BITMAP
C3
C3
42
66
24
3C
18
ENDCHAR
STARTCHAR 2175
ENCODING 8565
SWIDTH 1000 0
DWIDTH 16 0
BBX 11 12 2 0
BITMAP
0060
0060
0000
0000
C320
4220
6620
2420
3420
1C20
1820
1820
ENDCHAR
STARTCHAR 2176
ENCODING 8566
SWIDTH 1000 0
DWIDTH 16 0
BBX 11 11 3 1
BITMAP
0120
0120
0000
0000
8D20
8920
C920
5920
5120
7120
3120
ENDCHAR
STARTCHAR 2177
ENCODING 8567
SWIDTH 1000 0
DWIDTH 16 0
BBX 13 11 2 1
BITMAP
0148
0148
0000
0000
8550
8D50
4950
4950
7150
3150
3150
ENDCHAR
STARTCHAR 2178
ENCODING 8568
SWIDTH 1000 0
DWIDTH 16 0
BBX 11 11 3 1
BITMAP
C000
C000
0000
0000
8860
84C0
8380
8300
8780
8CC0
9860
ENDCHAR
STARTCHAR 2179
ENCODING 8569
SWIDTH 1000 0
DWIDTH 16 0
BBX 8 7 4 1
BITMAP
C3
66
3C
18
3C
66
C3
ENDCHAR
STARTCHAR 217A
ENCODING 8570
SWIDTH 1000 0
DWIDTH 16 0
BBX 11 11 2 1
BITMAP
0060
0060
0000
0000
C220
6420
3820
1820
3C20
6620
C320
ENDCHAR
STARTCHAR 217B
ENCODING 8571
SWIDTH 1000 0
DWIDTH 16 0
BBX 12 11 2 1
BITMAP
0090
0090
0000
0000
4490
6C90
3890
1090
2890
6C90
C690
ENDCHAR
STARTCHAR 2190
ENCODING 8592
SWIDTH 1000 0
DWIDTH 16 0
BBX 14 6 1 3
BITMAP
1000
6000
FFFC
6000
3000
1800
ENDCHAR
STARTCHAR 2191
ENCODING 8593
SWIDTH 1000 0
DWIDTH 16 0
BBX 6 14 5 0
BITMAP
20
70
78
AC
24
20
20
20
20
20
20
20
20
20
ENDCHAR
STARTCHAR 2192
ENCODING 8594
SWIDTH 1000 0
DWIDTH 16 0
BBX 14 6 1 3
BITMAP
0020
0018
FFFC
0018
0030
0060
ENDCHAR
STARTCHAR 2193
ENCODING 8595
SWIDTH 1000 0
DWIDTH 16 0
BBX 6 14 5 -2
BITMAP
20
20
20
20
20
20
20
20
20
A4
AC
78
70
20
ENDCHAR
STARTCHAR 2194
ENCODING 8596
SWIDTH 750 0
DWIDTH 12 0
BBX 10 6 1 3
BITMAP
2300
4080
FFC0
4080
2100
2200
ENDCHAR
STARTCHAR 2196
ENCODING 8598
SWIDTH 1000 0
DWIDTH 16 0
BBX 12 12 2 0
BITMAP
8000
7C00
6000
5000
4800
4400
0200
0100
0080
0040
0020
0010
ENDCHAR
STARTCHAR 2197
ENCODING 8599
SWIDTH 1000 0
DWIDTH 16 0
BBX 12 12 2 0
BITMAP
0010
03E0
0060
00A0
0120
0220
0400
0800
1000
2000
4000
8000
ENDCHAR
STARTCHAR 2198
ENCODING 8600
SWIDTH 1000 0
DWIDTH 16 0
BBX 12 12 2 0
BITMAP
8000
4000
2000
1000
0800
0400
0220
0120
00A0
0060
03E0
0010
ENDCHAR
STARTCHAR 2199
ENCODING 8601
SWIDTH 1000 0
DWIDTH 16 0
BBX 12 12 2 0
BITMAP
0010
0020
0040
0080
0100
0200
4400
4800
5000
6000
7C00
8000
ENDCHAR
STARTCHAR 21C4
ENCODING 8644
SWIDTH 1000 0
DWIDTH 16 0
BBX 14 12 1 0
BITMAP
0020
0018
FFFC
0018
0030
0060
1800
3000
6000
FFFC
6000
1000
ENDCHAR
STARTCHAR 21D2
ENCODING 8658
SWIDTH 750 0
DWIDTH 12 0
BBX 10 8 1 1
BITMAP
0200
0100
FF80
00C0
00C0
FF80
0100
0200
ENDCHAR
STARTCHAR 21D4
ENCODING 8660
SWIDTH 750 0
DWIDTH 12 0
BBX 10 8 1 1
BITMAP
1200
2100
7F80
8040
8040
7F80
2100
1200
ENDCHAR
STARTCHAR 21E6
ENCODING 8678
SWIDTH 1000 0
DWIDTH 16 0
BBX 13 6 2 3
BITMAP
1000
3000
DFF8
9FF8
7000
1000
ENDCHAR
STARTCHAR 21E7
ENCODING 8679
SWIDTH 1000 0
DWIDTH 16 0
BBX 6 12 5 1
BITMAP
30
50
48
FC
30
30
30
30
30
30
30
30
ENDCHAR
STARTCHAR 21E8
ENCODING 8680
SWIDTH 1000 0
DWIDTH 16 0
BBX 13 6 1 3
BITMAP
0040
0060
FFD8
FFC8
0070
0040
ENDCHAR
STARTCHAR 21E9
ENCODING 8681
SWIDTH 1000 0
DWIDTH 16 0
BBX 6 13 5 -1
BITMAP
30
30
30
30
30
30
30
30
30
FC
48
50
30
ENDCHAR
STARTCHAR 2200
ENCODING 8704
SWIDTH 750 0
DWIDTH 12 0
BBX 11 12 0 -1
BITMAP
8020
4020
4060
2040
3FC0
1080
1080
0900
0900
0600
0600
0400
ENDCHAR
STARTCHAR 2202
ENCODING 8706
SWIDTH 562 0
DWIDTH 9 0
BBX 7 12 1 0
BITMAP
38
24
02
02
3A
46
82
82
82
84
C4
78
ENDCHAR
STARTCHAR 2203
ENCODING 8707
SWIDTH 750 0
DWIDTH 12 0
BBX 8 12 2 0
BITMAP
FF
01
01
01
01
01
FF
01
01
01
01
FF
ENDCHAR
STARTCHAR 2205
ENCODING 8709
SWIDTH 750 0
DWIDTH 12 0
BBX 10 11 1 0
BITMAP
1E00
2140
4080
8140
8240
8440
8840
9040
6080
6180
1E00
ENDCHAR
STARTCHAR 2207
ENCODING 8711
SWIDTH 750 0
DWIDTH 12 0
BBX 10 12 1 -1
BITMAP
FFC0
C040
4080
6080
6100
2100
3200
1200
1A00
0C00
0C00
0800
ENDCHAR
STARTCHAR 2208
ENCODING 8712
SWIDTH 687 0
DWIDTH 11 0
BBX 9 8 1 1
BITMAP
3F80
4000
8000
FF80
8000
8000
4000
3F80
ENDCHAR
STARTCHAR 2209
ENCODING 8713
SWIDTH 687 0
DWIDTH 11 0
BBX 9 10 1 0
BITMAP
0200
3F80
4400
8400
FF80
8800
9000
5000
3F80
2000
ENDCHAR
STARTCHAR 220B
ENCODING 8715
SWIDTH 687 0
DWIDTH 11 0
BBX 9 8 1 1
BITMAP
FE00
0100
0080
FF80
0080
0080
0100
FE00
ENDCHAR
STARTCHAR 2212
ENCODING 8722
SWIDTH 687 0
DWIDTH 11 0
BBX 9 1 1 5
BITMAP
FF80
ENDCHAR
STARTCHAR 2213
ENCODING 8723
SWIDTH 687 0
DWIDTH 11 0
BBX 9 9 1 0
BITMAP
FF80
0000
0800
0800
0800
FF80
0800
0800
0800
ENDCHAR
STARTCHAR 2219
ENCODING 8729
SWIDTH 250 0
DWIDTH 4 0
BBX 2 2 1 4
BITMAP
C0
C0
ENDCHAR
STARTCHAR 221A
ENCODING 8730
SWIDTH 625 0
DWIDTH 10 0
BBX 9 14 1 -1
BITMAP
0080
0080
0100
0100
0300
0200
0200
0600
4400
6400
A800
B800
9800
1000
ENDCHAR
STARTCHAR 221D
ENCODING 8733
SWIDTH 687 0
DWIDTH 11 0
BBX 9 5 1 2
BITMAP
7300
8C80
8C00
8C00
7380
ENDCHAR
STARTCHAR 221E
ENCODING 8734
SWIDTH 687 0
DWIDTH 11 0
BBX 9 5 1 3
BITMAP
6700
9480
8880
9880
7700
ENDCHAR
STARTCHAR 221F
ENCODING 8735
SWIDTH 687 0
DWIDTH 11 0
BBX 8 10 1 1
BITMAP
80
80
80
80
80
80
80
80
80
FF
ENDCHAR
STARTCHAR 2220
ENCODING 8736
SWIDTH 687 0
DWIDTH 11 0
BBX 9 10 1 2
BITMAP
0400
0800
0800
1000
3000
2000
4000
4000
8000
FF80
ENDCHAR
STARTCHAR 2225
ENCODING 8741
SWIDTH 687 0
DWIDTH 11 0
BBX 9 14 1 0
BITMAP
0480
0900
0900
0900
1200
1200
1600
2400
2400
6C00
4800
4800
D000
9000
ENDCHAR
STARTCHAR 2226
ENCODING 8742
SWIDTH 687 0
DWIDTH 11 0
BBX 9 14 1 -1
BITMAP
0480
0900
0900
8900
5200
3200
1A00
2C00
2600
2D00
4880
4800
D800
9000
ENDCHAR
STARTCHAR 2227
ENCODING 8743
SWIDTH 687 0
DWIDTH 11 0
BBX 9 8 1 1
BITMAP
0800
1400
1400
2200
2200
4100
4100
8080
ENDCHAR
STARTCHAR 2228
ENCODING 8744
SWIDTH 687 0
DWIDTH 11 0
BBX 9 8 1 1
BITMAP
8080
4100
4100
2200
2200
1400
1400
0800
ENDCHAR
STARTCHAR 2229
ENCODING 8745
SWIDTH 687 0
DWIDTH 11 0
BBX 7 9 2 0
BITMAP
38
44
82
82
82
82
82
82
82
ENDCHAR
STARTCHAR 222A
ENCODING 8746
SWIDTH 687 0
DWIDTH 11 0
BBX 7 10 2 0
BITMAP
82
82
82
82
82
82
82
82
44
38
ENDCHAR
STARTCHAR 222B
ENCODING 8747
SWIDTH 562 0
DWIDTH 9 0
BBX 8 15 1 -3
BITMAP
0E
0A
1B
10
10
10
10
10
10
10
10
10
90
A0
E0
ENDCHAR
STARTCHAR 222C
ENCODING 8748
SWIDTH 937 0
DWIDTH 15 0
BBX 13 15 1 -3
BITMAP
0E30
0A48
1B48
1040
1040
1040
1040
10C0
1080
1080
1080
1080
9480
A480
E300
ENDCHAR
STARTCHAR 222E
ENCODING 8750
SWIDTH 562 0
DWIDTH 9 0
BBX 8 15 1 -3
BITMAP
0E
0A
1B
10
10
38
54
54
54
38
10
10
90
A0
E0
ENDCHAR
STARTCHAR 2234
ENCODING 8756
SWIDTH 687 0
DWIDTH 11 0
BBX 9 8 1 1
BITMAP
1800
1800
0000
0000
0000
0000
C180
C180
ENDCHAR
STARTCHAR 2235
ENCODING 8757
SWIDTH 687 0
DWIDTH 11 0
BBX 9 8 1 1
BITMAP
C180
C180
0000
0000
0000
0000
1800
1800
ENDCHAR
STARTCHAR 223C
ENCODING 8764
SWIDTH 500 0
DWIDTH 8 0
BBX 5 2 1 10
BITMAP
60
98
ENDCHAR
STARTCHAR 223D
ENCODING 8765
SWIDTH 687 0
DWIDTH 11 0
BBX 9 5 1 2
BITMAP
6700
8480
8880
9080
7300
ENDCHAR
STARTCHAR 2243
ENCODING 8771
SWIDTH 687 0
DWIDTH 11 0
BBX 9 5 1 3
BITMAP
7880
8F00
0000
0000
FF80
ENDCHAR
STARTCHAR 2245
ENCODING 8773
SWIDTH 687 0
DWIDTH 11 0
BBX 9 6 1 2
BITMAP
7080
8F00
0000
FF80
0000
FF80
ENDCHAR
STARTCHAR 2248
ENCODING 8776
SWIDTH 687 0
DWIDTH 11 0
BBX 9 5 1 3
BITMAP
7880
8F00
7000
9880
8700
ENDCHAR
STARTCHAR 2252
ENCODING 8786
SWIDTH 687 0
DWIDTH 11 0
BBX 9 10 1 0
BITMAP
6000
6000
0000
FF80
0000
0000
FF80
0000
0300
0300
ENDCHAR
STARTCHAR 2260
ENCODING 8800
SWIDTH 687 0
DWIDTH 11 0
BBX 9 10 1 0
BITMAP
0400
0400
0400
FF80
0800
0800
FF80
1000
1000
2000
ENDCHAR
STARTCHAR 2261
ENCODING 8801
SWIDTH 687 0
DWIDTH 11 0
BBX 9 6 1 2
BITMAP
FF80
0000
FF80
0000
0000
FF80
ENDCHAR
STARTCHAR 2262
ENCODING 8802
SWIDTH 687 0
DWIDTH 11 0
BBX 9 10 1 0
BITMAP
0400
0400
FF80
0800
FF80
0800
1000
FF80
1000
2000
ENDCHAR
STARTCHAR 2266
ENCODING 8806
SWIDTH 687 0
DWIDTH 11 0
BBX 9 11 1 1
BITMAP
0180
0E00
7000
C000
3C00
0380
0000
FF80
0000
0000
FF80
ENDCHAR
STARTCHAR 2267
ENCODING 8807
SWIDTH 687 0
DWIDTH 11 0
BBX 9 11 1 1
BITMAP
C000
3800
0700
0380
1C00
E000
0000
FF80
0000
0000
FF80
ENDCHAR
STARTCHAR 226A
ENCODING 8810
SWIDTH 687 0
DWIDTH 11 0
BBX 9 8 1 1
BITMAP
0980
1200
6400
9800
D800
6400
1300
0D80
ENDCHAR
STARTCHAR 226B
ENCODING 8811
SWIDTH 687 0
DWIDTH 11 0
BBX 9 8 1 1
BITMAP
D800
2400
1300
0D80
0980
1200
6400
9800
ENDCHAR
STARTCHAR 2276
ENCODING 8822
SWIDTH 687 0
DWIDTH 11 0
BBX 9 11 1 0
BITMAP
0080
0F00
7000
E000
1E00
C180
3800
0780
0300
3C00
C000
ENDCHAR
STARTCHAR 2277
ENCODING 8823
SWIDTH 687 0
DWIDTH 11 0
BBX 9 11 1 0
BITMAP
8000
7800
0700
0380
3C00
C180
0E00
F000
E000
1E00
0180
ENDCHAR
STARTCHAR 2282
ENCODING 8834
SWIDTH 687 0
DWIDTH 11 0
BBX 9 8 1 1
BITMAP
3F80
4000
8000
8000
8000
8000
4000
3F80
ENDCHAR
STARTCHAR 2283
ENCODING 8835
SWIDTH 687 0
DWIDTH 11 0
BBX 9 8 1 1
BITMAP
FE00
0100
0080
0080
0080
0080
0100
FE00
ENDCHAR
STARTCHAR 2284
ENCODING 8836
SWIDTH 687 0
DWIDTH 11 0
BBX 9 10 1 0
BITMAP
0200
3F80
4200
8400
8400
8800
8800
4800
3F80
1000
ENDCHAR
STARTCHAR 2285
ENCODING 8837
SWIDTH 687 0
DWIDTH 11 0
BBX 9 10 1 0
BITMAP
0400
FE00
0900
0880
1080
1080
1080
2100
FE00
4000
ENDCHAR
STARTCHAR 2286
ENCODING 8838
SWIDTH 687 0
DWIDTH 11 0
BBX 9 9 1 1
BITMAP
3F80
4000
8000
8000
8000
4000
7F80
0000
FF80
ENDCHAR
STARTCHAR 2287
ENCODING 8839
SWIDTH 687 0
DWIDTH 11 0
BBX 9 9 1 1
BITMAP
FE00
0100
0080
0080
0080
0100
FE00
0000
FF80
ENDCHAR
STARTCHAR 228A
ENCODING 8842
SWIDTH 687 0
DWIDTH 11 0
BBX 9 11 1 -1
BITMAP
3F80
4000
8000
8000
8000
8000
4000
3F80
0400
FF80
1000
ENDCHAR
STARTCHAR 228B
ENCODING 8843
SWIDTH 687 0
DWIDTH 11 0
BBX 9 11 1 -1
BITMAP
FE00
0100
0080
0080
0080
0080
0100
FE00
0400
FF80
1000
ENDCHAR
STARTCHAR 2295
ENCODING 8853
SWIDTH 875 0
DWIDTH 14 0
BBX 13 12 0 0
BITMAP
0F80
3060
6230
4210
8208
8208
BFE8
8208
4210
6230
3260
0F80
ENDCHAR
STARTCHAR 2296
ENCODING 8854
SWIDTH 875 0
DWIDTH 14 0
BBX 12 12 1 0
BITMAP
0F00
30C0
4020
4030
8010
8010
BFD0
8010
4020
4020
30C0
0F00
ENDCHAR
STARTCHAR 2297
ENCODING 8855
SWIDTH 875 0
DWIDTH 14 0
BBX 12 12 1 0
BITMAP
0F00
30C0
40A0
50B0
8910
8610
8610
8910
50A0
4020
30C0
0F00
ENDCHAR
STARTCHAR 22A5
ENCODING 8869
SWIDTH 687 0
DWIDTH 11 0
BBX 9 10 1 1
BITMAP
0800
0800
0800
0800
0800
0800
0800
0800
0800
FF80
ENDCHAR
STARTCHAR 22BF
ENCODING 8895
SWIDTH 687 0
DWIDTH 11 0
BBX 9 10 1 2
BITMAP
0080
0180
0180
0280
0480
0880
1080
2080
4080
FF80
ENDCHAR
STARTCHAR 22DA
ENCODING 8922
SWIDTH 687 0
DWIDTH 11 0
BBX 9 12 1 -1
BITMAP
0080
1F00
E000
7800
0780
0000
FF80
0000
F000
0F80
0F00
F000
ENDCHAR
STARTCHAR 22DB
ENCODING 8923
SWIDTH 687 0
DWIDTH 11 0
BBX 9 12 1 -1
BITMAP
8000
7C00
0380
0F00
F000
0000
FF80
0000
0F80
F000
7800
0780
ENDCHAR
STARTCHAR 2305
ENCODING 8965
SWIDTH 687 0
DWIDTH 11 0
BBX 9 7 1 0
BITMAP
FF80
0800
1400
1400
2200
2200
4200
ENDCHAR
STARTCHAR 2306
ENCODING 8966
SWIDTH 687 0
DWIDTH 11 0
BBX 9 10 1 0
BITMAP
FF80
0000
0000
FF80
0800
1400
1400
2200
2200
4100
ENDCHAR
STARTCHAR 2312
ENCODING 8978
SWIDTH 1000 0
DWIDTH 16 0
BBX 16 3 0 9
BITMAP
0FF0
700E
C003
ENDCHAR
STARTCHAR 2318
ENCODING 8984
SWIDTH 1000 0
DWIDTH 16 0
BBX 15 15 1 -1
BITMAP
701C
C822
8822
8822
7FFC
0820
0820
0820
0820
0820
7FFC
8822
8822
8822
701C
ENDCHAR
STARTCHAR 23BE
ENCODING 9150
SWIDTH 1000 0
DWIDTH 16 0
BBX 9 16 8 -3
BITMAP
FF80
8000
8000
8000
8000
8000
8000
8000
8000
8000
8000
8000
8000
8000
8000
8000
ENDCHAR
STARTCHAR 23BF
ENCODING 9151
SWIDTH 1000 0
DWIDTH 16 0
BBX 9 16 8 -1
BITMAP
8000
8000
8000
8000
8000
8000
8000
8000
8000
8000
8000
8000
8000
8000
8000
FF80
ENDCHAR
STARTCHAR 23C0
ENCODING 9152
SWIDTH 1000 0
DWIDTH 16 0
BBX 13 16 2 -1
BITMAP
0200
0200
0F80
3260
4210
4210
8208
8208
8208
8208
4210
4210
2220
1FC0
0200
0200
ENDCHAR
STARTCHAR 23C1
ENCODING 9153
SWIDTH 1000 0
DWIDTH 16 0
BBX 17 16 0 -3
BITMAP
FFFF80
008000
01C000
06B000
088C00
108400
208200
208200
208200
208200
208200
108400
088800
04B000
03C000
008000
ENDCHAR
STARTCHAR 23C2
ENCODING 9154
SWIDTH 1000 0
DWIDTH 16 0
BBX 17 16 0 -1
BITMAP
008000
008000
07F000
088800
108400
208200
208200
208200
208200
208200
108400
188400
049800
03E000
008000
FFFF80
ENDCHAR
STARTCHAR 23C3
ENCODING 9155
SWIDTH 1000 0
DWIDTH 16 0
BBX 13 17 2 -2
BITMAP
0200
0200
0200
0700
0700
0A80
1280
1240
2240
2220
4210
8210
8208
FFF8
0200
0200
0200
ENDCHAR
STARTCHAR 23C4
ENCODING 9156
SWIDTH 1000 0
DWIDTH 16 0
BBX 17 16 0 -2
BITMAP
FFFF80
008000
008000
01C000
02C000
02A000
049000
049000
088800
108800
108400
208200
3FFE00
008000
008000
008000
ENDCHAR
STARTCHAR 23C5
ENCODING 9157
SWIDTH 1000 0
DWIDTH 16 0
BBX 17 17 0 -2
BITMAP
008000
008000
008000
01C000
01C000
02A000
04A000
049000
089000
088800
108400
208400
208200
3FFE00
008000
008000
FFFF80
ENDCHAR
STARTCHAR 23C6
ENCODING 9158
SWIDTH 1000 0
DWIDTH 16 0
BBX 15 16 1 -1
BITMAP
0100
0100
0100
0100
0100
0100
7900
8700
01C2
013C
0100
0100
0100
0100
0100
0100
ENDCHAR
STARTCHAR 23C7
ENCODING 9159
SWIDTH 1000 0
DWIDTH 16 0
BBX 17 16 0 -3
BITMAP
FFFF80
008000
008000
008000
008000
008000
1C8000
638000
00C000
00BE00
008000
008000
008000
008000
008000
008000
ENDCHAR
STARTCHAR 23C8
ENCODING 9160
SWIDTH 1000 0
DWIDTH 16 0
BBX 17 16 0 -1
BITMAP
008000
008000
008000
008000
008000
008000
3E8000
018000
00E300
009C00
008000
008000
008000
008000
008000
FFFF80
ENDCHAR
STARTCHAR 23C9
ENCODING 9161
SWIDTH 1000 0
DWIDTH 16 0
BBX 17 16 0 -3
BITMAP
FFFF80
008000
008000
008000
008000
008000
008000
008000
008000
008000
008000
008000
008000
008000
008000
008000
ENDCHAR
STARTCHAR 23CA
ENCODING 9162
SWIDTH 1000 0
DWIDTH 16 0
BBX 17 16 0 -1
BITMAP
008000
008000
008000
008000
008000
008000
008000
008000
008000
008000
008000
008000
008000
008000
008000
FFFF80
ENDCHAR
STARTCHAR 23CB
ENCODING 9163
SWIDTH 1000 0
DWIDTH 16 0
BBX 9 16 -1 -3
BITMAP
FF80
0080
0080
0080
0080
0080
0080
0080
0080
0080
0080
0080
0080
0080
0080
0080
ENDCHAR
STARTCHAR 23CC
ENCODING 9164
SWIDTH 1000 0
DWIDTH 16 0
BBX 9 16 -1 -1
BITMAP
0080
0080
0080
0080
0080
0080
0080
0080
0080
0080
0080
0080
0080
0080
0080
FF80
ENDCHAR
STARTCHAR 23CE
ENCODING 9166
SWIDTH 1000 0
DWIDTH 16 0
BBX 12 12 2 -1
BITMAP
01F0
0110
0110
0110
0910
3910
4F10
8010
8030
4FC0
2800
1800
ENDCHAR
STARTCHAR 2423
ENCODING 9251
SWIDTH 1000 0
DWIDTH 16 0
BBX 12 3 2 1
BITMAP
8010
8010
FFF0
ENDCHAR
STARTCHAR 2460
ENCODING 9312
SWIDTH 1000 0
DWIDTH 16 0
BBX 15 15 1 -1
BITMAP
07C0
1830
2008
4304
4704
8102
8102
8102
8102
8102
4104
4104
2108
1830
07C0
ENDCHAR
STARTCHAR 2461
ENCODING 9313
SWIDTH 1000 0
DWIDTH 16 0
BBX 16 15 0 -2
BITMAP
07E0
1818
33CC
6662
4422
8421
8061
80C1
8301
8201
4402
67F6
300C
1818
07E0
ENDCHAR
STARTCHAR 2462
ENCODING 9314
SWIDTH 1000 0
DWIDTH 16 0
BBX 16 15 0 -1
BITMAP
03E0
0C18
100C
23C2
4422
8021
8021
81C1
8021
8011
4C12
6636
33CC
1818
07E0
ENDCHAR
STARTCHAR 2463
ENCODING 9315
SWIDTH 1000 0
DWIDTH 16 0
BBX 15 15 1 -2
BITMAP
07C0
1830
2088
4184
4384
8282
8482
8C82
9882
9FE2
4084
4084
2008
1830
07C0
ENDCHAR
STARTCHAR 2464
ENCODING 9316
SWIDTH 1000 0
DWIDTH 16 0
BBX 16 15 0 -1
BITMAP
03E0
0C18
100C
27E2
4402
8401
85C1
8621
8011
8011
4412
6626
33CC
1818
07E0
ENDCHAR
STARTCHAR 2465
ENCODING 9317
SWIDTH 1000 0
DWIDTH 16 0
BBX 16 15 0 -1
BITMAP
03E0
0C18
100C
21C2
4222
8401
85C1
8621
8411
8411
4412
6226
31CC
1818
07E0
ENDCHAR
STARTCHAR 2466
ENCODING 9318
SWIDTH 1000 0
DWIDTH 16 0
BBX 16 15 0 -1
BITMAP
07E0
0818
300C
67F2
4022
8061
8041
80C1
8081
8081
4182
6106
310C
1818
07E0
ENDCHAR
STARTCHAR 2467
ENCODING 9319
SWIDTH 1000 0
DWIDTH 16 0
BBX 16 15 0 -1
BITMAP
03E0
0C18
100C
23C2
4422
8421
8421
83C1
8421
8811
4812
6C36
33CC
1818
07E0
ENDCHAR
STARTCHAR 2468
ENCODING 9320
SWIDTH 1000 0
DWIDTH 16 0
BBX 16 15 0 -1
BITMAP
03E0
0C18
100C
23C2
4662
8431
8431
8671
83F1
8031
4432
6666
33CC
1818
07E0
ENDCHAR
STARTCHAR 2469
ENCODING 9321
SWIDTH 1000 0
DWIDTH 16 0
BBX 15 15 0 -1
BITMAP
07C0
0830
3008
49E4
5924
8A12
8A12
8A12
8A12
8A12
4A14
4924
29E8
1830
07C0
ENDCHAR
STARTCHAR 246A
ENCODING 9322
SWIDTH 1000 0
DWIDTH 16 0
BBX 15 15 1 -1
BITMAP
07C0
1830
2008
4824
5864
8822
8822
8822
8822
8822
4824
4824
2828
1830
07C0
ENDCHAR
STARTCHAR 246B
ENCODING 9323
SWIDTH 1000 0
DWIDTH 16 0
BBX 15 15 0 -2
BITMAP
07C0
1830
28E8
5914
4914
8812
8822
8862
88C2
8982
4904
4BF4
2008
1830
07C0
ENDCHAR
STARTCHAR 246C
ENCODING 9324
SWIDTH 1000 0
DWIDTH 16 0
BBX 15 15 0 -1
BITMAP
07C0
0830
3008
48E4
5914
8812
8812
88E2
8832
8812
4B14
4914
29E8
1830
07C0
ENDCHAR
STARTCHAR 246D
ENCODING 9325
SWIDTH 1000 0
DWIDTH 16 0
BBX 16 15 0 -1
BITMAP
07E0
1818
300C
7832
5872
8851
88D1
8991
8911
8BF9
4812
6816
300C
1818
07E0
ENDCHAR
STARTCHAR 246E
ENCODING 9326
SWIDTH 1000 0
DWIDTH 16 0
BBX 15 15 0 -1
BITMAP
07C0
0830
3008
49E4
5904
8902
89E2
8932
8812
8812
4B14
4924
28E8
1830
07C0
ENDCHAR
STARTCHAR 246F
ENCODING 9327
SWIDTH 1000 0
DWIDTH 16 0
BBX 15 15 0 -1
BITMAP
07C0
0830
3008
48E4
5934
8B02
8B02
8BE2
8B32
8A12
4A14
4934
29E8
1830
07C0
ENDCHAR
STARTCHAR 2470
ENCODING 9328
SWIDTH 1000 0
DWIDTH 16 0
BBX 15 15 0 -1
BITMAP
07C0
0830
3008
4BF4
5824
8822
8862
8842
8842
88C2
4884
4884
2888
1830
07C0
ENDCHAR
STARTCHAR 2471
ENCODING 9329
SWIDTH 1000 0
DWIDTH 16 0
BBX 15 15 0 -1
BITMAP
07C0
0830
3008
49E4
5A14
8A12
8B32
88E2
8B32
8A12
4A14
4B34
29E8
1830
07C0
ENDCHAR
STARTCHAR 2472
ENCODING 9330
SWIDTH 1000 0
DWIDTH 16 0
BBX 15 15 0 -1
BITMAP
07C0
0830
3008
49E4
5B24
8A12
8A12
8B32
89F2
8812
4914
4924
28C8
1830
07C0
ENDCHAR
STARTCHAR 2473
ENCODING 9331
SWIDTH 1000 0
DWIDTH 16 0
BBX 16 15 0 -2
BITMAP
07E0
1818
3E3C
694A
594A
9949
8249
8649
8449
8849
484A
7F36
300C
1818
07E0
ENDCHAR
STARTCHAR 24D0
ENCODING 9424
SWIDTH 1000 0
DWIDTH 16 0
BBX 15 15 1 -1
BITMAP
07C0
1830
2008
4004
4004
8782
8442
83C2
8C42
88C2
47E4
4004
2008
1830
07C0
ENDCHAR
STARTCHAR 24D1
ENCODING 9425
SWIDTH 1000 0
DWIDTH 16 0
BBX 15 15 0 -1
BITMAP
07C0
0830
3008
4404
4404
8402
87C2
8662
8422
8422
4624
47C4
2008
1830
07C0
ENDCHAR
STARTCHAR 24D2
ENCODING 9426
SWIDTH 1000 0
DWIDTH 16 0
BBX 16 15 0 -1
BITMAP
03E0
0C18
100C
2002
4002
83C1
8661
8401
8401
8661
43C2
6006
300C
1818
07E0
ENDCHAR
STARTCHAR 24D3
ENCODING 9427
SWIDTH 1000 0
DWIDTH 16 0
BBX 15 15 1 -1
BITMAP
07C0
1830
2008
4044
4044
8042
87C2
8CC2
8842
8842
4CC4
47C4
2008
1830
07C0
ENDCHAR
STARTCHAR 24D4
ENCODING 9428
SWIDTH 1000 0
DWIDTH 16 0
BBX 16 15 0 -1
BITMAP
07E0
0818
300C
6002
43C2
8261
8421
87E1
8401
8221
43C2
6006
300C
1818
07E0
ENDCHAR
STARTCHAR 24D5
ENCODING 9429
SWIDTH 1000 0
DWIDTH 16 0
BBX 15 15 0 -1
BITMAP
07C0
1830
2008
41C4
4104
8102
87C2
8102
8102
8102
4104
4104
2008
1830
07C0
ENDCHAR
STARTCHAR 24D6
ENCODING 9430
SWIDTH 1000 0
DWIDTH 16 0
BBX 15 15 1 -1
BITMAP
07C0
1830
2008
4004
47C4
8842
8842
8842
87C2
8042
4444
4784
2008
1830
07C0
ENDCHAR
STARTCHAR 24D7
ENCODING 9431
SWIDTH 1000 0
DWIDTH 16 0
BBX 15 15 0 -1
BITMAP
07C0
1830
2008
4404
4404
8402
85C2
8622
8422
8422
4424
4424
2008
1830
07C0
ENDCHAR
STARTCHAR 24D8
ENCODING 9432
SWIDTH 1000 0
DWIDTH 16 0
BBX 15 15 0 -1
BITMAP
07C0
0830
3008
4104
4104
8002
8102
8102
8102
8102
4104
4104
2108
1830
07C0
ENDCHAR
STARTCHAR 24D9
ENCODING 9433
SWIDTH 1000 0
DWIDTH 16 0
BBX 14 15 1 -1
BITMAP
0780
1860
2110
4108
4008
8104
8104
8104
8104
8104
4108
4108
2710
1860
0F80
ENDCHAR
STARTCHAR 24DA
ENCODING 9434
SWIDTH 1000 0
DWIDTH 16 0
BBX 15 15 0 -1
BITMAP
07C0
1830
2008
4404
4404
8402
84C2
8582
8702
8682
44C4
4464
2008
1830
07C0
ENDCHAR
STARTCHAR 24DB
ENCODING 9435
SWIDTH 1000 0
DWIDTH 16 0
BBX 15 15 0 -1
BITMAP
07C0
0830
3008
4104
4104
8102
8102
8102
8102
8102
4104
4104
2108
1830
07C0
ENDCHAR
STARTCHAR 24DC
ENCODING 9436
SWIDTH 1000 0
DWIDTH 16 0
BBX 16 15 0 -1
BITMAP
03E0
0C18
100C
2002
4002
8FF1
8911
8911
8911
8911
4912
6006
300C
1818
07E0
ENDCHAR
STARTCHAR 24DD
ENCODING 9437
SWIDTH 1000 0
DWIDTH 16 0
BBX 16 15 0 -1
BITMAP
07E0
0818
100C
2002
4002
87C1
8621
8421
8421
8421
4422
6006
300C
1818
07E0
ENDCHAR
STARTCHAR 24DE
ENCODING 9438
SWIDTH 1000 0
DWIDTH 16 0
BBX 16 15 0 -1
BITMAP
03E0
0C18
100C
2002
4002
83C1
8421
8421
8421
8661
43C2
6006
300C
1818
07E0
ENDCHAR
STARTCHAR 24DF
ENCODING 9439
SWIDTH 1000 0
DWIDTH 16 0
BBX 15 15 0 -1
BITMAP
07C0
0830
3008
4004
45C4
8662
8422
8422
8422
8662
45C4
4404
2008
1830
07C0
ENDCHAR
STARTCHAR 24E0
ENCODING 9440
SWIDTH 1000 0
DWIDTH 16 0
BBX 15 15 1 -1
BITMAP
07C0
1830
2008
4004
4744
8CC2
8842
8842
8842
8CC2
4744
4044
2008
1830
07C0
ENDCHAR
STARTCHAR 24E1
ENCODING 9441
SWIDTH 1000 0
DWIDTH 16 0
BBX 15 15 1 -1
BITMAP
07C0
1830
2008
4004
4004
82C2
8382
8202
8202
8202
4204
4004
2008
1830
07C0
ENDCHAR
STARTCHAR 24E2
ENCODING 9442
SWIDTH 1000 0
DWIDTH 16 0
BBX 16 15 0 -1
BITMAP
03E0
0C18
100C
2002
4002
83C1
8401
8301
80C1
8421
43C2
6006
300C
1818
07E0
ENDCHAR
STARTCHAR 24E3
ENCODING 9443
SWIDTH 1000 0
DWIDTH 16 0
BBX 15 15 0 -2
BITMAP
07C0
1830
2008
4104
4104
87C2
8102
8102
8102
8102
41C4
4004
2008
1830
07C0
ENDCHAR
STARTCHAR 24E4
ENCODING 9444
SWIDTH 1000 0
DWIDTH 16 0
BBX 16 15 0 -1
BITMAP
07E0
0818
100C
2002
4002
8421
8421
8421
8421
8461
43E2
6006
300C
1818
07E0
ENDCHAR
STARTCHAR 24E5
ENCODING 9445
SWIDTH 1000 0
DWIDTH 16 0
BBX 16 15 0 -1
BITMAP
03E0
0C18
100C
2002
4002
8421
8421
8661
8241
83C1
4182
6186
300C
1818
07E0
ENDCHAR
STARTCHAR 24E6
ENCODING 9446
SWIDTH 1000 0
DWIDTH 16 0
BBX 16 15 0 -1
BITMAP
03E0
0C18
100C
2002
4002
9189
9999
8991
8A51
8661
4662
6666
300C
1818
07E0
ENDCHAR
STARTCHAR 24E7
ENCODING 9447
SWIDTH 1000 0
DWIDTH 16 0
BBX 16 14 0 -1
BITMAP
07E0
1818
2004
4002
C422
8241
8181
8181
8241
4422
4002
2004
1818
07E0
ENDCHAR
STARTCHAR 24E8
ENCODING 9448
SWIDTH 1000 0
DWIDTH 16 0
BBX 16 15 0 -1
BITMAP
03E0
0C18
100C
2002
4432
8621
8261
8341
8141
8181
4082
6706
360C
1818
07E0
ENDCHAR
STARTCHAR 24E9
ENCODING 9449
SWIDTH 1000 0
DWIDTH 16 0
BBX 16 14 0 -1
BITMAP
07E0
1818
2004
4002
C7E2
8041
8081
8101
8601
47E2
4002
2004
1818
07E0
ENDCHAR
STARTCHAR 24EB
ENCODING 9451
SWIDTH 1000 0
DWIDTH 16 0
BBX 16 15 0 -1
BITMAP
07E0
0FF8
3FFC
73EE
63CE
F3EF
F3EF
F3EF
F3EF
F3EF
73EE
73EE
33EC
1FF8
07E0
ENDCHAR
STARTCHAR 24EC
ENCODING 9452
SWIDTH 1000 0
DWIDTH 16 0
BBX 15 15 0 -2
BITMAP
07C0
1FF0
3718
666C
76EC
F7EE
F7CE
F79E
F73E
F77E
76FC
760C
3FF8
1FF0
07C0
ENDCHAR
STARTCHAR 24ED
ENCODING 9453
SWIDTH 1000 0
DWIDTH 16 0
BBX 15 15 0 -1
BITMAP
07C0
0FF0
1FF8
371C
66EC
F7EE
F7EE
F71E
F7CE
F7EE
76EC
76EC
3718
1FF0
07C0
ENDCHAR
STARTCHAR 24EE
ENCODING 9454
SWIDTH 1000 0
DWIDTH 16 0
BBX 16 15 0 -1
BITMAP
07E0
0FF8
3FFC
67CE
67CE
F7AF
F72F
F66F
F6EF
F407
77EE
77EE
3FFC
1FF8
07E0
ENDCHAR
STARTCHAR 24EF
ENCODING 9455
SWIDTH 1000 0
DWIDTH 16 0
BBX 15 15 0 -1
BITMAP
07C0
0FF0
1FF8
360C
66FC
F6FE
F68E
F6C6
F7E6
F7E6
76E4
76CC
3718
1FF0
07C0
ENDCHAR
STARTCHAR 24F0
ENCODING 9456
SWIDTH 1000 0
DWIDTH 16 0
BBX 15 15 0 -1
BITMAP
07C0
0FF0
1FF8
379C
676C
F6FE
F6FE
F61E
F6EE
F6EE
76EC
766C
3718
1FF0
07C0
ENDCHAR
STARTCHAR 24F1
ENCODING 9457
SWIDTH 1000 0
DWIDTH 16 0
BBX 15 15 0 -1
BITMAP
07C0
0FF0
1FF8
360C
67EC
F7DE
F7DE
F79E
F7BE
F7BE
773C
773C
3778
1FF0
07C0
ENDCHAR
STARTCHAR 24F2
ENCODING 9458
SWIDTH 1000 0
DWIDTH 16 0
BBX 15 15 0 -1
BITMAP
07C0
0FF0
1FF8
371C
66EC
F6EE
F6EE
F71E
F66E
F4E6
74E4
74E4
3608
1FF0
07C0
ENDCHAR
STARTCHAR 24F3
ENCODING 9459
SWIDTH 1000 0
DWIDTH 16 0
BBX 15 15 0 -1
BITMAP
07C0
0FF0
1FF8
371C
66EC
F6EE
F6EE
F6EE
F70E
F7EE
76EC
76DC
3718
1FF0
07C0
ENDCHAR
STARTCHAR 24F4
ENCODING 9460
SWIDTH 1000 0
DWIDTH 16 0
BBX 16 15 0 -2
BITMAP
07E0
1FF8
31CC
66B6
6EB6
EEB7
FDB7
F9B7
F3B7
F7B7
67B6
60CE
3FFC
1FF8
07E0
ENDCHAR
STARTCHAR 24F5
ENCODING 9461
SWIDTH 1000 0
DWIDTH 16 0
BBX 15 16 1 -2
BITMAP
07C0
1820
3790
7868
6314
A512
C10A
C10A
C10A
C10A
A112
6114
5968
2788
1830
07C0
ENDCHAR
STARTCHAR 24F6
ENCODING 9462
SWIDTH 1000 0
DWIDTH 16 0
BBX 16 15 0 -2
BITMAP
07E0
1BD8
3DFC
522A
542A
A025
A045
A185
A305
9609
57EA
6C34
33C8
1810
07E0
ENDCHAR
STARTCHAR 24F7
ENCODING 9463
SWIDTH 1000 0
DWIDTH 16 0
BBX 16 16 0 -2
BITMAP
07C0
1830
33C8
6C34
53CA
942A
A025
A1C5
A045
A025
9429
566A
6FF4
33C8
1810
07E0
ENDCHAR
STARTCHAR 24F8
ENCODING 9464
SWIDTH 1000 0
DWIDTH 16 0
BBX 15 16 1 -2
BITMAP
07C0
1FF0
3838
709C
618C
C286
C686
C486
C886
DFE6
A08A
709C
5838
27D8
1830
07C0
ENDCHAR
STARTCHAR 24F9
ENCODING 9465
SWIDTH 1000 0
DWIDTH 16 0
BBX 16 15 0 -2
BITMAP
07E0
1BD8
3C3C
53EA
520A
A205
A7C5
A625
A025
9629
53CA
6C34
33C8
1810
07E0
ENDCHAR
STARTCHAR 24FA
ENCODING 9466
SWIDTH 1000 0
DWIDTH 16 0
BBX 16 16 0 -2
BITMAP
07C0
1830
33C8
6C34
53CA
922A
A405
A5C5
A665
A425
9429
526A
6FF4
33C8
1810
07E0
ENDCHAR
STARTCHAR 24FB
ENCODING 9467
SWIDTH 1000 0
DWIDTH 16 0
BBX 16 16 0 -2
BITMAP
07E0
1810
33C8
6C34
57EA
9069
A045
A045
A085
A085
918A
510A
6D34
33C8
1810
07E0
ENDCHAR
STARTCHAR 24FC
ENCODING 9468
SWIDTH 1000 0
DWIDTH 16 0
BBX 16 16 0 -2
BITMAP
07C0
1830
33C8
6C34
53CA
942A
A425
A3C5
A245
A425
9429
566A
6FF4
33C8
1810
07E0
ENDCHAR
STARTCHAR 24FD
ENCODING 9469
SWIDTH 1000 0
DWIDTH 16 0
BBX 16 16 0 -2
BITMAP
07C0
1830
33C8
6C34
53CA
964A
A425
A465
A3E5
A025
9629
524A
6FF4
33C8
1810
07E0
ENDCHAR
STARTCHAR 24FE
ENCODING 9470
SWIDTH 1000 0
DWIDTH 16 0
BBX 15 16 0 -2
BITMAP
07C0
1830
33D8
6C3C
54EC
9DBA
A516
A516
A516
A516
95BA
54EC
6C34
33C8
1830
07C0
ENDCHAR
STARTCHAR 2500
ENCODING 9472
SWIDTH 1000 0
DWIDTH 16 0
BBX 16 1 0 5
BITMAP
FFFF
ENDCHAR
STARTCHAR 2501
ENCODING 9473
SWIDTH 1000 0
DWIDTH 16 0
BBX 16 2 0 5
BITMAP
FFFF
FFFF
ENDCHAR
STARTCHAR 2502
ENCODING 9474
SWIDTH 1000 0
DWIDTH 16 0
BBX 1 16 8 -1
BITMAP
80
80
80
80
80
80
80
80
80
80
80
80
80
80
80
80
ENDCHAR
STARTCHAR 2503
ENCODING 9475
SWIDTH 1000 0
DWIDTH 16 0
BBX 2 16 7 -2
BITMAP
C0
C0
C0
C0
C0
C0
C0
C0
C0
C0
C0
C0
C0
C0
C0
C0
ENDCHAR
STARTCHAR 250C
ENCODING 9484
SWIDTH 1000 0
DWIDTH 16 0
BBX 9 9 8 -3
BITMAP
FF80
8000
8000
8000
8000
8000
8000
8000
8000
ENDCHAR
STARTCHAR 250F
ENCODING 9487
SWIDTH 1000 0
DWIDTH 16 0
BBX 9 9 7 -2
BITMAP
FF80
FF80
C000
C000
C000
C000
C000
C000
C000
ENDCHAR
STARTCHAR 2510
ENCODING 9488
SWIDTH 1000 0
DWIDTH 16 0
BBX 9 9 -1 -3
BITMAP
FF80
0080
0080
0080
0080
0080
0080
0080
0080
ENDCHAR
STARTCHAR 2513
ENCODING 9491
SWIDTH 1000 0
DWIDTH 16 0
BBX 9 9 0 -2
BITMAP
FF80
FF80
0180
0180
0180
0180
0180
0180
0180
ENDCHAR
STARTCHAR 2514
ENCODING 9492
SWIDTH 1000 0
DWIDTH 16 0
BBX 9 9 8 5
BITMAP
8000
8000
8000
8000
8000
8000
8000
8000
FF80
ENDCHAR
STARTCHAR 2517
ENCODING 9495
SWIDTH 1000 0
DWIDTH 16 0
BBX 9 9 7 5
BITMAP
C000
C000
C000
C000
C000
C000
C000
FF80
FF80
ENDCHAR
STARTCHAR 2518
ENCODING 9496
SWIDTH 1000 0
DWIDTH 16 0
BBX 9 9 -1 5
BITMAP
0080
0080
0080
0080
0080
0080
0080
0080
FF80
ENDCHAR
STARTCHAR 251B
ENCODING 9499
SWIDTH 1000 0
DWIDTH 16 0
BBX 9 9 0 5
BITMAP
0180
0180
0180
0180
0180
0180
0180
FF80
FF80
ENDCHAR
STARTCHAR 251C
ENCODING 9500
SWIDTH 1000 0
DWIDTH 16 0
BBX 9 17 8 -3
BITMAP
8000
8000
8000
8000
8000
8000
8000
8000
FF80
8000
8000
8000
8000
8000
8000
8000
8000
ENDCHAR
STARTCHAR 251D
ENCODING 9501
SWIDTH 1000 0
DWIDTH 16 0
BBX 8 16 8 -2
BITMAP
80
80
80
80
80
80
80
FF
FF
80
80
80
80
80
80
80
ENDCHAR
STARTCHAR 2520
ENCODING 9504
SWIDTH 1000 0
DWIDTH 16 0
BBX 9 16 7 -2
BITMAP
C000
C000
C000
C000
C000
C000
C000
C000
FF80
C000
C000
C000
C000
C000
C000
C000
ENDCHAR
STARTCHAR 2523
ENCODING 9507
SWIDTH 1000 0
DWIDTH 16 0
BBX 9 16 7 -2
BITMAP
C000
C000
C000
C000
C000
C000
C000
FF80
FF80
C000
C000
C000
C000
C000
C000
C000
ENDCHAR
STARTCHAR 2524
ENCODING 9508
SWIDTH 1000 0
DWIDTH 16 0
BBX 9 17 -1 -3
BITMAP
0080
0080
0080
0080
0080
0080
0080
0080
FF80
0080
0080
0080
0080
0080
0080
0080
0080
ENDCHAR
STARTCHAR 2525
ENCODING 9509
SWIDTH 1000 0
DWIDTH 16 0
BBX 8 16 0 -2
BITMAP
01
01
01
01
01
01
01
FF
FF
01
01
01
01
01
01
01
ENDCHAR
STARTCHAR 2528
ENCODING 9512
SWIDTH 1000 0
DWIDTH 16 0
BBX 9 16 0 -2
BITMAP
0180
0180
0180
0180
0180
0180
0180
0180
FF80
0180
0180
0180
0180
0180
0180
0180
ENDCHAR
STARTCHAR 252B
ENCODING 9515
SWIDTH 1000 0
DWIDTH 16 0
BBX 9 16 0 -2
BITMAP
0180
0180
0180
0180
0180
0180
0180
FF80
FF80
0180
0180
0180
0180
0180
0180
0180
ENDCHAR
STARTCHAR 252C
ENCODING 9516
SWIDTH 1000 0
DWIDTH 16 0
BBX 17 9 0 -3
BITMAP
FFFF80
008000
008000
008000
008000
008000
008000
008000
008000
ENDCHAR
STARTCHAR 252F
ENCODING 9519
SWIDTH 1000 0
DWIDTH 16 0
BBX 16 9 0 -3
BITMAP
FFFF
FFFF
0080
0080
0080
0080
0080
0080
0080
ENDCHAR
STARTCHAR 2530
ENCODING 9520
SWIDTH 1000 0
DWIDTH 16 0
BBX 16 8 0 -2
BITMAP
FFFF
0180
0180
0180
0180
0180
0180
0180
ENDCHAR
STARTCHAR 2533
ENCODING 9523
SWIDTH 1000 0
DWIDTH 16 0
BBX 16 9 0 -2
BITMAP
FFFF
FFFF
0180
0180
0180
0180
0180
0180
0180
ENDCHAR
STARTCHAR 2534
ENCODING 9524
SWIDTH 1000 0
DWIDTH 16 0
BBX 17 9 0 5
BITMAP
008000
008000
008000
008000
008000
008000
008000
008000
FFFF80
ENDCHAR
STARTCHAR 2537
ENCODING 9527
SWIDTH 1000 0
DWIDTH 16 0
BBX 16 9 0 6
BITMAP
0080
0080
0080
0080
0080
0080
0080
FFFF
FFFF
ENDCHAR
STARTCHAR 2538
ENCODING 9528
SWIDTH 1000 0
DWIDTH 16 0
BBX 16 9 0 5
BITMAP
0180
0180
0180
0180
0180
0180
0180
0180
FFFF
ENDCHAR
STARTCHAR 253B
ENCODING 9531
SWIDTH 1000 0
DWIDTH 16 0
BBX 16 9 0 5
BITMAP
0180
0180
0180
0180
0180
0180
0180
FFFF
FFFF
ENDCHAR
STARTCHAR 253C
ENCODING 9532
SWIDTH 1000 0
DWIDTH 16 0
BBX 17 17 0 -3
BITMAP
008000
008000
008000
008000
008000
008000
008000
008000
FFFF80
008000
008000
008000
008000
008000
008000
008000
008000
ENDCHAR
STARTCHAR 253F
ENCODING 9535
SWIDTH 1000 0
DWIDTH 16 0
BBX 16 16 0 -2
BITMAP
0080
0080
0080
0080
0080
0080
0080
FFFF
FFFF
0080
0080
0080
0080
0080
0080
0080
ENDCHAR
STARTCHAR 2542
ENCODING 9538
SWIDTH 1000 0
DWIDTH 16 0
BBX 16 16 0 -2
BITMAP
0180
0180
0180
0180
0180
0180
0180
0180
FFFF
0180
0180
0180
0180
0180
0180
0180
ENDCHAR
STARTCHAR 254B
ENCODING 9547
SWIDTH 1000 0
DWIDTH 16 0
BBX 16 16 0 -2
BITMAP
0180
0180
0180
0180
0180
0180
0180
FFFF
FFFF
0180
0180
0180
0180
0180
0180
0180
ENDCHAR
STARTCHAR 25A0
ENCODING 9632
SWIDTH 1000 0
DWIDTH 16 0
BBX 12 12 2 0
BITMAP
FFF0
FFF0
FFF0
FFF0
FFF0
FFF0
FFF0
FFF0
FFF0
FFF0
FFF0
FFF0
ENDCHAR
STARTCHAR 25A1
ENCODING 9633
SWIDTH 1000 0
DWIDTH 16 0
BBX 12 12 2 0
BITMAP
FFF0
8010
8010
8010
8010
8010
8010
8010
8010
8010
8010
FFF0
ENDCHAR
STARTCHAR 25B1
ENCODING 9649
SWIDTH 1000 0
DWIDTH 16 0
BBX 14 6 1 3
BITMAP
3FFC
2004
6008
4018
8010
FFF0
ENDCHAR
STARTCHAR 25B2
ENCODING 9650
SWIDTH 1000 0
DWIDTH 16 0
BBX 12 12 2 1
BITMAP
0400
0600
0600
0F00
1F80
1F80
3FC0
3FC0
7FE0
7FE0
FFF0
FFF0
ENDCHAR
STARTCHAR 25B3
ENCODING 9651
SWIDTH 1000 0
DWIDTH 16 0
BBX 12 12 2 1
BITMAP
0400
0600
0600
0900
0980
1080
30C0
2040
6060
4020
C030
FFF0
ENDCHAR
STARTCHAR 25B6
ENCODING 9654
SWIDTH 1000 0
DWIDTH 16 0
BBX 12 12 2 0
BITMAP
C000
F000
FC00
FF00
FFC0
FFF0
FFE0
FF80
FE00
F800
F000
C000
ENDCHAR
STARTCHAR 25B7
ENCODING 9655
SWIDTH 1000 0
DWIDTH 16 0
BBX 12 12 2 0
BITMAP
C000
F000
9C00
8700
81C0
8060
8070
8180
8600
9800
F000
C000
ENDCHAR
STARTCHAR 25BC
ENCODING 9660
SWIDTH 1000 0
DWIDTH 16 0
BBX 12 12 2 -1
BITMAP
FFF0
FFF0
7FE0
7FE0
3FC0
3FC0
1F80
1F80
0F00
0600
0600
0400
ENDCHAR
STARTCHAR 25BD
ENCODING 9661
SWIDTH 1000 0
DWIDTH 16 0
BBX 12 12 2 -1
BITMAP
FFF0
C030
4020
6060
2040
30C0
1080
0980
0900
0600
0600
0400
ENDCHAR
STARTCHAR 25C0
ENCODING 9664
SWIDTH 1000 0
DWIDTH 16 0
BBX 12 12 2 0
BITMAP
0030
00F0
03F0
0FF0
3FF0
FFF0
7FF0
1FF0
07F0
01F0
00F0
0030
ENDCHAR
STARTCHAR 25C1
ENCODING 9665
SWIDTH 1000 0
DWIDTH 16 0
BBX 12 12 2 0
BITMAP
0030
00F0
0390
0E10
3810
6010
E010
1810
0610
0190
00F0
0030
ENDCHAR
STARTCHAR 25C6
ENCODING 9670
SWIDTH 1000 0
DWIDTH 16 0
BBX 14 14 1 -1
BITMAP
0300
0780
0FC0
1FE0
3FF0
7FF8
FFFC
FFFC
7FF8
3FF0
1FE0
0FC0
0780
0300
ENDCHAR
STARTCHAR 25C7
ENCODING 9671
SWIDTH 1000 0
DWIDTH 16 0
BBX 14 14 1 -1
BITMAP
0300
0780
0CC0
1860
3030
6018
C00C
C00C
6018
3030
1860
0CC0
0780
0300
ENDCHAR
STARTCHAR 25C9
ENCODING 9673
SWIDTH 1000 0
DWIDTH 16 0
BBX 14 14 1 -1
BITMAP
0FC0
1860
2010
4788
CFC4
9FE4
9FE4
9FE4
9FE4
CFCC
4798
2030
1060
0FC0
ENDCHAR
STARTCHAR 25CB
ENCODING 9675
SWIDTH 1000 0
DWIDTH 16 0
BBX 14 14 1 -1
BITMAP
0FC0
1860
2010
4008
C00C
8004
8004
8004
8004
C00C
4008
2010
1860
0FC0
ENDCHAR
STARTCHAR 25CE
ENCODING 9678
SWIDTH 1000 0
DWIDTH 16 0
BBX 14 14 1 -1
BITMAP
0FC0
1860
2010
4788
C844
9024
9024
9024
9024
C84C
4798
2030
1060
0FC0
ENDCHAR
STARTCHAR 25CF
ENCODING 9679
SWIDTH 1000 0
DWIDTH 16 0
BBX 13 13 1 -1
BITMAP
0F80
3FE0
7FF0
7FF0
FFF8
FFF8
FFF8
FFF8
FFF8
7FF0
7FF0
3FE0
0F80
ENDCHAR
STARTCHAR 25D0
ENCODING 9680
SWIDTH 1000 0
DWIDTH 16 0
BBX 14 14 1 -1
BITMAP
0FC0
1E60
3E10
7E08
FE0C
FE04
FE04
FE04
FE04
FE0C
7E08
3E30
1EE0
0FC0
ENDCHAR
STARTCHAR 25D1
ENCODING 9681
SWIDTH 1000 0
DWIDTH 16 0
BBX 14 14 1 -1
BITMAP
0FC0
19E0
21F0
41F8
C1FC
81FC
81FC
81FC
81FC
C1FC
41F8
31F0
1DE0
0FC0
ENDCHAR
STARTCHAR 25D2
ENCODING 9682
SWIDTH 1000 0
DWIDTH 16 0
BBX 14 14 1 -1
BITMAP
07C0
1860
2010
4008
400C
C00C
8004
FFFC
FFFC
FFFC
7FF8
3FF0
1FE0
0FC0
ENDCHAR
STARTCHAR 25D3
ENCODING 9683
SWIDTH 1000 0
DWIDTH 16 0
BBX 14 14 1 -1
BITMAP
0FC0
1FE0
3FF0
7FF8
FFFC
FFFC
FFFC
8004
C00C
C00C
4008
2010
1860
0FC0
ENDCHAR
STARTCHAR 25E6
ENCODING 9702
SWIDTH 1000 0
DWIDTH 16 0
BBX 6 6 5 3
BITMAP
78
CC
84
84
CC
78
ENDCHAR
STARTCHAR 25EF
ENCODING 9711
SWIDTH 1000 0
DWIDTH 16 0
BBX 16 15 0 -1
BITMAP
03E0
0C18
100C
2002
4002
8001
8001
8001
8001
8001
4002
6006
300C
1818
07E0
ENDCHAR
STARTCHAR 2600
ENCODING 9728
SWIDTH 1000 0
DWIDTH 16 0
BBX 15 15 1 -2
BITMAP
0100
0100
2108
1010
0780
0FC0
1FE0
FFEE
1FE0
1FE0
0FE0
1790
2108
0100
0100
ENDCHAR
STARTCHAR 2601
ENCODING 9729
SWIDTH 1000 0
DWIDTH 16 0
BBX 14 11 1 -1
BITMAP
0F00
1F80
1FD8
1FFC
3FFC
7FFC
FFF8
FFFC
FDFC
78F8
0070
ENDCHAR
STARTCHAR 2602
ENCODING 9730
SWIDTH 1000 0
DWIDTH 16 0
BBX 15 14 1 -1
BITMAP
0100
0FE0
3FF8
7FFC
7FFC
9112
0100
0100
0100
0100
0100
0100
0900
0700
ENDCHAR
STARTCHAR 2603
ENCODING 9731
SWIDTH 1000 0
DWIDTH 16 0
BBX 14 14 1 0
BITMAP
82CC
3120
0210
4E14
11E4
2010
A490
14A4
2324
C018
8208
8008
8208
4010
ENDCHAR
STARTCHAR 2605
ENCODING 9733
SWIDTH 1000 0
DWIDTH 16 0
BBX 12 14 2 0
BITMAP
0400
0600
0600
0600
0F00
FFF0
7FE0
3FC0
1F80
1F80
3FC0
30C0
2040
4020
ENDCHAR
STARTCHAR 2606
ENCODING 9734
SWIDTH 1000 0
DWIDTH 16 0
BBX 12 14 2 -1
BITMAP
0400
0600
0600
0600
0900
F9F0
4020
2040
1080
1080
2640
39C0
2040
4020
ENDCHAR
STARTCHAR 260E
ENCODING 9742
SWIDTH 1000 0
DWIDTH 16 0
BBX 14 12 1 0
BITMAP
7FF8
FFFC
E85C
CFCC
1FE0
1860
3030
3030
7038
F87C
FFFC
FFFC
ENDCHAR
STARTCHAR 2616
ENCODING 9750
SWIDTH 1000 0
DWIDTH 16 0
BBX 12 12 2 1
BITMAP
0F00
30C0
6060
4020
C020
8010
8010
8010
8010
8010
8010
FFF0
ENDCHAR
STARTCHAR 2617
ENCODING 9751
SWIDTH 1000 0
DWIDTH 16 0
BBX 12 13 2 0
BITMAP
0600
0F00
3FC0
7FE0
7FE0
FFE0
FFF0
FFF0
FFF0
FFF0
FFF0
FFF0
FFF0
ENDCHAR
STARTCHAR 261E
ENCODING 9758
SWIDTH 1000 0
DWIDTH 16 0
BBX 14 7 1 3
BITMAP
67FC
9884
A378
BDA0
A160
B9C0
E7C0
ENDCHAR
STARTCHAR 2640
ENCODING 9792
SWIDTH 1000 0
DWIDTH 16 0
BBX 9 14 3 -2
BITMAP
1C00
2200
4100
4100
4100
6300
3E00
0800
0800
FF80
0800
0800
0800
0800
ENDCHAR
STARTCHAR 2642
ENCODING 9794
SWIDTH 1000 0
DWIDTH 16 0
BBX 13 12 1 0
BITMAP
01F8
0018
0028
0048
0088
3900
4600
8200
8200
8200
4400
3800
ENDCHAR
STARTCHAR 2660
ENCODING 9824
SWIDTH 1000 0
DWIDTH 16 0
BBX 12 14 2 -1
BITMAP
0600
0F00
1F80
1F80
3FC0
7FE0
FFF0
FFF0
FFF0
FFF0
7AE0
0200
0600
0700
ENDCHAR
STARTCHAR 2661
ENCODING 9825
SWIDTH 1000 0
DWIDTH 16 0
BBX 12 14 2 -2
BITMAP
79E0
4620
8410
8010
8010
8010
4020
4020
2040
2040
1080
0900
0600
0400
ENDCHAR
STARTCHAR 2662
ENCODING 9826
SWIDTH 1000 0
DWIDTH 16 0
BBX 12 14 2 -1
BITMAP
0600
0900
1080
1080
2040
4020
8010
4020
4020
2040
1080
0900
0900
0600
ENDCHAR
STARTCHAR 2663
ENCODING 9827
SWIDTH 1000 0
DWIDTH 16 0
BBX 14 14 1 -2
BITMAP
0780
0FC0
0FC0
0FC0
0FC0
7FF8
FFFC
FFFC
FFFC
FEFC
7A78
0200
0300
0700
ENDCHAR
STARTCHAR 2664
ENCODING 9828
SWIDTH 1000 0
DWIDTH 16 0
BBX 12 14 2 -1
BITMAP
0600
0900
1080
3080
2040
4020
C020
8010
8010
8610
CF30
76E0
0900
0F00
ENDCHAR
STARTCHAR 2665
ENCODING 9829
SWIDTH 1000 0
DWIDTH 16 0
BBX 12 13 2 -1
BITMAP
70E0
F9F0
FFF0
FFF0
FFF0
FFF0
7FE0
7FE0
3FC0
1FC0
1F80
0F00
0600
ENDCHAR
STARTCHAR 2666
ENCODING 9830
SWIDTH 1000 0
DWIDTH 16 0
BBX 12 14 2 -1
BITMAP
0600
0F00
1F80
1F80
3FC0
7FE0
FFF0
7FE0
7FE0
3FC0
1F80
0F00
0F00
0600
ENDCHAR
STARTCHAR 2667
ENCODING 9831
SWIDTH 1000 0
DWIDTH 16 0
BBX 14 14 1 -2
BITMAP
0780
0CC0
0840
0840
0840
7CF8
C00C
8004
8004
C30C
7FF8
0300
0480
0780
ENDCHAR
STARTCHAR 2668
ENCODING 9832
SWIDTH 1000 0
DWIDTH 16 0
BBX 14 12 1 1
BITMAP
1200
1240
1240
1240
1360
0920
0920
4928
9124
8204
6018
1FE0
ENDCHAR
STARTCHAR 2669
ENCODING 9833
SWIDTH 1000 0
DWIDTH 16 0
BBX 5 14 4 -1
BITMAP
08
08
08
08
08
08
08
08
08
08
78
F8
F8
70
ENDCHAR
STARTCHAR 266A
ENCODING 9834
SWIDTH 1000 0
DWIDTH 16 0
BBX 10 14 3 -1
BITMAP
0800
0C00
0E00
0B00
0880
0840
0840
0840
0880
0880
7800
F800
F800
7000
ENDCHAR
STARTCHAR 266B
ENCODING 9835
SWIDTH 1000 0
DWIDTH 16 0
BBX 12 14 1 0
BITMAP
01F0
0FF0
0E10
0810
0810
0810
0810
0810
0810
08F0
09F0
79E0
F800
F000
ENDCHAR
STARTCHAR 266C
ENCODING 9836
SWIDTH 1000 0
DWIDTH 16 0
BBX 12 14 1 0
BITMAP
01F0
0FF0
0E10
09F0
0FF0
0E10
0810
0810
0810
08F0
09F0
79E0
F800
F000
ENDCHAR
STARTCHAR 266D
ENCODING 9837
SWIDTH 1000 0
DWIDTH 16 0
BBX 6 13 6 -1
BITMAP
80
80
80
80
80
B8
C4
84
84
88
88
B0
C0
ENDCHAR
STARTCHAR 266E
ENCODING 9838
SWIDTH 1000 0
DWIDTH 16 0
BBX 4 14 6 -1
BITMAP
80
80
80
90
F0
D0
90
90
F0
D0
10
10
10
10
ENDCHAR
STARTCHAR 266F
ENCODING 9839
SWIDTH 1000 0
DWIDTH 16 0
BBX 10 14 3 -1
BITMAP
0100
2100
2100
21C0
FF80
A100
2100
2100
21C0
FF00
A100
2100
2100
2000
ENDCHAR
STARTCHAR 2713
ENCODING 10003
SWIDTH 1000 0
DWIDTH 16 0
BBX 10 10 4 2
BITMAP
00C0
0080
0100
0200
0200
8400
8800
5000
6000
2000
ENDCHAR
STARTCHAR 2756
ENCODING 10070
SWIDTH 1000 0
DWIDTH 16 0
BBX 14 14 1 -1
BITMAP
0300
0780
0FC0
0FC0
37B0
7B78
FCFC
FCFC
7B78
37B0
0FC0
0FC0
0780
0300
ENDCHAR
STARTCHAR 2776
ENCODING 10102
SWIDTH 1000 0
DWIDTH 16 0
BBX 15 15 1 -1
BITMAP
07C0
1FF0
3FF8
7CFC
78FC
FEFE
FEFE
FEFE
FEFE
FEFE
7EFC
7EFC
3EF8
1FF0
07C0
ENDCHAR
STARTCHAR 2777
ENCODING 10103
SWIDTH 1000 0
DWIDTH 16 0
BBX 16 16 0 -2
BITMAP
07E0
1FF8
3C3C
799E
7BDE
FBDF
FF9F
FF3F
FEFF
FDFF
FBFF
780E
780E
3FFC
1FF8
07E0
ENDCHAR
STARTCHAR 2778
ENCODING 10104
SWIDTH 1000 0
DWIDTH 16 0
BBX 16 15 0 -1
BITMAP
03E0
0FF8
1FFC
3C3E
7BDE
FFDF
FFDF
FE3F
FF9F
FFCF
73CE
7B8E
3C3C
1FF8
07E0
ENDCHAR
STARTCHAR 2779
ENCODING 10105
SWIDTH 1000 0
DWIDTH 16 0
BBX 15 16 1 -2
BITMAP
07C0
1FF0
3F78
7E7C
7C7C
FD7E
FB7E
F37E
E77E
E01E
E01E
7F7C
7F7C
3FF8
1FF0
07C0
ENDCHAR
STARTCHAR 277A
ENCODING 10106
SWIDTH 1000 0
DWIDTH 16 0
BBX 16 15 0 -1
BITMAP
03E0
0FF8
1FFC
381E
7BFE
FBFF
FA3F
F99F
FFCF
FFCF
7BCE
799E
3C3C
1FF8
07E0
ENDCHAR
STARTCHAR 277B
ENCODING 10107
SWIDTH 1000 0
DWIDTH 16 0
BBX 16 15 0 -1
BITMAP
03E0
0FF8
1FFC
3E3E
7DDE
FBFF
FA3F
F81F
F98F
FBCF
7BCE
7D9E
3E3C
1FF8
07E0
ENDCHAR
STARTCHAR 277C
ENCODING 10108
SWIDTH 1000 0
DWIDTH 16 0
BBX 16 15 0 -1
BITMAP
07E0
0FF8
3FFC
781E
781E
FFDF
FF9F
FFBF
FF3F
FF7F
7E7E
7EFE
3EFC
1FF8
07E0
ENDCHAR
STARTCHAR 277D
ENCODING 10109
SWIDTH 1000 0
DWIDTH 16 0
BBX 16 15 0 -1
BITMAP
03E0
0FF8
1FFC
3C3E
7BDE
FBDF
FBDF
FC3F
F99F
F3CF
73CE
718E
3C3C
1FF8
07E0
ENDCHAR
STARTCHAR 277E
ENCODING 10110
SWIDTH 1000 0
DWIDTH 16 0
BBX 16 15 0 -1
BITMAP
03E0
0FF8
1FFC
3C3E
799E
FBCF
FBCF
F98F
FC0F
FFCF
7BCE
799E
3C3C
1FF8
07E0
ENDCHAR
STARTCHAR 277F
ENCODING 10111
SWIDTH 1000 0
DWIDTH 16 0
BBX 15 15 0 -1
BITMAP
07C0
0FF0
1FF8
371C
674C
F6E6
F6E6
F6E6
F6E6
F6E6
76E4
774C
3718
1FF0
07C0
ENDCHAR
STARTCHAR 2934
ENCODING 10548
SWIDTH 1000 0
DWIDTH 16 0
BBX 13 12 2 1
BITMAP
0040
00E0
01D0
0148
0040
0040
0040
0040
0040
00C0
0180
FF00
ENDCHAR
STARTCHAR 2935
ENCODING 10549
SWIDTH 1000 0
DWIDTH 16 0
BBX 13 12 2 -1
BITMAP
FF00
0180
00C0
0040
0040
0040
0040
0040
0148
01D0
00E0
0040
ENDCHAR
STARTCHAR 29BF
ENCODING 10687
SWIDTH 1000 0
DWIDTH 16 0
BBX 14 14 1 -1
BITMAP
07C0
1860
2010
4008
400C
8304
8784
8784
8304
C00C
4008
2010
1860
0FC0
ENDCHAR
STARTCHAR 29FA
ENCODING 10746
SWIDTH 687 0
DWIDTH 11 0
BBX 8 9 1 0
BITMAP
24
24
24
24
FF
24
24
24
24
ENDCHAR
STARTCHAR 29FB
ENCODING 10747
SWIDTH 687 0
DWIDTH 11 0
BBX 9 9 1 0
BITMAP
2A00
2A00
2A00
2A00
FF80
2A00
2A00
2A00
2A00
ENDCHAR
STARTCHAR 2E83
ENCODING 11907
SWIDTH 1000 0
DWIDTH 16 0
BBX 10 12 4 1
BITMAP
8000
8000
8000
8000
8000
8000
8000
8000
8040
8040
80C0
FF80
ENDCHAR
STARTCHAR 2E85
ENCODING 11909
SWIDTH 1000 0
DWIDTH 16 0
BBX 7 14 4 -2
BITMAP
02
02
04
08
18
38
68
88
08
08
08
08
08
08
ENDCHAR
STARTCHAR 2E87
ENCODING 11911
SWIDTH 1000 0
DWIDTH 16 0
BBX 15 13 1 -2
BITMAP
3FF0
2010
2010
2010
2010
2010
2010
2010
2010
2016
400C
400C
800C
ENDCHAR
STARTCHAR 2E89
ENCODING 11913
SWIDTH 1000 0
DWIDTH 16 0
BBX 6 13 5 0
BITMAP
84
84
84
84
84
84
84
84
84
04
04
04
3C
ENDCHAR
STARTCHAR 2E8E
ENCODING 11918
SWIDTH 1000 0
DWIDTH 16 0
BBX 15 12 1 -2
BITMAP
FFFC
0840
0840
0840
0840
0840
0840
0840
1046
3046
6044
C07C
ENDCHAR
STARTCHAR 2E8F
ENCODING 11919
SWIDTH 1000 0
DWIDTH 16 0
BBX 13 13 1 0
BITMAP
08C0
1060
3030
2010
4888
0880
0880
0880
0880
0888
1088
6088
C0F8
ENDCHAR
STARTCHAR 2E90
ENCODING 11920
SWIDTH 1000 0
DWIDTH 16 0
BBX 12 14 2 -2
BITMAP
0400
0400
0400
0400
FFF0
0600
0600
0600
0A00
0A00
1A10
3210
6210
C3F0
ENDCHAR
STARTCHAR 2E92
ENCODING 11922
SWIDTH 1000 0
DWIDTH 16 0
BBX 13 13 2 -1
BITMAP
FFE0
8020
8020
8020
8020
FFE0
8020
8000
8000
8018
8018
8010
7FF0
ENDCHAR
STARTCHAR 2E93
ENCODING 11923
SWIDTH 1000 0
DWIDTH 16 0
BBX 12 12 2 0
BITMAP
0400
0C00
0840
D080
6180
1300
0A00
0C80
0840
1020
3FF0
F810
ENDCHAR
STARTCHAR 2E94
ENCODING 11924
SWIDTH 1000 0
DWIDTH 16 0
BBX 14 12 1 1
BITMAP
0800
1800
1FE0
1020
1020
1020
3FE0
2020
2060
0060
0040
FFFC
ENDCHAR
STARTCHAR 2E96
ENCODING 11926
SWIDTH 1000 0
DWIDTH 16 0
BBX 7 14 4 -1
BITMAP
10
10
10
54
54
54
52
D0
10
10
10
10
10
10
ENDCHAR
STARTCHAR 2E97
ENCODING 11927
SWIDTH 1000 0
DWIDTH 16 0
BBX 13 14 1 -1
BITMAP
0800
0800
0800
0800
4A20
4B30
4910
C998
8888
8888
8800
0800
0800
7800
ENDCHAR
STARTCHAR 2E98
ENCODING 11928
SWIDTH 1000 0
DWIDTH 16 0
BBX 7 14 4 0
BITMAP
10
10
10
FE
10
10
10
3E
F0
10
10
10
10
70
ENDCHAR
STARTCHAR 2E99
ENCODING 11929
SWIDTH 1000 0
DWIDTH 16 0
BBX 12 14 2 -2
BITMAP
1000
1000
1000
3FF0
20C0
6080
D080
9980
0900
0600
0700
0DC0
3070
C010
ENDCHAR
STARTCHAR 2E9B
ENCODING 11931
SWIDTH 1000 0
DWIDTH 16 0
BBX 13 13 2 -2
BITMAP
7FF0
0100
2100
2300
2200
7FF8
4200
0700
0500
0D08
1908
3108
C1F8
ENDCHAR
STARTCHAR 2E9E
ENCODING 11934
SWIDTH 1000 0
DWIDTH 16 0
BBX 12 15 2 -1
BITMAP
0200
0200
03F0
0200
0A00
1FE0
3060
7040
C880
8780
0300
0600
1C00
7000
4000
ENDCHAR
STARTCHAR 2E9F
ENCODING 11935
SWIDTH 1000 0
DWIDTH 16 0
BBX 14 13 1 -1
BITMAP
3FF0
2010
2610
2190
2010
FFFC
2410
2610
6110
6010
7FFC
4030
00E0
ENDCHAR
STARTCHAR 2EA0
ENCODING 11936
SWIDTH 1000 0
DWIDTH 16 0
BBX 14 13 1 -1
BITMAP
3FF0
2010
2010
3FF0
2110
2100
3FFC
2080
2080
208C
2748
F828
0018
ENDCHAR
STARTCHAR 2EA1
ENCODING 11937
SWIDTH 1000 0
DWIDTH 16 0
BBX 5 13 6 0
BITMAP
C0
60
00
00
C0
60
00
18
10
20
60
C0
80
ENDCHAR
STARTCHAR 2EA3
ENCODING 11939
SWIDTH 1000 0
DWIDTH 16 0
BBX 12 5 2 3
BITMAP
4360
4920
4910
8990
8800
ENDCHAR
STARTCHAR 2EA4
ENCODING 11940
SWIDTH 1000 0
DWIDTH 16 0
BBX 11 7 2 3
BITMAP
0020
0FE0
F800
0820
4460
6440
2680
ENDCHAR
STARTCHAR 2EA6
ENCODING 11942
SWIDTH 1000 0
DWIDTH 16 0
BBX 6 14 4 -1
BITMAP
04
04
44
64
34
14
04
04
1C
E4
04
04
04
04
ENDCHAR
STARTCHAR 2EA8
ENCODING 11944
SWIDTH 1000 0
DWIDTH 16 0
BBX 6 14 4 -1
BITMAP
04
2C
38
10
68
C8
0C
14
34
64
84
04
0C
38
ENDCHAR
STARTCHAR 2EAA
ENCODING 11946
SWIDTH 1000 0
DWIDTH 16 0
BBX 8 12 4 -1
BITMAP
FF
02
0C
48
48
4F
48
48
48
4B
5E
F0
ENDCHAR
STARTCHAR 2EAB
ENCODING 11947
SWIDTH 1000 0
DWIDTH 16 0
BBX 12 7 2 3
BITMAP
FFF0
8910
8910
8910
8910
FFF0
8010
ENDCHAR
STARTCHAR 2EAD
ENCODING 11949
SWIDTH 1000 0
DWIDTH 16 0
BBX 9 14 4 -2
BITMAP
0800
0800
0800
7F00
0200
0600
0C00
1C00
3B00
C980
0800
0800
0800
0800
ENDCHAR
STARTCHAR 2EB2
ENCODING 11954
SWIDTH 1000 0
DWIDTH 16 0
BBX 12 7 2 3
BITMAP
FFF0
8910
8910
8910
8910
FFF0
8010
ENDCHAR
STARTCHAR 2EB9
ENCODING 11961
SWIDTH 1000 0
DWIDTH 16 0
BBX 14 12 1 1
BITMAP
0200
0218
3FD0
0230
0260
02C0
FFFC
0300
0600
1800
7000
C000
ENDCHAR
STARTCHAR 2EBD
ENCODING 11965
SWIDTH 1000 0
DWIDTH 16 0
BBX 12 13 2 0
BITMAP
1800
E3F0
8010
8010
8010
8010
F9F0
8010
8010
8010
8010
F9F0
8010
ENDCHAR
STARTCHAR 2EBE
ENCODING 11966
SWIDTH 1000 0
DWIDTH 16 0
BBX 14 5 1 6
BITMAP
0840
0840
FFFC
0840
0840
ENDCHAR
STARTCHAR 2EBF
ENCODING 11967
SWIDTH 1000 0
DWIDTH 16 0
BBX 14 5 1 6
BITMAP
1020
1020
FFFC
1020
1020
ENDCHAR
STARTCHAR 2EC0
ENCODING 11968
SWIDTH 1000 0
DWIDTH 16 0
BBX 14 5 1 5
BITMAP
0840
0840
F87C
0840
0840
ENDCHAR
STARTCHAR 2EC1
ENCODING 11969
SWIDTH 1000 0
DWIDTH 16 0
BBX 14 14 1 -1
BITMAP
0200
03F0
0200
7FFC
4204
5FE0
4208
43F8
4000
4640
4440
4444
8C44
B07C
ENDCHAR
STARTCHAR 2EC2
ENCODING 11970
SWIDTH 1000 0
DWIDTH 16 0
BBX 9 14 3 -2
BITMAP
0800
0800
0800
7F00
0300
0200
0400
0900
3E00
CB00
8880
0800
0800
0800
ENDCHAR
STARTCHAR 2EC3
ENCODING 11971
SWIDTH 1000 0
DWIDTH 16 0
BBX 14 8 1 3
BITMAP
FFFC
0480
0480
7FF8
4488
4488
7FF8
4008
ENDCHAR
STARTCHAR 2EC4
ENCODING 11972
SWIDTH 1000 0
DWIDTH 16 0
BBX 14 13 1 -2
BITMAP
FFFC
0480
0480
7FF8
4488
4488
4C98
4898
70E8
4008
4008
7FF8
4008
ENDCHAR
STARTCHAR 2ECA
ENCODING 11978
SWIDTH 1000 0
DWIDTH 16 0
BBX 8 13 4 -2
BITMAP
7E
42
42
7E
10
10
50
5E
50
50
51
5E
F0
ENDCHAR
STARTCHAR 2ECC
ENCODING 11980
SWIDTH 1000 0
DWIDTH 16 0
BBX 14 12 1 0
BITMAP
2000
3000
1000
0000
0000
F000
1000
1000
1000
1000
2800
C7FC
ENDCHAR
STARTCHAR 2ECD
ENCODING 11981
SWIDTH 1000 0
DWIDTH 16 0
BBX 14 13 1 -1
BITMAP
2000
3000
0000
4000
3000
1000
0000
F000
1000
1000
1000
2800
C7FC
ENDCHAR
STARTCHAR 2ECF
ENCODING 11983
SWIDTH 1000 0
DWIDTH 16 0
BBX 7 13 5 -1
BITMAP
FC
84
8C
88
90
88
84
82
82
82
BC
80
80
ENDCHAR
STARTCHAR 2ED1
ENCODING 11985
SWIDTH 1000 0
DWIDTH 16 0
BBX 14 13 1 -2
BITMAP
1FF8
1000
1FF0
1000
1FF0
1000
FFFC
1108
1190
10E0
1160
1E38
700C
ENDCHAR
STARTCHAR 2ED2
ENCODING 11986
SWIDTH 1000 0
DWIDTH 16 0
BBX 14 13 1 -2
BITMAP
1FF8
1000
1FF0
1000
1FF0
1000
1000
FFFC
0C00
0820
1810
1FF8
7808
ENDCHAR
STARTCHAR 2ED6
ENCODING 11990
SWIDTH 1000 0
DWIDTH 16 0
BBX 7 13 5 -1
BITMAP
FC
84
8C
88
90
88
84
82
82
82
BC
80
80
ENDCHAR
STARTCHAR 2ED8
ENCODING 11992
SWIDTH 1000 0
DWIDTH 16 0
BBX 14 15 1 -1
BITMAP
0200
0200
FFFC
0200
7FF8
0200
FFFC
0000
3FF0
2010
3FF0
3FF0
2010
2110
20F0
ENDCHAR
STARTCHAR 2EDE
ENCODING 11998
SWIDTH 1000 0
DWIDTH 16 0
BBX 8 14 4 -1
BITMAP
18
1C
26
7D
C0
FE
42
7E
7E
40
7E
40
7F
40
ENDCHAR
STARTCHAR 2EDF
ENCODING 11999
SWIDTH 1000 0
DWIDTH 16 0
BBX 8 15 4 -1
BITMAP
08
18
16
2B
48
FE
42
7E
42
7E
44
44
46
FB
80
ENDCHAR
STARTCHAR 2EE4
ENCODING 12004
SWIDTH 1000 0
DWIDTH 16 0
BBX 14 14 1 -2
BITMAP
0600
0400
3FF0
2210
3FF0
2210
2210
3FF0
0920
0950
0948
19FC
3104
C1FC
ENDCHAR
STARTCHAR 2EE8
ENCODING 12008
SWIDTH 1000 0
DWIDTH 16 0
BBX 13 15 1 -2
BITMAP
0200
0200
FFF8
0200
0200
7FF0
0200
FFF8
0400
0FE0
3840
E480
0300
0CF0
F018
ENDCHAR
STARTCHAR 2EE9
ENCODING 12009
SWIDTH 1000 0
DWIDTH 16 0
BBX 14 15 1 -1
BITMAP
0840
0840
7FF8
0840
0840
FFFC
0300
3FF0
2310
3FF0
2310
3FF0
0860
3038
4000
ENDCHAR
STARTCHAR 2EEB
ENCODING 12011
SWIDTH 1000 0
DWIDTH 16 0
BBX 14 14 1 -2
BITMAP
0200
0200
FFFC
1840
0D80
0700
38F8
D020
1FE0
1020
1FE0
1020
2020
6020
ENDCHAR
STARTCHAR 2EED
ENCODING 12013
SWIDTH 1000 0
DWIDTH 16 0
BBX 14 14 1 0
BITMAP
0200
13F0
1200
1200
FFFC
4208
4A48
4A88
5FE8
4708
4AE8
5208
7FF8
4008
ENDCHAR
STARTCHAR 2EEF
ENCODING 12015
SWIDTH 1000 0
DWIDTH 16 0
BBX 14 15 1 -1
BITMAP
0200
0200
7FF8
1840
08C0
FFFC
0000
3FF0
2210
3FF0
2210
3FF0
2204
0204
03FC
ENDCHAR
STARTCHAR 2EF2
ENCODING 12018
SWIDTH 1000 0
DWIDTH 16 0
BBX 14 14 1 -2
BITMAP
0800
1F80
3FF0
6210
BFF0
2210
3FF0
7FF8
4208
7FF8
4208
7FF8
4204
03FC
ENDCHAR
STARTCHAR 2F00
ENCODING 12032
SWIDTH 1000 0
DWIDTH 16 0
BBX 14 1 1 6
BITMAP
FFFC
ENDCHAR
STARTCHAR 2F01
ENCODING 12033
SWIDTH 1000 0
DWIDTH 16 0
BBX 1 14 7 -1
BITMAP
80
80
80
80
80
80
80
80
80
80
80
80
80
80
ENDCHAR
STARTCHAR 2F02
ENCODING 12034
SWIDTH 1000 0
DWIDTH 16 0
BBX 7 7 4 3
BITMAP
C0
30
18
0C
06
02
02
ENDCHAR
STARTCHAR 2F03
ENCODING 12035
SWIDTH 1000 0
DWIDTH 16 0
BBX 5 14 4 -2
BITMAP
08
08
08
08
08
08
08
08
08
18
10
30
60
C0
ENDCHAR
STARTCHAR 2F04
ENCODING 12036
SWIDTH 1000 0
DWIDTH 16 0
BBX 13 12 2 0
BITMAP
FFC0
0180
0300
0600
0C00
1800
3000
6000
4018
8010
8010
7FF0
ENDCHAR
STARTCHAR 2F05
ENCODING 12037
SWIDTH 1000 0
DWIDTH 16 0
BBX 4 14 5 -1
BITMAP
10
10
10
10
10
10
10
10
10
10
10
10
10
F0
ENDCHAR
STARTCHAR 2F06
ENCODING 12038
SWIDTH 1000 0
DWIDTH 16 0
BBX 14 10 1 1
BITMAP
7FF8
0000
0000
0000
0000
0000
0000
0000
0000
FFFC
ENDCHAR
STARTCHAR 2F07
ENCODING 12039
SWIDTH 1000 0
DWIDTH 16 0
BBX 13 4 1 7
BITMAP
0200
0200
0200
FFF8
ENDCHAR
STARTCHAR 2F08
ENCODING 12040
SWIDTH 1000 0
DWIDTH 16 0
BBX 13 14 2 -1
BITMAP
0600
0600
0600
0600
0600
0600
0600
0D00
0980
1880
3040
6030
C018
8000
ENDCHAR
STARTCHAR 2F09
ENCODING 12041
SWIDTH 1000 0
DWIDTH 16 0
BBX 12 13 2 -1
BITMAP
1100
1100
1100
1100
1100
1100
1100
1100
1110
2110
6110
C1F0
8000
ENDCHAR
STARTCHAR 2F0A
ENCODING 12042
SWIDTH 1000 0
DWIDTH 16 0
BBX 14 13 1 -2
BITMAP
1F00
0300
0300
0300
0300
0300
0280
0480
0440
0860
1830
701C
C000
ENDCHAR
STARTCHAR 2F0B
ENCODING 12043
SWIDTH 1000 0
DWIDTH 16 0
BBX 14 12 1 -1
BITMAP
0780
00C0
0840
0840
0840
1860
1020
1030
3010
2018
400C
C004
ENDCHAR
STARTCHAR 2F0C
ENCODING 12044
SWIDTH 1000 0
DWIDTH 16 0
BBX 12 13 2 -1
BITMAP
FFF0
8010
8010
8010
8010
8010
8010
8010
8010
8010
8010
8010
80F0
ENDCHAR
STARTCHAR 2F0D
ENCODING 12045
SWIDTH 1000 0
DWIDTH 16 0
BBX 12 4 2 5
BITMAP
FFF0
8010
8010
8010
ENDCHAR
STARTCHAR 2F0E
ENCODING 12046
SWIDTH 1000 0
DWIDTH 16 0
BBX 6 13 5 -1
BITMAP
80
C0
60
20
04
04
0C
18
10
20
60
C0
80
ENDCHAR
STARTCHAR 2F0F
ENCODING 12047
SWIDTH 1000 0
DWIDTH 16 0
BBX 14 12 1 -1
BITMAP
1FC0
1040
1040
1040
1040
1040
1040
1040
3044
2044
6044
C07C
ENDCHAR
STARTCHAR 2F10
ENCODING 12048
SWIDTH 1000 0
DWIDTH 16 0
BBX 12 12 2 0
BITMAP
8010
8010
8010
8010
8010
8010
8010
8010
8010
8010
FFF0
8010
ENDCHAR
STARTCHAR 2F11
ENCODING 12049
SWIDTH 1000 0
DWIDTH 16 0
BBX 12 12 2 -1
BITMAP
FFF0
0C10
0C10
0C10
0C10
0810
0810
1830
1030
3030
6020
C3E0
ENDCHAR
STARTCHAR 2F12
ENCODING 12050
SWIDTH 1000 0
DWIDTH 16 0
BBX 12 14 2 0
BITMAP
0400
0400
0400
FFF0
0410
0410
0410
0C30
0830
1830
1020
6020
C3E0
8000
ENDCHAR
STARTCHAR 2F13
ENCODING 12051
SWIDTH 1000 0
DWIDTH 16 0
BBX 12 13 2 0
BITMAP
1000
3000
3FF0
6010
4010
8010
8010
0010
0030
0030
0020
0020
03E0
ENDCHAR
STARTCHAR 2F14
ENCODING 12052
SWIDTH 1000 0
DWIDTH 16 0
BBX 11 12 3 0
BITMAP
8000
8000
8080
8380
9C00
E000
8000
8000
8060
8060
8040
FFC0
ENDCHAR
STARTCHAR 2F15
ENCODING 12053
SWIDTH 1000 0
DWIDTH 16 0
BBX 12 13 2 -2
BITMAP
FFF0
8000
8000
8000
8000
8000
8000
8000
8000
8000
8000
FFF0
8000
ENDCHAR
STARTCHAR 2F16
ENCODING 12054
SWIDTH 1000 0
DWIDTH 16 0
BBX 13 12 1 -1
BITMAP
FFF8
2000
2000
2000
2000
2000
2000
2000
2000
2000
2000
3FF8
ENDCHAR
STARTCHAR 2F17
ENCODING 12055
SWIDTH 1000 0
DWIDTH 16 0
BBX 13 14 1 -2
BITMAP
0200
0200
0200
0200
0200
0200
FFF8
0200
0200
0200
0200
0200
0200
0200
ENDCHAR
STARTCHAR 2F18
ENCODING 12056
SWIDTH 1000 0
DWIDTH 16 0
BBX 7 14 6 -1
BITMAP
80
80
80
80
80
E0
B8
8C
86
80
80
80
80
80
ENDCHAR
STARTCHAR 2F19
ENCODING 12057
SWIDTH 1000 0
DWIDTH 16 0
BBX 7 13 5 -1
BITMAP
FE
82
82
82
82
82
82
82
82
9E
80
80
80
ENDCHAR
STARTCHAR 2F1A
ENCODING 12058
SWIDTH 1000 0
DWIDTH 16 0
BBX 12 12 2 -1
BITMAP
7FF0
4000
4000
4000
4000
4000
4000
4000
4000
C000
8000
8000
ENDCHAR
STARTCHAR 2F1B
ENCODING 12059
SWIDTH 1000 0
DWIDTH 16 0
BBX 14 12 1 0
BITMAP
0200
0200
0600
0400
0400
0C00
0860
0820
1010
1078
FFC8
600C
ENDCHAR
STARTCHAR 2F1C
ENCODING 12060
SWIDTH 1000 0
DWIDTH 16 0
BBX 14 12 1 -1
BITMAP
7FF0
1010
1020
0820
0860
0440
0680
0380
0380
06C0
1830
F01C
ENDCHAR
STARTCHAR 2F1D
ENCODING 12061
SWIDTH 1000 0
DWIDTH 16 0
BBX 12 11 2 -1
BITMAP
FFF0
8010
8010
8010
8010
8010
8010
8010
8010
FFF0
8010
ENDCHAR
STARTCHAR 2F1E
ENCODING 12062
SWIDTH 1000 0
DWIDTH 16 0
BBX 12 13 2 -1
BITMAP
FFF0
8010
8010
8010
8010
8010
8010
8010
8010
8010
8010
FFF0
8010
ENDCHAR
STARTCHAR 2F1F
ENCODING 12063
SWIDTH 1000 0
DWIDTH 16 0
BBX 13 13 1 1
BITMAP
0200
0200
0200
0200
7FF0
0200
0200
0200
0200
0200
0200
0200
FFF8
ENDCHAR
STARTCHAR 2F20
ENCODING 12064
SWIDTH 1000 0
DWIDTH 16 0
BBX 13 13 1 1
BITMAP
0200
0200
0200
0200
FFF8
0200
0200
0200
0200
0200
0200
0200
7FF8
ENDCHAR
STARTCHAR 2F21
ENCODING 12065
SWIDTH 1000 0
DWIDTH 16 0
BBX 13 14 2 -1
BITMAP
0800
0800
1FE0
1040
3040
68C0
C880
8500
0700
0700
0D80
3860
E038
8000
ENDCHAR
STARTCHAR 2F22
ENCODING 12066
SWIDTH 1000 0
DWIDTH 16 0
BBX 14 14 1 -1
BITMAP
0200
0400
07F0
1C20
1820
1860
3C40
66C0
C380
0180
06C0
0C70
301C
4000
ENDCHAR
STARTCHAR 2F23
ENCODING 12067
SWIDTH 1000 0
DWIDTH 16 0
BBX 12 14 2 -1
BITMAP
0400
0C00
0FF0
1820
1020
3860
6C40
C6C0
0380
0300
0600
0C00
3800
6000
ENDCHAR
STARTCHAR 2F24
ENCODING 12068
SWIDTH 1000 0
DWIDTH 16 0
BBX 13 14 1 -1
BITMAP
0200
0200
0200
0200
FFF8
0200
0300
0500
0480
0CC0
1860
3030
6018
8000
ENDCHAR
STARTCHAR 2F25
ENCODING 12069
SWIDTH 1000 0
DWIDTH 16 0
BBX 14 14 1 -1
BITMAP
0200
0200
0400
0400
FFFC
0820
0860
1040
1840
2680
0180
0360
1C38
6008
ENDCHAR
STARTCHAR 2F26
ENCODING 12070
SWIDTH 1000 0
DWIDTH 16 0
BBX 14 13 1 -1
BITMAP
7FF8
0030
00C0
0300
0200
0200
FFFC
0100
0100
0100
0100
0100
1F00
ENDCHAR
STARTCHAR 2F27
ENCODING 12071
SWIDTH 1000 0
DWIDTH 16 0
BBX 12 7 2 4
BITMAP
0400
0400
0400
FFF0
8010
8010
8010
ENDCHAR
STARTCHAR 2F28
ENCODING 12072
SWIDTH 1000 0
DWIDTH 16 0
BBX 14 13 1 0
BITMAP
0040
0040
0040
FFFC
0020
0020
1020
1820
0C20
0420
0020
0020
03E0
ENDCHAR
STARTCHAR 2F29
ENCODING 12073
SWIDTH 1000 0
DWIDTH 16 0
BBX 13 14 1 -1
BITMAP
0200
0200
0200
0240
3260
2220
2230
6210
4218
C208
8200
0200
1200
1E00
ENDCHAR
STARTCHAR 2F2A
ENCODING 12074
SWIDTH 1000 0
DWIDTH 16 0
BBX 12 14 2 -2
BITMAP
0400
0400
0400
0400
FFF0
0600
0600
0600
0A00
0A00
1A10
3210
6210
C3F0
ENDCHAR
STARTCHAR 2F2B
ENCODING 12075
SWIDTH 1000 0
DWIDTH 16 0
BBX 13 13 1 -2
BITMAP
3FF8
2008
2008
2008
3FF8
2008
2000
2000
2000
2000
6000
4000
C000
ENDCHAR
STARTCHAR 2F2C
ENCODING 12076
SWIDTH 1000 0
DWIDTH 16 0
BBX 12 14 2 0
BITMAP
0400
0400
8410
8410
8410
8410
8410
FFF0
8410
0400
0C00
1800
3000
4000
ENDCHAR
STARTCHAR 2F2D
ENCODING 12077
SWIDTH 1000 0
DWIDTH 16 0
BBX 12 13 2 -1
BITMAP
0400
0400
8410
8410
8410
8410
8410
8410
8410
8410
8410
FFF0
8010
ENDCHAR
STARTCHAR 2F2E
ENCODING 12078
SWIDTH 1000 0
DWIDTH 16 0
BBX 13 12 2 0
BITMAP
2210
6230
4620
4460
C440
88C0
88C0
8C40
4420
4230
6210
2318
ENDCHAR
STARTCHAR 2F2F
ENCODING 12079
SWIDTH 1000 0
DWIDTH 16 0
BBX 13 11 1 0
BITMAP
7FF0
0200
0200
0200
0200
0200
0200
0200
0200
0200
FFF8
ENDCHAR
STARTCHAR 2F30
ENCODING 12080
SWIDTH 1000 0
DWIDTH 16 0
BBX 13 13 2 -1
BITMAP
FFE0
0020
0020
0020
0020
FFE0
8020
8000
8000
8008
8008
8018
7FF0
ENDCHAR
STARTCHAR 2F31
ENCODING 12081
SWIDTH 1000 0
DWIDTH 16 0
BBX 12 14 2 -2
BITMAP
0400
0400
0400
FFF0
8410
8410
8410
8410
8410
8410
8490
84F0
0400
0400
ENDCHAR
STARTCHAR 2F32
ENCODING 12082
SWIDTH 1000 0
DWIDTH 16 0
BBX 13 13 1 -1
BITMAP
7FF0
0200
0200
0200
0200
FFF8
0200
0200
0200
0200
0200
0200
0200
ENDCHAR
STARTCHAR 2F33
ENCODING 12083
SWIDTH 1000 0
DWIDTH 16 0
BBX 12 12 2 0
BITMAP
0400
0C00
0840
D080
6180
1300
0A00
0C80
0840
1020
3FF0
F810
ENDCHAR
STARTCHAR 2F34
ENCODING 12084
SWIDTH 1000 0
DWIDTH 16 0
BBX 12 14 2 0
BITMAP
0200
0200
7FF0
4000
4000
4000
4000
4000
4000
4000
4000
8000
8000
8000
ENDCHAR
STARTCHAR 2F35
ENCODING 12085
SWIDTH 1000 0
DWIDTH 16 0
BBX 13 13 2 -1
BITMAP
F800
1000
3000
2000
7800
4800
4800
4800
3800
1000
2C00
43F8
8000
ENDCHAR
STARTCHAR 2F36
ENCODING 12086
SWIDTH 1000 0
DWIDTH 16 0
BBX 14 13 1 -1
BITMAP
0840
0840
0840
0840
0840
FFFC
0820
0820
0820
1820
1020
2020
C020
ENDCHAR
STARTCHAR 2F37
ENCODING 12087
SWIDTH 1000 0
DWIDTH 16 0
BBX 14 14 1 -1
BITMAP
0400
0460
0630
0600
03FC
FF00
0200
0200
0300
0100
0084
00C4
006C
0018
ENDCHAR
STARTCHAR 2F38
ENCODING 12088
SWIDTH 1000 0
DWIDTH 16 0
BBX 12 13 2 -1
BITMAP
7FE0
0020
0020
7FE0
4020
4000
4000
7FF0
C030
0030
0020
0020
03E0
ENDCHAR
STARTCHAR 2F39
ENCODING 12089
SWIDTH 1000 0
DWIDTH 16 0
BBX 9 10 3 1
BITMAP
FF80
0080
0080
0080
0080
7F80
0080
0080
0080
0080
ENDCHAR
STARTCHAR 2F3A
ENCODING 12090
SWIDTH 1000 0
DWIDTH 16 0
BBX 12 14 2 0
BITMAP
0080
0100
0600
1C00
7040
C080
0300
0E30
7860
00C0
0180
0700
3C00
6000
ENDCHAR
STARTCHAR 2F3B
ENCODING 12091
SWIDTH 1000 0
DWIDTH 16 0
BBX 8 14 4 -1
BITMAP
06
0C
18
63
C6
04
08
38
68
C8
08
08
08
08
ENDCHAR
STARTCHAR 2F3C
ENCODING 12092
SWIDTH 1000 0
DWIDTH 16 0
BBX 13 12 1 0
BITMAP
0600
0180
0800
0800
6820
6810
4810
4808
C828
8828
8860
0FC0
ENDCHAR
STARTCHAR 2F3D
ENCODING 12093
SWIDTH 1000 0
DWIDTH 16 0
BBX 14 14 1 -1
BITMAP
0440
0460
0620
0600
FFFC
0200
0230
0260
01C0
0180
0384
0CC4
3824
6018
ENDCHAR
STARTCHAR 2F3E
ENCODING 12094
SWIDTH 1000 0
DWIDTH 16 0
BBX 13 12 1 -1
BITMAP
7FF8
0000
0000
3FF0
2010
2010
3FF0
2010
2000
2000
4000
C000
ENDCHAR
STARTCHAR 2F3F
ENCODING 12095
SWIDTH 1000 0
DWIDTH 16 0
BBX 14 13 1 0
BITMAP
01F0
3F00
0100
0100
7FF8
0100
0100
FFFC
0100
0100
0100
0100
0F00
ENDCHAR
STARTCHAR 2F40
ENCODING 12096
SWIDTH 1000 0
DWIDTH 16 0
BBX 13 14 1 -1
BITMAP
0200
0200
FFF8
0200
0200
0200
7FE0
1060
0840
0C80
0780
0300
0CE0
F038
ENDCHAR
STARTCHAR 2F41
ENCODING 12097
SWIDTH 1000 0
DWIDTH 16 0
BBX 13 14 1 -1
BITMAP
0200
0200
03F8
0200
0200
0200
7FF0
1020
0860
0CC0
0780
0380
0CE0
F038
ENDCHAR
STARTCHAR 2F42
ENCODING 12098
SWIDTH 1000 0
DWIDTH 16 0
BBX 13 14 1 -1
BITMAP
0200
0200
0200
FFF8
1040
1040
0880
0880
0500
0300
0700
1CC0
7078
C008
ENDCHAR
STARTCHAR 2F43
ENCODING 12099
SWIDTH 1000 0
DWIDTH 16 0
BBX 14 14 1 -2
BITMAP
0040
0840
0E40
0340
0040
3840
0C40
0440
007C
FFC0
8040
0040
0040
0040
ENDCHAR
STARTCHAR 2F44
ENCODING 12100
SWIDTH 1000 0
DWIDTH 16 0
BBX 14 13 1 -1
BITMAP
00F0
3FC0
2000
2000
2000
3FFC
2040
2040
2040
2040
2040
4040
C040
ENDCHAR
STARTCHAR 2F45
ENCODING 12101
SWIDTH 1000 0
DWIDTH 16 0
BBX 13 14 1 -2
BITMAP
0200
0200
0200
FFF8
0400
0400
07F0
0420
0820
0820
1820
1020
6220
C1E0
ENDCHAR
STARTCHAR 2F46
ENCODING 12102
SWIDTH 1000 0
DWIDTH 16 0
BBX 14 13 2 -2
BITMAP
7FF0
0200
0200
0200
FFF8
0200
0700
0500
0500
090C
1908
6108
C1F8
ENDCHAR
STARTCHAR 2F47
ENCODING 12103
SWIDTH 1000 0
DWIDTH 16 0
BBX 10 13 3 -2
BITMAP
FFC0
8040
8040
8040
8040
FFC0
8040
8040
8040
8040
8040
FFC0
8040
ENDCHAR
STARTCHAR 2F48
ENCODING 12104
SWIDTH 1000 0
DWIDTH 16 0
BBX 10 13 3 -2
BITMAP
FFC0
8040
8040
8040
8040
FF40
8040
8040
8040
8040
8040
FFC0
8040
ENDCHAR
STARTCHAR 2F49
ENCODING 12105
SWIDTH 1000 0
DWIDTH 16 0
BBX 11 13 2 -2
BITMAP
3FE0
2020
2020
3FE0
2020
2020
2020
3FE0
2020
2020
6020
4020
C3E0
ENDCHAR
STARTCHAR 2F4A
ENCODING 12106
SWIDTH 1000 0
DWIDTH 16 0
BBX 13 13 1 -1
BITMAP
0200
0200
0200
FFF8
0700
0700
0E80
0AC0
1260
6230
C218
8200
0200
ENDCHAR
STARTCHAR 2F4B
ENCODING 12107
SWIDTH 1000 0
DWIDTH 16 0
BBX 13 14 1 -2
BITMAP
0800
0800
1800
1FF8
3308
2310
6330
4320
0380
0480
0440
0820
3018
E008
ENDCHAR
STARTCHAR 2F4C
ENCODING 12108
SWIDTH 1000 0
DWIDTH 16 0
BBX 13 13 2 0
BITMAP
0200
0200
0200
0200
2200
23F0
2200
2200
2200
2200
2200
2200
FFF8
ENDCHAR
STARTCHAR 2F4D
ENCODING 12109
SWIDTH 1000 0
DWIDTH 16 0
BBX 12 13 2 -1
BITMAP
FFF0
0C00
0800
1FE0
1040
3040
C880
8780
0300
0600
0C00
7000
4000
ENDCHAR
STARTCHAR 2F4E
ENCODING 12110
SWIDTH 1000 0
DWIDTH 16 0
BBX 13 13 2 -1
BITMAP
1F80
1080
1088
3098
60F8
8000
7FE0
1040
0880
0700
0780
38F8
C010
ENDCHAR
STARTCHAR 2F4F
ENCODING 12111
SWIDTH 1000 0
DWIDTH 16 0
BBX 14 13 1 -1
BITMAP
3FF0
2310
2310
2310
2210
FFFC
2210
2210
6210
6210
7FFC
4030
00E0
ENDCHAR
STARTCHAR 2F50
ENCODING 12112
SWIDTH 1000 0
DWIDTH 16 0
BBX 13 14 1 -1
BITMAP
2100
2100
2100
2110
2130
3DC0
2100
2100
2100
2108
2108
2D08
71F8
C000
ENDCHAR
STARTCHAR 2F51
ENCODING 12113
SWIDTH 1000 0
DWIDTH 16 0
BBX 13 14 2 -1
BITMAP
0060
07C0
FC00
0400
04F0
FF00
0400
0408
7FF8
C400
0408
0408
0408
07F0
ENDCHAR
STARTCHAR 2F52
ENCODING 12114
SWIDTH 1000 0
DWIDTH 16 0
BBX 13 13 2 0
BITMAP
01E0
7F00
4200
4200
4200
7FF8
4100
4100
4100
4088
4E88
F848
8030
ENDCHAR
STARTCHAR 2F53
ENCODING 12115
SWIDTH 1000 0
DWIDTH 16 0
BBX 13 14 2 -1
BITMAP
2000
2000
7FF0
4000
BFC0
0000
FFC0
0040
0040
0040
0068
0038
0038
0010
ENDCHAR
STARTCHAR 2F54
ENCODING 12116
SWIDTH 1000 0
DWIDTH 16 0
BBX 13 14 2 -2
BITMAP
0200
0200
0200
0230
FA60
0BC0
1B80
1280
12C0
2260
6230
C218
8200
0E00
ENDCHAR
STARTCHAR 2F55
ENCODING 12117
SWIDTH 1000 0
DWIDTH 16 0
BBX 13 14 1 -1
BITMAP
0200
0200
0200
3218
2230
2220
6360
4500
0500
0480
0840
1060
6018
C008
ENDCHAR
STARTCHAR 2F56
ENCODING 12118
SWIDTH 1000 0
DWIDTH 16 0
BBX 14 13 1 -1
BITMAP
07F0
3E40
2260
2220
2220
2220
2220
2220
2230
6210
4218
C20C
8200
ENDCHAR
STARTCHAR 2F57
ENCODING 12119
SWIDTH 1000 0
DWIDTH 16 0
BBX 14 13 1 -1
BITMAP
08C0
1860
1030
2018
684C
48C0
0480
0780
0300
0780
0C60
303C
C000
ENDCHAR
STARTCHAR 2F58
ENCODING 12120
SWIDTH 1000 0
DWIDTH 16 0
BBX 12 14 2 -2
BITMAP
0040
70C0
1D80
0300
0CC0
F030
8050
1080
0980
0F00
0700
0D80
7070
C010
ENDCHAR
STARTCHAR 2F59
ENCODING 12121
SWIDTH 1000 0
DWIDTH 16 0
BBX 8 14 4 -1
BITMAP
01
41
41
41
7F
41
01
FF
21
21
61
41
C1
81
ENDCHAR
STARTCHAR 2F5A
ENCODING 12122
SWIDTH 1000 0
DWIDTH 16 0
BBX 12 14 3 0
BITMAP
4200
4200
4200
4200
7FF0
4000
4000
7F80
4080
4080
4080
8080
8080
8080
ENDCHAR
STARTCHAR 2F5B
ENCODING 12123
SWIDTH 1000 0
DWIDTH 16 0
BBX 13 13 2 -1
BITMAP
7FF0
0080
1080
3080
2080
3FF8
6180
0680
0C80
1880
6080
C080
0380
ENDCHAR
STARTCHAR 2F5C
ENCODING 12124
SWIDTH 1000 0
DWIDTH 16 0
BBX 13 15 1 -2
BITMAP
0200
0200
3200
2200
3FF0
4200
C200
8200
0200
FFF8
0200
0200
0200
0200
0200
ENDCHAR
STARTCHAR 2F5D
ENCODING 12125
SWIDTH 1000 0
DWIDTH 16 0
BBX 13 13 1 0
BITMAP
0240
0260
0230
0200
FFF8
0200
0300
0580
0480
0C40
1860
3038
E008
ENDCHAR
STARTCHAR 2F5E
ENCODING 12126
SWIDTH 1000 0
DWIDTH 16 0
BBX 13 13 1 0
BITMAP
0200
0200
FFF8
0600
0400
0C40
38C0
1980
0D00
0660
0430
08F0
FF88
ENDCHAR
STARTCHAR 2F5F
ENCODING 12127
SWIDTH 1000 0
DWIDTH 16 0
BBX 13 12 1 0
BITMAP
7FF8
0200
0200
0200
0200
7FF0
0200
02C0
0260
0220
0200
FFF8
ENDCHAR
STARTCHAR 2F60
ENCODING 12128
SWIDTH 1000 0
DWIDTH 16 0
BBX 14 13 1 -1
BITMAP
01F0
3F20
2220
2220
2220
2220
2220
2210
2210
2250
6248
5FAC
C000
ENDCHAR
STARTCHAR 2F61
ENCODING 12129
SWIDTH 1000 0
DWIDTH 16 0
BBX 14 13 1 -1
BITMAP
FFF8
0800
0800
1FE0
1060
1460
1260
1360
1140
3044
27C4
FC44
003C
ENDCHAR
STARTCHAR 2F62
ENCODING 12130
SWIDTH 1000 0
DWIDTH 16 0
BBX 14 14 1 -1
BITMAP
1020
1020
1020
FFFC
1020
1020
1020
1FE0
1020
1020
1020
1020
1FE0
1020
ENDCHAR
STARTCHAR 2F63
ENCODING 12131
SWIDTH 1000 0
DWIDTH 16 0
BBX 13 14 2 0
BITMAP
0200
0200
2200
2200
7FF0
4200
C200
8200
0200
3FF0
0200
0200
0200
FFF8
ENDCHAR
STARTCHAR 2F64
ENCODING 12132
SWIDTH 1000 0
DWIDTH 16 0
BBX 12 13 2 -2
BITMAP
7FF0
4210
4210
7FF0
4210
4210
4210
7FF0
4210
4210
4210
8210
8070
ENDCHAR
STARTCHAR 2F65
ENCODING 12133
SWIDTH 1000 0
DWIDTH 16 0
BBX 12 13 2 -2
BITMAP
FFF0
8410
8410
8410
8410
FFF0
8410
8410
8410
8410
8410
FFF0
8010
ENDCHAR
STARTCHAR 2F66
ENCODING 12134
SWIDTH 1000 0
DWIDTH 16 0
BBX 13 13 1 -1
BITMAP
FFF8
0210
0230
2200
2200
23F0
2200
2200
7200
5A00
4E00
C7F8
8000
ENDCHAR
STARTCHAR 2F67
ENCODING 12135
SWIDTH 1000 0
DWIDTH 16 0
BBX 14 14 1 -1
BITMAP
0080
0080
3FFC
A000
A000
A000
2000
2000
E000
A000
2000
4000
4000
C000
ENDCHAR
STARTCHAR 2F68
ENCODING 12136
SWIDTH 1000 0
DWIDTH 16 0
BBX 14 8 1 2
BITMAP
3F00
0330
46C0
344C
1870
1830
301C
C004
ENDCHAR
STARTCHAR 2F69
ENCODING 12137
SWIDTH 1000 0
DWIDTH 16 0
BBX 10 14 3 0
BITMAP
0800
0800
FFC0
8040
8040
8040
8040
FFC0
8040
8040
8040
8040
FFC0
8040
ENDCHAR
STARTCHAR 2F6A
ENCODING 12138
SWIDTH 1000 0
DWIDTH 16 0
BBX 13 14 1 -1
BITMAP
0100
0100
3FF8
2108
2118
2100
3FF0
2C20
2460
2240
6180
43C0
4E78
9808
ENDCHAR
STARTCHAR 2F6B
ENCODING 12139
SWIDTH 1000 0
DWIDTH 16 0
BBX 16 11 0 0
BITMAP
3FFC
2244
2244
2244
2244
2244
2244
2244
2244
2244
FFFF
ENDCHAR
STARTCHAR 2F6C
ENCODING 12140
SWIDTH 1000 0
DWIDTH 16 0
BBX 10 13 3 -2
BITMAP
FFC0
8040
8040
8040
FFC0
8040
8040
FFC0
8040
8040
8040
FFC0
8040
ENDCHAR
STARTCHAR 2F6D
ENCODING 12141
SWIDTH 1000 0
DWIDTH 16 0
BBX 13 14 2 -1
BITMAP
7FE0
00C0
1180
0F00
0600
0300
FFF8
0610
0A20
1AC0
2200
C200
8200
1E00
ENDCHAR
STARTCHAR 2F6E
ENCODING 12142
SWIDTH 1000 0
DWIDTH 16 0
BBX 13 13 1 0
BITMAP
1000
3000
3FF0
6200
4200
0200
FFF8
0300
0500
0480
0840
1030
E018
ENDCHAR
STARTCHAR 2F6F
ENCODING 12143
SWIDTH 1000 0
DWIDTH 16 0
BBX 15 13 0 -2
BITMAP
7FFE
0200
0600
0400
0800
1FFC
1804
2804
C804
0804
0804
0FFC
0804
ENDCHAR
STARTCHAR 2F70
ENCODING 12144
SWIDTH 1000 0
DWIDTH 16 0
BBX 13 13 2 -1
BITMAP
7FE0
0000
0000
0000
FFF8
0200
0240
3260
6230
4218
8208
0200
1E00
ENDCHAR
STARTCHAR 2F71
ENCODING 12145
SWIDTH 1000 0
DWIDTH 16 0
BBX 12 14 2 -1
BITMAP
0400
0400
0400
FFF0
8410
8810
8910
8990
8890
97D0
B850
8010
8010
80F0
ENDCHAR
STARTCHAR 2F72
ENCODING 12146
SWIDTH 1000 0
DWIDTH 16 0
BBX 13 14 1 -2
BITMAP
0060
3FC0
6200
0200
0200
FFF8
0700
0780
0A80
1240
3230
6218
C208
0200
ENDCHAR
STARTCHAR 2F73
ENCODING 12147
SWIDTH 1000 0
DWIDTH 16 0
BBX 12 13 2 -1
BITMAP
0400
0400
FFF0
8010
8110
9110
1180
1180
3080
2040
6060
4030
8010
ENDCHAR
STARTCHAR 2F74
ENCODING 12148
SWIDTH 1000 0
DWIDTH 16 0
BBX 13 13 1 0
BITMAP
0200
0200
0200
FFF8
0040
3060
1040
1040
10C0
1880
0880
0080
FFF8
ENDCHAR
STARTCHAR 2F75
ENCODING 12149
SWIDTH 1000 0
DWIDTH 16 0
BBX 14 14 1 -1
BITMAP
2040
2040
60C0
7EFC
5190
9110
9210
1010
1010
1010
1010
1010
1010
10F0
ENDCHAR
STARTCHAR 2F76
ENCODING 12150
SWIDTH 1000 0
DWIDTH 16 0
BBX 13 14 1 -2
BITMAP
0200
0220
2220
3260
1240
0200
FFF8
0700
0F80
0AC0
1260
6230
C218
8200
ENDCHAR
STARTCHAR 2F77
ENCODING 12151
SWIDTH 1000 0
DWIDTH 16 0
BBX 13 14 1 -1
BITMAP
0200
0600
2C60
38C0
1980
0F20
0610
FFF8
0208
1240
3230
6210
4208
0200
ENDCHAR
STARTCHAR 2F78
ENCODING 12152
SWIDTH 1000 0
DWIDTH 16 0
BBX 14 14 1 -2
BITMAP
1800
1000
1FF0
2200
2200
0200
FFFC
0200
2210
2210
2210
2210
3FF0
2010
ENDCHAR
STARTCHAR 2F79
ENCODING 12153
SWIDTH 1000 0
DWIDTH 16 0
BBX 12 13 2 -2
BITMAP
FFF0
8010
8850
8890
AA90
9990
9890
9D50
9570
A310
E610
8010
80F0
ENDCHAR
STARTCHAR 2F7A
ENCODING 12154
SWIDTH 1000 0
DWIDTH 16 0
BBX 13 14 1 -1
BITMAP
1040
18C0
0880
FFF8
0200
0200
7FF0
0200
0200
FFF8
0200
0200
0200
0200
ENDCHAR
STARTCHAR 2F7B
ENCODING 12155
SWIDTH 1000 0
DWIDTH 16 0
BBX 13 13 1 -1
BITMAP
FDF8
0408
4588
64C8
2448
0408
1438
34C8
6588
8508
0408
0408
3C78
ENDCHAR
STARTCHAR 2F7C
ENCODING 12156
SWIDTH 1000 0
DWIDTH 16 0
BBX 15 13 0 1
BITMAP
0100
010C
3FE8
0110
0120
FFFE
0180
0700
0E78
77C0
4604
0604
07FC
ENDCHAR
STARTCHAR 2F7D
ENCODING 12157
SWIDTH 1000 0
DWIDTH 16 0
BBX 14 13 1 -1
BITMAP
FFFC
0200
0200
7FF8
4488
4488
4488
4488
4488
4488
4488
44B8
4000
ENDCHAR
STARTCHAR 2F7E
ENCODING 12158
SWIDTH 1000 0
DWIDTH 16 0
BBX 14 14 1 -1
BITMAP
0200
07F0
7A00
0200
7FF0
0200
0200
FFF8
0700
0A80
1A60
3230
C21C
8200
ENDCHAR
STARTCHAR 2F7F
ENCODING 12159
SWIDTH 1000 0
DWIDTH 16 0
BBX 14 13 1 -1
BITMAP
FFFC
1020
1020
1FE0
1020
1020
1FE0
1020
1020
13FC
FC20
0020
0020
ENDCHAR
STARTCHAR 2F80
ENCODING 12160
SWIDTH 1000 0
DWIDTH 16 0
BBX 15 15 0 -1
BITMAP
0100
0100
3FF8
0108
0108
7FFE
0108
3FF8
0100
3FFC
0100
FFFE
0100
0100
0100
ENDCHAR
STARTCHAR 2F81
ENCODING 12161
SWIDTH 1000 0
DWIDTH 16 0
BBX 12 14 2 0
BITMAP
0400
0400
FFF0
8410
8E10
8990
B4F0
8410
8E10
8990
B0D0
8010
8010
80F0
ENDCHAR
STARTCHAR 2F82
ENCODING 12162
SWIDTH 1000 0
DWIDTH 16 0
BBX 12 13 2 -1
BITMAP
FFF0
8400
8400
8400
FFE0
8020
8020
FFE0
8420
8400
8400
FFF0
8000
ENDCHAR
STARTCHAR 2F83
ENCODING 12163
SWIDTH 1000 0
DWIDTH 16 0
BBX 10 14 3 0
BITMAP
0800
0800
FFC0
8040
8040
FFC0
8040
8040
8040
FFC0
8040
8040
FFC0
8040
ENDCHAR
STARTCHAR 2F84
ENCODING 12164
SWIDTH 1000 0
DWIDTH 16 0
BBX 13 12 1 0
BITMAP
FFF8
0400
08C0
0860
7FF0
7C18
0200
0200
7FF0
0200
0200
FFF8
ENDCHAR
STARTCHAR 2F85
ENCODING 12165
SWIDTH 1000 0
DWIDTH 16 0
BBX 12 13 2 -1
BITMAP
1800
E3F0
8010
8010
8010
8010
F9F0
8010
8010
8010
8010
FFF0
8010
ENDCHAR
STARTCHAR 2F86
ENCODING 12166
SWIDTH 1000 0
DWIDTH 16 0
BBX 14 13 1 -1
BITMAP
03F0
7E00
0200
0200
FFFC
0200
0200
3FF0
2010
2010
2010
3FF0
2010
ENDCHAR
STARTCHAR 2F87
ENCODING 12167
SWIDTH 1000 0
DWIDTH 16 0
BBX 14 14 1 0
BITMAP
1010
1010
1E10
23FC
2210
6490
5490
CC90
0DFC
0910
1010
3010
6010
4000
ENDCHAR
STARTCHAR 2F88
ENCODING 12168
SWIDTH 1000 0
DWIDTH 16 0
BBX 15 14 1 -2
BITMAP
0200
0200
1FF0
1410
1210
1310
1110
FFFE
1010
1210
1210
3210
2210
60F0
ENDCHAR
STARTCHAR 2F89
ENCODING 12169
SWIDTH 1000 0
DWIDTH 16 0
BBX 13 13 2 -1
BITMAP
7FE0
4020
7FE0
4020
4020
7FE0
4610
4230
4360
4180
4EE0
F838
8008
ENDCHAR
STARTCHAR 2F8A
ENCODING 12170
SWIDTH 1000 0
DWIDTH 16 0
BBX 14 14 1 0
BITMAP
0800
1FC0
1040
2080
7FF8
E108
A108
2108
3FF8
2008
2004
2004
2004
3FFC
ENDCHAR
STARTCHAR 2F8B
ENCODING 12171
SWIDTH 1000 0
DWIDTH 16 0
BBX 14 14 1 -2
BITMAP
1020
1020
94A4
94A4
94A4
94A4
94A4
94A4
FCFC
94A4
1020
3020
6020
C020
ENDCHAR
STARTCHAR 2F8C
ENCODING 12172
SWIDTH 1000 0
DWIDTH 16 0
BBX 12 14 2 -1
BITMAP
0400
0400
07E0
0400
7FF0
4030
4420
4400
5FE0
4400
4410
C410
87E0
8000
ENDCHAR
STARTCHAR 2F8D
ENCODING 12173
SWIDTH 1000 0
DWIDTH 16 0
BBX 14 13 1 0
BITMAP
0200
0200
0200
7FF8
4208
4208
4208
7FF8
4200
0230
0218
02FC
FFC4
ENDCHAR
STARTCHAR 2F8E
ENCODING 12174
SWIDTH 1000 0
DWIDTH 16 0
BBX 16 13 0 0
BITMAP
0100
0100
0100
3FFC
2244
2244
2244
2244
2244
2244
2244
2244
FFFF
ENDCHAR
STARTCHAR 2F8F
ENCODING 12175
SWIDTH 1000 0
DWIDTH 16 0
BBX 15 13 0 -1
BITMAP
13FC
3000
6000
4800
17FE
3010
3010
D010
1010
1010
1010
1010
10F0
ENDCHAR
STARTCHAR 2F90
ENCODING 12176
SWIDTH 1000 0
DWIDTH 16 0
BBX 13 14 1 -2
BITMAP
0200
0200
0200
7FF8
0600
0510
0930
19E0
3880
E840
0860
0B30
1E18
3008
ENDCHAR
STARTCHAR 2F91
ENCODING 12177
SWIDTH 1000 0
DWIDTH 16 0
BBX 14 12 1 -1
BITMAP
FFFC
0480
0480
7FF8
4488
4488
4488
4488
4788
4488
4008
4008
ENDCHAR
STARTCHAR 2F92
ENCODING 12178
SWIDTH 1000 0
DWIDTH 16 0
BBX 14 14 1 -2
BITMAP
3FF0
2010
2010
3FF0
2010
3FF0
2010
2010
3FF0
0C80
0880
0884
308C
E0F8
ENDCHAR
STARTCHAR 2F93
ENCODING 12179
SWIDTH 1000 0
DWIDTH 16 0
BBX 12 14 1 -1
BITMAP
0C00
1FC0
1080
7FF0
E110
2110
3FF0
2110
2110
3FF0
2010
2010
4010
C070
ENDCHAR
STARTCHAR 2F94
ENCODING 12180
SWIDTH 1000 0
DWIDTH 16 0
BBX 14 13 1 -1
BITMAP
3FF0
0000
FFFC
0000
3FF0
0000
3FF0
0000
3FF0
2010
2010
3FF0
2010
ENDCHAR
STARTCHAR 2F95
ENCODING 12181
SWIDTH 1000 0
DWIDTH 16 0
BBX 15 14 1 -1
BITMAP
0040
1020
3018
630C
0580
0CC0
1830
2018
FFF6
2010
2010
2010
3FF0
2010
ENDCHAR
STARTCHAR 2F96
ENCODING 12182
SWIDTH 1000 0
DWIDTH 16 0
BBX 14 12 1 0
BITMAP
FFFC
0000
0000
3FF0
2010
2010
3FF0
0020
1860
0840
08C0
FFFC
ENDCHAR
STARTCHAR 2F97
ENCODING 12183
SWIDTH 1000 0
DWIDTH 16 0
BBX 14 13 1 -2
BITMAP
7FF8
0700
0D80
1C98
66B0
0FE0
1B40
63A0
44B0
1898
308C
C080
0780
ENDCHAR
STARTCHAR 2F98
ENCODING 12184
SWIDTH 1000 0
DWIDTH 16 0
BBX 9 14 3 0
BITMAP
0700
1C00
E480
2300
1600
1C00
E600
0D00
3380
E680
0C80
3080
E080
0700
ENDCHAR
STARTCHAR 2F99
ENCODING 12185
SWIDTH 1000 0
DWIDTH 16 0
BBX 13 14 2 -1
BITMAP
7FE0
4020
4020
7FE0
4020
4020
7FE0
4020
4020
7FE0
1080
30E0
E038
8000
ENDCHAR
STARTCHAR 2F9A
ENCODING 12186
SWIDTH 1000 0
DWIDTH 16 0
BBX 14 14 1 -1
BITMAP
0200
0200
7FF0
0200
0200
FFFC
0480
24A0
2CB0
6C90
4888
8888
1080
2380
ENDCHAR
STARTCHAR 2F9B
ENCODING 12187
SWIDTH 1000 0
DWIDTH 16 0
BBX 13 14 1 -1
BITMAP
0200
0200
7FF0
0200
0200
FFF8
0200
3200
2200
23F0
6200
5200
CE00
83F8
ENDCHAR
STARTCHAR 2F9C
ENCODING 12188
SWIDTH 1000 0
DWIDTH 16 0
BBX 14 12 1 -1
BITMAP
3FF0
2010
2010
2010
3FF0
2210
1200
23F8
2200
3200
4E00
C3FC
ENDCHAR
STARTCHAR 2F9D
ENCODING 12189
SWIDTH 1000 0
DWIDTH 16 0
BBX 13 15 2 -2
BITMAP
0400
0400
3FC0
2040
2040
3FC0
2058
3FF0
2060
27C0
F9C0
0340
0C40
3840
C3C0
ENDCHAR
STARTCHAR 2F9E
ENCODING 12190
SWIDTH 1000 0
DWIDTH 16 0
BBX 14 14 1 -1
BITMAP
0200
0200
7FF8
0200
3FF0
2210
3FF0
2210
3FF0
0200
FFFC
0200
0200
0200
ENDCHAR
STARTCHAR 2F9F
ENCODING 12191
SWIDTH 1000 0
DWIDTH 16 0
BBX 15 14 0 0
BITMAP
0100
0100
3FFC
0820
0C60
0440
FFFE
0100
0100
7FFC
0100
0100
0100
0100
ENDCHAR
STARTCHAR 2FA0
ENCODING 12192
SWIDTH 1000 0
DWIDTH 16 0
BBX 13 13 1 -1
BITMAP
7FF8
4000
4000
5FE0
4000
7FF8
4900
4930
48E0
48C0
8960
BF18
A000
ENDCHAR
STARTCHAR 2FA1
ENCODING 12193
SWIDTH 1000 0
DWIDTH 16 0
BBX 14 13 1 -1
BITMAP
00E0
7F00
00F0
3F00
0078
1F80
6200
2200
23F0
2200
5200
5A00
87FC
ENDCHAR
STARTCHAR 2FA2
ENCODING 12194
SWIDTH 1000 0
DWIDTH 16 0
BBX 13 12 2 0
BITMAP
7FC0
4040
7FC0
0000
FFF0
8410
8410
FFF0
8000
8008
8008
FFF8
ENDCHAR
STARTCHAR 2FA3
ENCODING 12195
SWIDTH 1000 0
DWIDTH 16 0
BBX 14 13 1 -1
BITMAP
FFFC
0480
0480
7FF8
4488
4488
4898
70E8
4008
7FF8
4008
7FF8
4008
ENDCHAR
STARTCHAR 2FA4
ENCODING 12196
SWIDTH 1000 0
DWIDTH 16 0
BBX 13 14 1 -2
BITMAP
0060
FFC0
0220
2260
1240
1240
FFF8
0700
0E80
1AC0
3260
6218
C208
0200
ENDCHAR
STARTCHAR 2FA5
ENCODING 12197
SWIDTH 1000 0
DWIDTH 16 0
BBX 14 12 1 0
BITMAP
3FF0
2210
2210
3FF0
2210
2210
3FF0
0200
0200
3FF0
0200
FFFC
ENDCHAR
STARTCHAR 2FA6
ENCODING 12198
SWIDTH 1000 0
DWIDTH 16 0
BBX 13 14 1 -1
BITMAP
0200
0500
0D80
18C0
3060
7FD8
8200
7FF0
0200
3220
1260
1240
1240
FFF8
ENDCHAR
STARTCHAR 2FA7
ENCODING 12199
SWIDTH 1000 0
DWIDTH 16 0
BBX 14 13 1 -2
BITMAP
1FF8
1000
1FF0
1000
1FF0
1000
FFFC
1108
1190
10E0
1160
1E38
700C
ENDCHAR
STARTCHAR 2FA8
ENCODING 12200
SWIDTH 1000 0
DWIDTH 16 0
BBX 12 13 2 -1
BITMAP
F9F0
8910
F9F0
8910
F9F0
8910
8010
8010
8010
8010
8010
8090
8070
ENDCHAR
STARTCHAR 2FA9
ENCODING 12201
SWIDTH 1000 0
DWIDTH 16 0
BBX 15 15 1 -1
BITMAP
0200
0400
3FF0
2010
2010
3FF0
2000
3FF8
2018
3FF8
0200
FFFE
0200
0200
0200
ENDCHAR
STARTCHAR 2FAA
ENCODING 12202
SWIDTH 1000 0
DWIDTH 16 0
BBX 14 15 1 -2
BITMAP
0200
0200
7FF0
0210
0210
FFFC
0210
7FF0
0208
3310
13E0
0AC0
3270
C21C
0E00
ENDCHAR
STARTCHAR 2FAB
ENCODING 12203
SWIDTH 1000 0
DWIDTH 16 0
BBX 13 14 1 -1
BITMAP
1080
1080
3100
3FF8
6100
E100
BFF0
2100
2100
3FF0
2100
2100
3FF8
2000
ENDCHAR
STARTCHAR 2FAC
ENCODING 12204
SWIDTH 1000 0
DWIDTH 16 0
BBX 14 13 1 -2
BITMAP
FFFC
0200
0200
7FF8
4208
52C8
4A68
4208
52C8
4A68
4228
4208
4278
ENDCHAR
STARTCHAR 2FAD
ENCODING 12205
SWIDTH 1000 0
DWIDTH 16 0
BBX 14 15 1 -2
BITMAP
0200
0200
FFFC
0200
7FF8
0200
FFFC
0000
3FF0
2210
2210
3FF0
2010
2010
21F0
ENDCHAR
STARTCHAR 2FAE
ENCODING 12206
SWIDTH 1000 0
DWIDTH 16 0
BBX 14 14 1 -2
BITMAP
0080
0480
0480
7CF8
0480
0480
7CF8
0480
0480
7EFC
C480
0880
1080
2080
ENDCHAR
STARTCHAR 2FAF
ENCODING 12207
SWIDTH 1000 0
DWIDTH 16 0
BBX 14 13 1 -1
BITMAP
FFFC
0200
0400
7FF8
4888
4888
4F88
4888
4F88
4888
4888
7FF8
4008
ENDCHAR
STARTCHAR 2FB0
ENCODING 12208
SWIDTH 1000 0
DWIDTH 16 0
BBX 14 16 1 -2
BITMAP
0840
0840
7FF8
0840
0840
0FC0
0200
3FF0
2210
3FF0
0200
0200
FFFC
0200
0200
0200
ENDCHAR
STARTCHAR 2FB1
ENCODING 12209
SWIDTH 1000 0
DWIDTH 16 0
BBX 14 14 1 -1
BITMAP
0600
3FE0
0420
FFFC
0000
3FF0
2030
3FF0
0100
3FF8
2100
FFFC
0100
0100
ENDCHAR
STARTCHAR 2FB2
ENCODING 12210
SWIDTH 1000 0
DWIDTH 16 0
BBX 14 14 1 -1
BITMAP
0480
0480
0480
FCFC
0480
0480
7CF8
0480
0480
7CF8
0480
0480
0480
FFFC
ENDCHAR
STARTCHAR 2FB3
ENCODING 12211
SWIDTH 1000 0
DWIDTH 16 0
BBX 14 14 1 -1
BITMAP
0200
0200
7FF8
1060
0840
FFFC
0000
3FF0
2010
2010
3FF0
2010
3FF0
2010
ENDCHAR
STARTCHAR 2FB4
ENCODING 12212
SWIDTH 1000 0
DWIDTH 16 0
BBX 13 14 1 -2
BITMAP
7FF8
0200
0200
3FF0
2010
3FF0
2010
2010
3FF0
2010
3FF0
08C0
3038
E008
ENDCHAR
STARTCHAR 2FB5
ENCODING 12213
SWIDTH 1000 0
DWIDTH 16 0
BBX 15 13 0 -2
BITMAP
3FF8
2008
2FE8
2108
27E8
2528
2528
27E8
2508
212E
4176
5F96
C012
ENDCHAR
STARTCHAR 2FB6
ENCODING 12214
SWIDTH 1000 0
DWIDTH 16 0
BBX 14 13 1 -2
BITMAP
7FC0
0250
1E70
F248
1224
1218
FFC0
1250
1270
1258
2224
2234
4218
ENDCHAR
STARTCHAR 2FB7
ENCODING 12215
SWIDTH 1000 0
DWIDTH 16 0
BBX 14 14 1 0
BITMAP
0700
0580
0AC0
1230
7FFC
D024
1FE0
1020
1FF0
1230
1160
10C0
1E38
6008
ENDCHAR
STARTCHAR 2FB8
ENCODING 12216
SWIDTH 1000 0
DWIDTH 16 0
BBX 14 15 1 -1
BITMAP
0040
1840
08C0
FFFC
0200
0200
3FF0
2010
3FF0
2010
2010
3FF0
2010
3FF0
2010
ENDCHAR
STARTCHAR 2FB9
ENCODING 12217
SWIDTH 1000 0
DWIDTH 16 0
BBX 14 14 1 0
BITMAP
03F0
7E00
0200
FFFC
0780
1AC0
3230
C20C
3FF0
2010
3FF0
2010
3FF0
2010
ENDCHAR
STARTCHAR 2FBA
ENCODING 12218
SWIDTH 1000 0
DWIDTH 16 0
BBX 13 14 2 -2
BITMAP
7FF0
4200
4200
7FE0
4200
7FE0
4200
4200
7FF8
0008
5248
DA58
9A10
80F0
ENDCHAR
STARTCHAR 2FBB
ENCODING 12219
SWIDTH 1000 0
DWIDTH 16 0
BBX 14 14 1 -1
BITMAP
1FE0
1020
1020
13E0
1220
FFFC
8004
9FE4
1020
1FE0
1FE0
1020
1020
10E0
ENDCHAR
STARTCHAR 2FBC
ENCODING 12220
SWIDTH 1000 0
DWIDTH 16 0
BBX 14 15 1 -2
BITMAP
0200
0200
FFFC
0000
1FE0
1020
1FE0
0000
7FF8
4008
4FC8
4848
4FC8
4808
4078
ENDCHAR
STARTCHAR 2FBD
ENCODING 12221
SWIDTH 1000 0
DWIDTH 16 0
BBX 14 13 1 0
BITMAP
7E18
4030
7E60
4188
7E18
4030
FF64
208C
6408
4610
5E30
E2C0
0080
ENDCHAR
STARTCHAR 2FBE
ENCODING 12222
SWIDTH 1000 0
DWIDTH 16 0
BBX 12 14 2 -2
BITMAP
8010
FFF0
9090
B9D0
9090
FFF0
8010
8010
8010
8010
8010
8010
8010
8070
ENDCHAR
STARTCHAR 2FBF
ENCODING 12223
SWIDTH 1000 0
DWIDTH 16 0
BBX 13 14 2 -1
BITMAP
8450
B290
8D10
B670
8D90
B6D0
A210
FFF0
0000
40E0
7F00
4018
4010
7FF0
ENDCHAR
STARTCHAR 2FC0
ENCODING 12224
SWIDTH 1000 0
DWIDTH 16 0
BBX 14 14 1 -1
BITMAP
FFFC
0000
1FE0
1020
1020
1FE0
7FF8
4508
49E8
5008
4FC8
4208
4208
4278
ENDCHAR
STARTCHAR 2FC1
ENCODING 12225
SWIDTH 1000 0
DWIDTH 16 0
BBX 14 14 1 -2
BITMAP
0600
0400
3FF0
2210
3FF0
2210
2210
3FF0
0920
0950
0948
19FC
3104
C1FC
ENDCHAR
STARTCHAR 2FC2
ENCODING 12226
SWIDTH 1000 0
DWIDTH 16 0
BBX 13 14 1 -1
BITMAP
0C00
1FC0
3080
7FF0
E110
2110
3FF0
2110
2110
3FF0
0000
2490
4488
C648
ENDCHAR
STARTCHAR 2FC3
ENCODING 12227
SWIDTH 1000 0
DWIDTH 16 0
BBX 14 15 1 -2
BITMAP
0200
0200
3FF0
2010
3FF0
2010
3FF0
2000
3FFC
3FFC
004C
6B6C
4928
C908
8878
ENDCHAR
STARTCHAR 2FC4
ENCODING 12228
SWIDTH 1000 0
DWIDTH 16 0
BBX 12 14 2 0
BITMAP
0400
07E0
0400
FFF0
8050
A490
9910
A6D0
B770
9990
B6D0
8210
FFF0
8010
ENDCHAR
STARTCHAR 2FC5
ENCODING 12229
SWIDTH 1000 0
DWIDTH 16 0
BBX 14 15 1 -1
BITMAP
0100
0100
7FFC
4480
4480
7FF8
4488
4488
7FF8
4880
4FF8
4880
C884
BFFC
8000
ENDCHAR
STARTCHAR 2FC6
ENCODING 12230
SWIDTH 1000 0
DWIDTH 16 0
BBX 14 15 1 -2
BITMAP
0200
0200
FFF8
1220
3240
37E0
CE90
1AC0
3430
CFDC
98C0
6780
0380
0C60
7030
ENDCHAR
STARTCHAR 2FC7
ENCODING 12231
SWIDTH 1000 0
DWIDTH 16 0
BBX 14 14 1 -1
BITMAP
0100
0100
7FFC
4000
4420
4420
7FFC
4420
4E70
4D78
54A8
74A4
A524
8420
ENDCHAR
STARTCHAR 2FC8
ENCODING 12232
SWIDTH 1000 0
DWIDTH 16 0
BBX 14 14 1 0
BITMAP
0840
7FF8
0840
0FC0
0000
FFFC
3FF0
2310
3FF0
2310
3FF0
0840
7038
4000
ENDCHAR
STARTCHAR 2FC9
ENCODING 12233
SWIDTH 1000 0
DWIDTH 16 0
BBX 14 14 1 -2
BITMAP
0020
7FC0
0200
FFF8
0F80
1A60
E71C
8D80
1A60
E25C
9A40
0FC0
3270
4E10
ENDCHAR
STARTCHAR 2FCA
ENCODING 12234
SWIDTH 1000 0
DWIDTH 16 0
BBX 14 14 1 -2
BITMAP
3FF0
2210
2210
3FF0
2210
3FF0
0200
7FF8
0200
FFFC
2090
2498
448C
4480
ENDCHAR
STARTCHAR 2FCB
ENCODING 12235
SWIDTH 1000 0
DWIDTH 16 0
BBX 15 14 1 -1
BITMAP
2498
1490
14B0
FFFE
0A60
321C
7FF8
2208
2A48
2A48
2A48
2A48
2A08
2278
ENDCHAR
STARTCHAR 2FCC
ENCODING 12236
SWIDTH 1000 0
DWIDTH 16 0
BBX 13 14 2 -1
BITMAP
FFF0
8910
8910
F9F0
0900
F9F0
8910
8910
F9F0
8910
F9F0
8908
0808
0FF8
ENDCHAR
STARTCHAR 2FCD
ENCODING 12237
SWIDTH 1000 0
DWIDTH 16 0
BBX 14 14 1 -2
BITMAP
4FC8
4848
4FC8
4848
4FC8
4848
4FC8
7CF8
0480
FCFC
3490
2490
6490
C490
ENDCHAR
STARTCHAR 2FCE
ENCODING 12238
SWIDTH 1000 0
DWIDTH 16 0
BBX 14 15 1 -2
BITMAP
1020
1020
FE20
13FC
1020
7C20
0020
7DFC
4488
7C48
0870
2820
2E78
7DCC
4304
ENDCHAR
STARTCHAR 2FCF
ENCODING 12239
SWIDTH 1000 0
DWIDTH 16 0
BBX 14 14 1 -2
BITMAP
0400
79F8
6008
7DF8
6008
7FF8
0000
3B90
2650
3210
2AD0
2254
3A7C
E78C
ENDCHAR
STARTCHAR 2FD0
ENCODING 12240
SWIDTH 1000 0
DWIDTH 16 0
BBX 14 15 1 -1
BITMAP
0200
3FF0
3FF0
3FF0
2010
3FF0
7FF8
4308
7FF8
7FF8
0840
FFFC
1840
3040
4000
ENDCHAR
STARTCHAR 2FD1
ENCODING 12241
SWIDTH 1000 0
DWIDTH 16 0
BBX 14 15 1 -2
BITMAP
0200
0200
FFFC
FDF0
2A50
4A68
9AC4
2010
3FF0
2010
2010
3FF0
2010
4010
4010
ENDCHAR
STARTCHAR 2FD2
ENCODING 12242
SWIDTH 1000 0
DWIDTH 16 0
BBX 14 14 1 0
BITMAP
0200
13F0
1200
FFFC
04C0
4888
4DE8
5128
7FF8
40C8
4CC8
5328
7FF8
4008
ENDCHAR
STARTCHAR 2FD3
ENCODING 12243
SWIDTH 1000 0
DWIDTH 16 0
BBX 14 16 1 -2
BITMAP
1080
1080
FEF8
4880
28F8
FE08
00F8
7C80
44F8
7C80
44F8
7C80
44F8
4484
5CFC
4000
ENDCHAR
STARTCHAR 2FD4
ENCODING 12244
SWIDTH 1000 0
DWIDTH 16 0
BBX 15 15 1 -1
BITMAP
0C00
0FC0
1080
3FF8
E288
3EF8
7A80
FFFC
0AAC
7AB4
7AAC
FFFC
0A80
7A86
03FC
ENDCHAR
STARTCHAR 2FD5
ENCODING 12245
SWIDTH 1000 0
DWIDTH 16 0
BBX 13 14 2 -1
BITMAP
0600
0900
30C0
FFF8
EF70
A950
EF70
0000
FFF0
8910
FFF0
8910
8910
8970
ENDCHAR
STARTCHAR 2FF0
ENCODING 12272
SWIDTH 1000 0
DWIDTH 16 0
BBX 0 0 2 0
BITMAP
ENDCHAR
STARTCHAR 2FF1
ENCODING 12273
SWIDTH 1000 0
DWIDTH 16 0
BBX 0 0 2 0
BITMAP
ENDCHAR
STARTCHAR 2FF2
ENCODING 12274
SWIDTH 1000 0
DWIDTH 16 0
BBX 0 0 2 0
BITMAP
ENDCHAR
STARTCHAR 2FF3
ENCODING 12275
SWIDTH 1000 0
DWIDTH 16 0
BBX 0 0 2 0
BITMAP
ENDCHAR
STARTCHAR 2FF4
ENCODING 12276
SWIDTH 1000 0
DWIDTH 16 0
BBX 0 0 3 0
BITMAP
ENDCHAR
STARTCHAR 2FF5
ENCODING 12277
SWIDTH 1000 0
DWIDTH 16 0
BBX 0 0 2 0
BITMAP
ENDCHAR
STARTCHAR 2FF6
ENCODING 12278
SWIDTH 1000 0
DWIDTH 16 0
BBX 0 0 2 0
BITMAP
ENDCHAR
STARTCHAR 2FF7
ENCODING 12279
SWIDTH 1000 0
DWIDTH 16 0
BBX 0 0 2 0
BITMAP
ENDCHAR
STARTCHAR 2FF8
ENCODING 12280
SWIDTH 1000 0
DWIDTH 16 0
BBX 0 0 2 0
BITMAP
ENDCHAR
STARTCHAR 2FF9
ENCODING 12281
SWIDTH 1000 0
DWIDTH 16 0
BBX 0 0 2 0
BITMAP
ENDCHAR
STARTCHAR 2FFA
ENCODING 12282
SWIDTH 1000 0
DWIDTH 16 0
BBX 0 0 3 0
BITMAP
ENDCHAR
STARTCHAR 2FFB
ENCODING 12283
SWIDTH 1000 0
DWIDTH 16 0
BBX 0 0 3 0
BITMAP
ENDCHAR
STARTCHAR 3000
ENCODING 12288
SWIDTH 1000 0
DWIDTH 16 0
BBX 0 0 0 0
BITMAP
ENDCHAR
STARTCHAR 3001
ENCODING 12289
SWIDTH 1000 0
DWIDTH 16 0
BBX 3 4 1 -1
BITMAP
80
C0
60
20
ENDCHAR
STARTCHAR 3002
ENCODING 12290
SWIDTH 1000 0
DWIDTH 16 0
BBX 4 4 1 -1
BITMAP
60
90
90
60
ENDCHAR
STARTCHAR 3003
ENCODING 12291
SWIDTH 1000 0
DWIDTH 16 0
BBX 7 7 4 2
BITMAP
32
36
24
64
4C
48
88
ENDCHAR
STARTCHAR 3004
ENCODING 12292
SWIDTH 1000 0
DWIDTH 16 0
BBX 15 15 1 -1
BITMAP
0E60
3050
6048
4044
8142
81C2
8102
8102
8F02
8802
4804
4408
2410
1C60
0080
ENDCHAR
STARTCHAR 3005
ENCODING 12293
SWIDTH 1000 0
DWIDTH 16 0
BBX 10 9 3 2
BITMAP
1800
1000
3FC0
2080
6180
C100
9A00
0400
0200
ENDCHAR
STARTCHAR 3006
ENCODING 12294
SWIDTH 1000 0
DWIDTH 16 0
BBX 11 12 2 0
BITMAP
0020
0020
0040
1880
3780
6300
6780
4C80
D800
F000
E000
C000
ENDCHAR
STARTCHAR 3007
ENCODING 12295
SWIDTH 1000 0
DWIDTH 16 0
BBX 14 14 1 -1
BITMAP
0F80
1860
2010
4008
C008
8004
8004
8004
8004
4008
4008
2010
1860
0780
ENDCHAR
STARTCHAR 3008
ENCODING 12296
SWIDTH 1000 0
DWIDTH 16 0
BBX 6 14 9 -1
BITMAP
0C
18
10
20
60
40
80
80
40
60
30
10
08
0C
ENDCHAR
STARTCHAR 3009
ENCODING 12297
SWIDTH 1000 0
DWIDTH 16 0
BBX 6 14 1 -1
BITMAP
C0
60
20
10
18
08
04
04
08
18
10
20
40
C0
ENDCHAR
STARTCHAR 300A
ENCODING 12298
SWIDTH 1000 0
DWIDTH 16 0
BBX 6 14 9 -1
BITMAP
14
24
28
50
50
A0
A0
A0
A0
50
48
28
24
14
ENDCHAR
STARTCHAR 300B
ENCODING 12299
SWIDTH 1000 0
DWIDTH 16 0
BBX 6 14 1 -1
BITMAP
A0
90
50
28
28
14
14
14
14
28
48
50
90
A0
ENDCHAR
STARTCHAR 300C
ENCODING 12300
SWIDTH 1000 0
DWIDTH 16 0
BBX 4 12 10 1
BITMAP
F0
80
80
80
80
80
80
80
80
80
80
80
ENDCHAR
STARTCHAR 300D
ENCODING 12301
SWIDTH 1000 0
DWIDTH 16 0
BBX 4 12 2 -1
BITMAP
10
10
10
10
10
10
10
10
10
10
10
F0
ENDCHAR
STARTCHAR 300E
ENCODING 12302
SWIDTH 1000 0
DWIDTH 16 0
BBX 6 11 9 2
BITMAP
FC
84
BC
A0
A0
A0
A0
A0
A0
A0
E0
ENDCHAR
STARTCHAR 300F
ENCODING 12303
SWIDTH 1000 0
DWIDTH 16 0
BBX 6 12 1 -1
BITMAP
1C
14
14
14
14
14
14
14
14
F4
84
FC
ENDCHAR
STARTCHAR 3010
ENCODING 12304
SWIDTH 1000 0
DWIDTH 16 0
BBX 3 14 11 -1
BITMAP
E0
E0
C0
C0
80
80
80
80
80
80
C0
C0
E0
E0
ENDCHAR
STARTCHAR 3011
ENCODING 12305
SWIDTH 1000 0
DWIDTH 16 0
BBX 3 14 2 -1
BITMAP
E0
E0
60
60
20
20
20
20
20
20
60
60
E0
E0
ENDCHAR
STARTCHAR 3012
ENCODING 12306
SWIDTH 1000 0
DWIDTH 16 0
BBX 12 13 2 -1
BITMAP
FFF0
FFF0
0000
0000
FFF0
FFF0
0600
0600
0600
0600
0600
0600
0600
ENDCHAR
STARTCHAR 3013
ENCODING 12307
SWIDTH 1000 0
DWIDTH 16 0
BBX 12 7 2 3
BITMAP
FFF0
FFF0
FFF0
0000
0000
FFF0
FFF0
ENDCHAR
STARTCHAR 3014
ENCODING 12308
SWIDTH 1000 0
DWIDTH 16 0
BBX 4 14 11 -1
BITMAP
30
C0
80
80
80
80
80
80
80
80
80
80
E0
30
ENDCHAR
STARTCHAR 3015
ENCODING 12309
SWIDTH 1000 0
DWIDTH 16 0
BBX 4 14 1 -1
BITMAP
C0
30
10
10
10
10
10
10
10
10
10
10
70
C0
ENDCHAR
STARTCHAR 3016
ENCODING 12310
SWIDTH 1000 0
DWIDTH 16 0
BBX 5 14 10 -1
BITMAP
F8
90
90
90
A0
A0
A0
A0
A0
A0
90
90
90
F8
ENDCHAR
STARTCHAR 3017
ENCODING 12311
SWIDTH 1000 0
DWIDTH 16 0
BBX 5 14 1 -1
BITMAP
F8
48
48
48
28
28
28
28
28
28
48
48
48
F8
ENDCHAR
STARTCHAR 3018
ENCODING 12312
SWIDTH 1000 0
DWIDTH 16 0
BBX 5 14 10 -1
BITMAP
18
68
88
B0
A0
A0
A0
A0
A0
A0
B0
88
68
18
ENDCHAR
STARTCHAR 3019
ENCODING 12313
SWIDTH 1000 0
DWIDTH 16 0
BBX 5 14 1 -1
BITMAP
C0
B0
88
68
28
28
28
28
28
28
68
88
B0
C0
ENDCHAR
STARTCHAR 301C
ENCODING 12316
SWIDTH 1000 0
DWIDTH 16 0
BBX 12 4 2 4
BITMAP
7800
8C10
0310
01E0
ENDCHAR
STARTCHAR 301D
ENCODING 12317
SWIDTH 1000 0
DWIDTH 16 0
BBX 4 6 11 7
BITMAP
C0
60
10
C0
60
30
ENDCHAR
STARTCHAR 301F
ENCODING 12319
SWIDTH 1000 0
DWIDTH 16 0
BBX 4 6 1 -1
BITMAP
C0
60
10
C0
60
10
ENDCHAR
STARTCHAR 3020
ENCODING 12320
SWIDTH 1000 0
DWIDTH 16 0
BBX 15 10 0 1
BITMAP
3FF8
0000
3FF8
0100
9D72
9932
4924
2448
1390
0FE0
ENDCHAR
STARTCHAR 3033
ENCODING 12339
SWIDTH 1000 0
DWIDTH 16 0
BBX 7 14 4 -1
BITMAP
06
04
0C
0C
08
18
10
30
20
60
40
C0
80
80
ENDCHAR
STARTCHAR 3034
ENCODING 12340
SWIDTH 1000 0
DWIDTH 16 0
BBX 9 14 4 -1
BITMAP
0600
0400
0C00
0C00
0800
1800
1180
3280
2300
6000
4000
C000
8000
8000
ENDCHAR
STARTCHAR 3035
ENCODING 12341
SWIDTH 1000 0
DWIDTH 16 0
BBX 7 14 4 0
BITMAP
80
80
C0
60
20
30
10
18
18
0C
0C
06
06
02
ENDCHAR
STARTCHAR 3036
ENCODING 12342
SWIDTH 1000 0
DWIDTH 16 0
BBX 15 15 0 -1
BITMAP
07C0
1830
2008
4004
5FF4
8002
8002
9FF2
8102
8102
4104
4104
2108
1830
07C0
ENDCHAR
STARTCHAR 303B
ENCODING 12347
SWIDTH 1000 0
DWIDTH 16 0
BBX 6 10 5 1
BITMAP
40
20
18
78
40
40
20
18
3C
C0
ENDCHAR
STARTCHAR 303C
ENCODING 12348
SWIDTH 1000 0
DWIDTH 16 0
BBX 14 14 1 -1
BITMAP
FFFC
800C
8014
8024
8044
8084
8104
8204
8404
8804
9004
A004
C004
FFFC
ENDCHAR
STARTCHAR 303D
ENCODING 12349
SWIDTH 1000 0
DWIDTH 16 0
BBX 13 14 2 -2
BITMAP
E000
A600
1B00
1900
0100
0180
0080
0080
00C0
0040
0060
0020
0030
0018
ENDCHAR
STARTCHAR 3041
ENCODING 12353
SWIDTH 1000 0
DWIDTH 16 0
BBX 10 11 3 -1
BITMAP
1000
1100
7E00
1200
1F80
34C0
5440
9840
9040
F180
0200
ENDCHAR
STARTCHAR 3042
ENCODING 12354
SWIDTH 1000 0
DWIDTH 16 0
BBX 12 13 2 0
BITMAP
0800
0BC0
FE00
0900
0B80
1D60
3B30
5A10
CC10
8C10
9820
E9C0
0100
ENDCHAR
STARTCHAR 3043
ENCODING 12355
SWIDTH 1000 0
DWIDTH 16 0
BBX 10 8 3 1
BITMAP
C100
C180
C080
40C0
4040
6840
7800
3000
ENDCHAR
STARTCHAR 3044
ENCODING 12356
SWIDTH 1000 0
DWIDTH 16 0
BBX 12 11 2 0
BITMAP
C000
C0C0
C040
C060
C030
C010
4010
4410
6C00
3C00
1800
ENDCHAR
STARTCHAR 3045
ENCODING 12357
SWIDTH 1000 0
DWIDTH 16 0
BBX 7 11 4 0
BITMAP
38
04
00
7C
C2
02
02
02
04
18
30
ENDCHAR
STARTCHAR 3046
ENCODING 12358
SWIDTH 1000 0
DWIDTH 16 0
BBX 9 14 3 -1
BITMAP
1000
0E00
0200
0000
1F00
E180
8080
0080
0080
0080
0100
0200
1C00
1000
ENDCHAR
STARTCHAR 3047
ENCODING 12359
SWIDTH 1000 0
DWIDTH 16 0
BBX 10 10 3 0
BITMAP
1800
0600
0000
7E00
0600
0C00
1C00
3200
6200
C3C0
ENDCHAR
STARTCHAR 3048
ENCODING 12360
SWIDTH 1000 0
DWIDTH 16 0
BBX 12 12 2 0
BITMAP
0E00
0300
0000
0F00
7900
0200
0400
0E00
1900
2100
6100
C1F0
ENDCHAR
STARTCHAR 3049
ENCODING 12361
SWIDTH 1000 0
DWIDTH 16 0
BBX 10 10 3 -1
BITMAP
1000
1100
3CC0
7040
1000
1F80
7040
9040
9040
7780
ENDCHAR
STARTCHAR 304A
ENCODING 12362
SWIDTH 1000 0
DWIDTH 16 0
BBX 12 12 2 0
BITMAP
1000
1080
1E60
F830
1000
1000
1F80
7060
D020
9020
9060
7780
ENDCHAR
STARTCHAR 304B
ENCODING 12363
SWIDTH 1000 0
DWIDTH 16 0
BBX 13 12 2 0
BITMAP
0800
0800
1840
7E20
D130
1110
2118
2100
6100
4100
D200
9E00
ENDCHAR
STARTCHAR 304C
ENCODING 12364
SWIDTH 1000 0
DWIDTH 16 0
BBX 13 13 2 0
BITMAP
0018
0828
0810
18D0
7E60
D120
1110
2118
2100
6100
4100
D200
9E00
ENDCHAR
STARTCHAR 304D
ENCODING 12365
SWIDTH 1000 0
DWIDTH 16 0
BBX 10 13 3 -1
BITMAP
1000
1800
0F00
FC00
05C0
3F00
E200
0100
7F80
C180
8000
C000
3F00
ENDCHAR
STARTCHAR 304E
ENCODING 12366
SWIDTH 1000 0
DWIDTH 16 0
BBX 13 13 3 0
BITMAP
1050
1968
0F20
F800
05C0
3F00
E200
0100
7F80
C180
8000
C000
3F00
ENDCHAR
STARTCHAR 304F
ENCODING 12367
SWIDTH 1000 0
DWIDTH 16 0
BBX 7 13 4 -1
BITMAP
04
04
08
18
20
40
80
C0
60
30
18
0C
06
ENDCHAR
STARTCHAR 3050
ENCODING 12368
SWIDTH 1000 0
DWIDTH 16 0
BBX 10 13 4 -1
BITMAP
0400
0C80
08C0
1140
2080
4000
8000
C000
6000
3000
1800
0C00
0600
ENDCHAR
STARTCHAR 3051
ENCODING 12369
SWIDTH 1000 0
DWIDTH 16 0
BBX 12 13 2 0
BITMAP
4040
4040
4040
8070
8FC0
8040
8040
9040
A040
E0C0
4080
4300
0200
ENDCHAR
STARTCHAR 3052
ENCODING 12370
SWIDTH 1000 0
DWIDTH 16 0
BBX 14 14 2 0
BITMAP
0038
40D4
4050
4040
80F0
8FC0
8040
8040
A040
A040
C0C0
C080
4300
0200
ENDCHAR
STARTCHAR 3053
ENCODING 12371
SWIDTH 1000 0
DWIDTH 16 0
BBX 10 11 3 0
BITMAP
7F80
0300
0C00
0800
0000
0000
C000
8000
8000
4040
3FC0
ENDCHAR
STARTCHAR 3054
ENCODING 12372
SWIDTH 1000 0
DWIDTH 16 0
BBX 12 13 3 1
BITMAP
0030
0050
7F20
0620
0C00
0000
0000
0000
C000
8000
8000
C040
3FC0
ENDCHAR
STARTCHAR 3055
ENCODING 12373
SWIDTH 1000 0
DWIDTH 16 0
BBX 10 13 3 -1
BITMAP
0800
0800
0CC0
0780
FE00
0200
0300
0180
7F80
C080
8000
C000
3F00
ENDCHAR
STARTCHAR 3056
ENCODING 12374
SWIDTH 1000 0
DWIDTH 16 0
BBX 14 13 2 0
BITMAP
0008
0C34
0450
07C0
FE00
0300
0100
0080
3FC0
4040
4000
6000
1F80
ENDCHAR
STARTCHAR 3057
ENCODING 12375
SWIDTH 1000 0
DWIDTH 16 0
BBX 10 13 4 0
BITMAP
C000
C000
C000
C000
C000
C000
C000
C000
C0C0
C080
C180
4300
3C00
ENDCHAR
STARTCHAR 3058
ENCODING 12376
SWIDTH 1000 0
DWIDTH 16 0
BBX 10 13 4 0
BITMAP
C180
C2C0
C100
C000
C000
C000
C000
8000
80C0
8080
C100
4200
3C00
ENDCHAR
STARTCHAR 3059
ENCODING 12377
SWIDTH 1000 0
DWIDTH 16 0
BBX 13 14 2 -2
BITMAP
0100
0100
0100
FFF8
0100
0F00
1100
1100
1100
0F00
0100
0200
0600
0800
ENDCHAR
STARTCHAR 305A
ENCODING 12378
SWIDTH 1000 0
DWIDTH 16 0
BBX 13 14 1 -1
BITMAP
0128
0130
0100
FFF8
0100
0F00
1100
1100
1100
0F00
0100
0200
0600
0800
ENDCHAR
STARTCHAR 305B
ENCODING 12379
SWIDTH 1000 0
DWIDTH 16 0
BBX 13 12 1 0
BITMAP
0040
1040
1040
1078
FFC0
1040
1040
1040
11C0
1000
1000
0FF0
ENDCHAR
STARTCHAR 305C
ENCODING 12380
SWIDTH 1000 0
DWIDTH 16 0
BBX 14 13 1 0
BITMAP
0004
0054
1048
1040
1058
FFF0
1040
1040
1040
11C0
1000
1000
0FF0
ENDCHAR
STARTCHAR 305D
ENCODING 12381
SWIDTH 1000 0
DWIDTH 16 0
BBX 12 13 2 0
BITMAP
1F80
3980
0300
0600
08F0
FF80
8600
0800
0800
0800
0C00
07C0
00C0
ENDCHAR
STARTCHAR 305E
ENCODING 12382
SWIDTH 1000 0
DWIDTH 16 0
BBX 14 13 2 0
BITMAP
1F88
31AC
0310
0400
08F0
FF80
8400
0800
0800
0800
0C00
07C0
00C0
ENDCHAR
STARTCHAR 305F
ENCODING 12383
SWIDTH 1000 0
DWIDTH 16 0
BBX 12 13 2 -1
BITMAP
0800
0800
1800
FE00
1000
1070
33E0
2000
2000
6000
4400
C600
81F0
ENDCHAR
STARTCHAR 3060
ENCODING 12384
SWIDTH 1000 0
DWIDTH 16 0
BBX 12 13 2 -1
BITMAP
0020
0850
1860
FE20
1000
1000
33E0
2000
2000
6000
4400
C600
81F0
ENDCHAR
STARTCHAR 3061
ENCODING 12385
SWIDTH 1000 0
DWIDTH 16 0
BBX 12 13 2 -1
BITMAP
0800
0800
1880
FF80
1000
1000
33C0
2C20
3010
2010
0030
0060
0FC0
ENDCHAR
STARTCHAR 3062
ENCODING 12386
SWIDTH 1000 0
DWIDTH 16 0
BBX 14 13 2 0
BITMAP
0808
082C
1890
FF80
1000
1000
33C0
2C20
3010
2010
0030
0060
0FC0
ENDCHAR
STARTCHAR 3063
ENCODING 12387
SWIDTH 1000 0
DWIDTH 16 0
BBX 10 8 3 -1
BITMAP
1F00
E080
8040
0040
0040
0080
0300
1C00
ENDCHAR
STARTCHAR 3064
ENCODING 12388
SWIDTH 1000 0
DWIDTH 16 0
BBX 12 9 2 0
BITMAP
1FC0
F020
0010
0010
0010
0010
0020
01C0
1F00
ENDCHAR
STARTCHAR 3065
ENCODING 12389
SWIDTH 1000 0
DWIDTH 16 0
BBX 14 12 1 1
BITMAP
0008
0014
0008
0FE0
F810
0008
0008
0008
0008
0010
0060
0FC0
ENDCHAR
STARTCHAR 3066
ENCODING 12390
SWIDTH 1000 0
DWIDTH 16 0
BBX 12 11 2 0
BITMAP
1FF0
F100
0600
0400
0800
0800
0800
0800
0C00
0600
01C0
ENDCHAR
STARTCHAR 3067
ENCODING 12391
SWIDTH 1000 0
DWIDTH 16 0
BBX 12 11 2 0
BITMAP
1FF0
F100
0630
0450
0820
0820
0800
0800
0C00
0600
01C0
ENDCHAR
STARTCHAR 3068
ENCODING 12392
SWIDTH 1000 0
DWIDTH 16 0
BBX 10 12 3 0
BITMAP
2000
3000
1000
1080
1F80
1C00
3000
4000
8000
8000
C000
3FC0
ENDCHAR
STARTCHAR 3069
ENCODING 12393
SWIDTH 1000 0
DWIDTH 16 0
BBX 12 13 3 -1
BITMAP
0020
20B0
3050
1000
1080
1F80
1C00
3000
4000
8000
8000
C000
3FC0
ENDCHAR
STARTCHAR 306A
ENCODING 12394
SWIDTH 1000 0
DWIDTH 16 0
BBX 13 14 2 -1
BITMAP
0800
1800
1000
FE60
1030
2090
2080
6080
4080
C780
88E0
08B8
0880
0700
ENDCHAR
STARTCHAR 306B
ENCODING 12395
SWIDTH 1000 0
DWIDTH 16 0
BBX 12 12 2 -1
BITMAP
6000
4000
47E0
C000
8000
8000
8000
A000
A800
E800
CC10
43F0
ENDCHAR
STARTCHAR 306C
ENCODING 12396
SWIDTH 1000 0
DWIDTH 16 0
BBX 14 12 1 1
BITMAP
0100
4100
63C0
2D30
3210
3208
5208
8C08
8CE8
8D18
911C
60E0
ENDCHAR
STARTCHAR 306D
ENCODING 12397
SWIDTH 1000 0
DWIDTH 16 0
BBX 14 13 1 0
BITMAP
1800
1800
18E0
FB10
1408
1808
1008
3008
78E8
D918
191C
18E4
1800
ENDCHAR
STARTCHAR 306E
ENCODING 12398
SWIDTH 1000 0
DWIDTH 16 0
BBX 13 11 2 -1
BITMAP
0FC0
3260
4610
4408
8408
8408
8C08
8818
5830
70E0
0380
ENDCHAR
STARTCHAR 306F
ENCODING 12399
SWIDTH 1000 0
DWIDTH 16 0
BBX 13 12 2 0
BITMAP
4080
4080
4090
8FF0
8080
8080
8080
A080
A780
C8F0
C898
C780
ENDCHAR
STARTCHAR 3070
ENCODING 12400
SWIDTH 1000 0
DWIDTH 16 0
BBX 14 13 2 0
BITMAP
0028
4094
4090
4090
8FF0
8080
8080
8080
A080
A780
C8E0
C898
C780
ENDCHAR
STARTCHAR 3071
ENCODING 12401
SWIDTH 1000 0
DWIDTH 16 0
BBX 14 14 2 -1
BITMAP
0018
0024
40A4
4098
4080
8FF0
8080
8080
8080
A080
A780
C8E0
C898
C780
ENDCHAR
STARTCHAR 3072
ENCODING 12402
SWIDTH 1000 0
DWIDTH 16 0
BBX 14 11 1 1
BITMAP
0C40
F420
0830
1030
1028
202C
2020
2020
2040
10C0
0F80
ENDCHAR
STARTCHAR 3073
ENCODING 12403
SWIDTH 1000 0
DWIDTH 16 0
BBX 15 15 1 -1
BITMAP
0008
000C
0016
0C48
FC60
0860
1050
1058
204C
2040
2040
2040
2080
1180
0F00
ENDCHAR
STARTCHAR 3074
ENCODING 12404
SWIDTH 1000 0
DWIDTH 16 0
BBX 15 14 1 -1
BITMAP
000C
0012
0C52
FC6C
0860
1050
1058
204C
2040
2040
2040
2080
1180
0F00
ENDCHAR
STARTCHAR 3075
ENCODING 12405
SWIDTH 1000 0
DWIDTH 16 0
BBX 14 12 1 1
BITMAP
0600
0380
0080
0000
0200
0220
2230
2118
6088
C08C
9880
0700
ENDCHAR
STARTCHAR 3076
ENCODING 12406
SWIDTH 1000 0
DWIDTH 16 0
BBX 14 13 1 0
BITMAP
0008
060C
0394
0088
0000
0200
0220
2230
2118
6088
C08C
9880
0700
ENDCHAR
STARTCHAR 3077
ENCODING 12407
SWIDTH 1000 0
DWIDTH 16 0
BBX 14 12 1 1
BITMAP
0618
03A4
0098
0000
0200
0220
2230
2118
6088
C08C
9880
0700
ENDCHAR
STARTCHAR 3078
ENCODING 12408
SWIDTH 1000 0
DWIDTH 16 0
BBX 14 7 1 2
BITMAP
0400
0E00
1B00
31C0
60E0
C030
001C
ENDCHAR
STARTCHAR 3079
ENCODING 12409
SWIDTH 1000 0
DWIDTH 16 0
BBX 13 10 1 3
BITMAP
0030
0058
0020
0C20
1F00
3380
60C0
C070
0038
0008
ENDCHAR
STARTCHAR 307A
ENCODING 12410
SWIDTH 1000 0
DWIDTH 16 0
BBX 13 9 1 2
BITMAP
0030
0048
0C30
1F00
3380
60C0
C070
0038
0008
ENDCHAR
STARTCHAR 307B
ENCODING 12411
SWIDTH 1000 0
DWIDTH 16 0
BBX 12 12 2 0
BITMAP
4010
4FE0
C080
8080
8FF0
8080
8080
A080
A780
C8E0
C890
C780
ENDCHAR
STARTCHAR 307C
ENCODING 12412
SWIDTH 1000 0
DWIDTH 16 0
BBX 14 13 2 0
BITMAP
0028
4014
CFD0
C080
8080
8FF0
8080
8080
8080
E780
C8E0
C890
C780
ENDCHAR
STARTCHAR 307D
ENCODING 12413
SWIDTH 1000 0
DWIDTH 16 0
BBX 14 13 2 -1
BITMAP
0018
4024
CFD8
C080
8080
8FF0
8080
8080
8080
E780
C8E0
C890
C780
ENDCHAR
STARTCHAR 307E
ENCODING 12414
SWIDTH 1000 0
DWIDTH 16 0
BBX 10 13 3 0
BITMAP
0400
0400
0440
FFC0
0400
0440
7FC0
0400
0400
7C00
8700
85C0
7C40
ENDCHAR
STARTCHAR 307F
ENCODING 12415
SWIDTH 1000 0
DWIDTH 16 0
BBX 14 12 1 -1
BITMAP
0100
3F00
0100
0210
0210
0F10
74F0
C438
882C
9060
60C0
0180
ENDCHAR
STARTCHAR 3080
ENCODING 12416
SWIDTH 1000 0
DWIDTH 16 0
BBX 14 12 1 1
BITMAP
0800
0800
FF30
0818
080C
7800
C800
8830
8810
7010
1030
1FE0
ENDCHAR
STARTCHAR 3081
ENCODING 12417
SWIDTH 1000 0
DWIDTH 16 0
BBX 13 12 1 0
BITMAP
0080
2180
2180
3F60
3110
7208
4A08
8E08
8408
8E10
9030
61C0
ENDCHAR
STARTCHAR 3082
ENCODING 12418
SWIDTH 1000 0
DWIDTH 16 0
BBX 11 14 2 -1
BITMAP
0800
0800
0800
FF80
1C00
0800
1800
7F00
1020
1020
1020
1020
0840
0780
ENDCHAR
STARTCHAR 3083
ENCODING 12419
SWIDTH 1000 0
DWIDTH 16 0
BBX 10 11 3 0
BITMAP
0C00
4400
2780
3840
F040
10C0
1300
0800
0800
0800
0800
ENDCHAR
STARTCHAR 3084
ENCODING 12420
SWIDTH 1000 0
DWIDTH 16 0
BBX 13 13 1 -1
BITMAP
0200
0300
3080
10F0
1F08
3808
E808
0418
04E0
0600
0200
0200
0300
ENDCHAR
STARTCHAR 3085
ENCODING 12421
SWIDTH 1000 0
DWIDTH 16 0
BBX 10 11 3 -1
BITMAP
0400
C600
8F80
B2C0
A240
C240
92C0
8F00
8400
0C00
0800
ENDCHAR
STARTCHAR 3086
ENCODING 12422
SWIDTH 1000 0
DWIDTH 16 0
BBX 12 13 2 0
BITMAP
0100
C100
87C0
9920
B110
A110
C110
8930
8F60
8380
0200
0600
0400
ENDCHAR
STARTCHAR 3087
ENCODING 12423
SWIDTH 1000 0
DWIDTH 16 0
BBX 8 10 4 -1
BITMAP
10
10
10
1F
10
10
18
7C
8F
79
ENDCHAR
STARTCHAR 3088
ENCODING 12424
SWIDTH 1000 0
DWIDTH 16 0
BBX 11 12 2 1
BITMAP
0400
0400
0400
07C0
0400
0400
0400
0400
7E00
8780
8460
7C20
ENDCHAR
STARTCHAR 3089
ENCODING 12425
SWIDTH 1000 0
DWIDTH 16 0
BBX 11 14 3 -1
BITMAP
1000
1C00
0600
6000
4000
4000
4780
5860
E020
C020
0060
00C0
1F80
1800
ENDCHAR
STARTCHAR 308A
ENCODING 12426
SWIDTH 1000 0
DWIDTH 16 0
BBX 8 13 4 0
BITMAP
81
81
81
81
A1
A1
C1
C1
03
02
06
18
10
ENDCHAR
STARTCHAR 308B
ENCODING 12427
SWIDTH 1000 0
DWIDTH 16 0
BBX 10 12 3 0
BITMAP
1F00
7A00
0600
0C00
1800
3F80
70C0
C040
9840
2440
2280
1F00
ENDCHAR
STARTCHAR 308C
ENCODING 12428
SWIDTH 1000 0
DWIDTH 16 0
BBX 14 13 1 -1
BITMAP
0800
0800
0800
39E0
7B20
1C20
1820
1820
3820
7824
D824
182C
1838
ENDCHAR
STARTCHAR 308D
ENCODING 12429
SWIDTH 1000 0
DWIDTH 16 0
BBX 11 12 3 -1
BITMAP
0F00
7B00
0600
0C00
1800
3780
7840
E020
8020
0060
00C0
3F80
ENDCHAR
STARTCHAR 308E
ENCODING 12430
SWIDTH 1000 0
DWIDTH 16 0
BBX 10 11 3 -1
BITMAP
2000
2000
7000
B780
38C0
2040
6040
A040
2180
2700
2000
ENDCHAR
STARTCHAR 308F
ENCODING 12431
SWIDTH 1000 0
DWIDTH 16 0
BBX 14 13 1 0
BITMAP
0800
0800
1800
7DF0
0B08
0C04
1804
3804
6804
C808
0830
09E0
0800
ENDCHAR
STARTCHAR 3090
ENCODING 12432
SWIDTH 1000 0
DWIDTH 16 0
BBX 12 13 2 -1
BITMAP
0700
3F00
0200
0200
0FC0
3420
6410
C810
8810
9190
B270
6260
01C0
ENDCHAR
STARTCHAR 3091
ENCODING 12433
SWIDTH 1000 0
DWIDTH 16 0
BBX 14 13 1 0
BITMAP
1FC0
0100
0600
0FE0
1810
6710
0930
0EE0
0BC0
1CF0
6398
C30C
8000
ENDCHAR
STARTCHAR 3092
ENCODING 12434
SWIDTH 1000 0
DWIDTH 16 0
BBX 12 14 2 -1
BITMAP
0400
0C00
7F80
1800
1000
2E00
3270
6180
C700
0900
1000
1000
1020
0FE0
ENDCHAR
STARTCHAR 3093
ENCODING 12435
SWIDTH 1000 0
DWIDTH 16 0
BBX 12 12 2 0
BITMAP
0600
0400
0C00
0800
1800
1000
3E00
3300
6310
4110
C130
81C0
ENDCHAR
STARTCHAR 3094
ENCODING 12436
SWIDTH 1000 0
DWIDTH 16 0
BBX 12 14 3 0
BITMAP
1020
1ED0
0240
0000
1F00
E180
8080
0080
0080
0080
0100
0200
1C00
1000
ENDCHAR
STARTCHAR 3095
ENCODING 12437
SWIDTH 1000 0
DWIDTH 16 0
BBX 10 10 3 0
BITMAP
1000
1000
1100
F880
24C0
2440
4400
4400
8400
B800
ENDCHAR
STARTCHAR 3096
ENCODING 12438
SWIDTH 1000 0
DWIDTH 16 0
BBX 10 11 3 -1
BITMAP
4100
4100
4100
8FC0
8100
8100
A100
E100
C300
4600
0400
ENDCHAR
STARTCHAR 3099
ENCODING 12441
SWIDTH 1000 0
DWIDTH 16 0
BBX 4 3 11 10
BITMAP
20
B0
40
ENDCHAR
STARTCHAR 309A
ENCODING 12442
SWIDTH 1000 0
DWIDTH 16 0
BBX 4 3 11 10
BITMAP
60
90
60
ENDCHAR
STARTCHAR 309B
ENCODING 12443
SWIDTH 1000 0
DWIDTH 16 0
BBX 4 3 0 10
BITMAP
20
D0
60
ENDCHAR
STARTCHAR 309C
ENCODING 12444
SWIDTH 1000 0
DWIDTH 16 0
BBX 3 3 1 10
BITMAP
E0
A0
E0
ENDCHAR
STARTCHAR 309D
ENCODING 12445
SWIDTH 1000 0
DWIDTH 16 0
BBX 6 8 5 2
BITMAP
80
60
30
18
04
04
18
70
ENDCHAR
STARTCHAR 309E
ENCODING 12446
SWIDTH 1000 0
DWIDTH 16 0
BBX 8 10 5 1
BITMAP
04
0B
8C
64
30
18
04
04
18
70
ENDCHAR
STARTCHAR 309F
ENCODING 12447
SWIDTH 1000 0
DWIDTH 16 0
BBX 9 14 4 0
BITMAP
1000
1000
1F80
2000
2000
5E00
6300
C100
8100
0100
0100
4200
4600
3800
ENDCHAR
STARTCHAR 30A0
ENCODING 12448
SWIDTH 1000 0
DWIDTH 16 0
BBX 6 4 5 4
BITMAP
FC
00
00
FC
ENDCHAR
STARTCHAR 30A1
ENCODING 12449
SWIDTH 1000 0
DWIDTH 16 0
BBX 10 9 3 -1
BITMAP
FFC0
00C0
0980
0900
0A00
0800
1800
3000
6000
ENDCHAR
STARTCHAR 30A2
ENCODING 12450
SWIDTH 1000 0
DWIDTH 16 0
BBX 12 11 2 0
BITMAP
FFF0
0030
0460
04C0
0580
0400
0400
0C00
0800
3000
6000
ENDCHAR
STARTCHAR 30A3
ENCODING 12451
SWIDTH 1000 0
DWIDTH 16 0
BBX 7 11 4 -1
BITMAP
02
06
0C
18
38
E8
88
08
08
08
08
ENDCHAR
STARTCHAR 30A4
ENCODING 12452
SWIDTH 1000 0
DWIDTH 16 0
BBX 9 13 3 0
BITMAP
0180
0100
0200
0C00
1C00
3400
E400
8400
0400
0400
0400
0400
0400
ENDCHAR
STARTCHAR 30A5
ENCODING 12453
SWIDTH 1000 0
DWIDTH 16 0
BBX 8 10 4 0
BITMAP
10
10
FF
83
83
82
06
04
18
30
ENDCHAR
STARTCHAR 30A6
ENCODING 12454
SWIDTH 1000 0
DWIDTH 16 0
BBX 10 13 3 -1
BITMAP
0800
0800
0800
FFC0
80C0
8080
8080
8080
0180
0300
0600
0C00
1800
ENDCHAR
STARTCHAR 30A7
ENCODING 12455
SWIDTH 1000 0
DWIDTH 16 0
BBX 11 7 2 1
BITMAP
7FC0
0400
0400
0400
0400
0400
FFE0
ENDCHAR
STARTCHAR 30A8
ENCODING 12456
SWIDTH 1000 0
DWIDTH 16 0
BBX 13 9 1 1
BITMAP
7FF0
0200
0200
0200
0200
0200
0200
0200
FFF8
ENDCHAR
STARTCHAR 30A9
ENCODING 12457
SWIDTH 1000 0
DWIDTH 16 0
BBX 10 10 3 0
BITMAP
0200
0200
03C0
7E00
0600
0A00
1A00
3200
C200
0E00
ENDCHAR
STARTCHAR 30AA
ENCODING 12458
SWIDTH 1000 0
DWIDTH 16 0
BBX 12 12 2 0
BITMAP
0100
0100
0100
FFF0
0300
0700
0D00
1900
3100
6100
C100
0F00
ENDCHAR
STARTCHAR 30AB
ENCODING 12459
SWIDTH 1000 0
DWIDTH 16 0
BBX 11 12 2 0
BITMAP
0400
0400
0400
FFE0
0420
0420
0C20
0820
1820
1060
2040
C3C0
ENDCHAR
STARTCHAR 30AC
ENCODING 12460
SWIDTH 1000 0
DWIDTH 16 0
BBX 13 13 2 0
BITMAP
0010
0468
0430
0400
FFE0
0420
0420
0C20
0820
1820
1060
2040
C3C0
ENDCHAR
STARTCHAR 30AD
ENCODING 12461
SWIDTH 1000 0
DWIDTH 16 0
BBX 12 12 2 0
BITMAP
0C00
0C00
07C0
FC00
0400
0610
07F0
FE00
0200
0200
0300
0300
ENDCHAR
STARTCHAR 30AE
ENCODING 12462
SWIDTH 1000 0
DWIDTH 16 0
BBX 13 14 2 -1
BITMAP
0010
0028
0C20
0C10
07C0
FC00
0400
0610
07F0
FE00
0200
0200
0300
0300
ENDCHAR
STARTCHAR 30AF
ENCODING 12463
SWIDTH 1000 0
DWIDTH 16 0
BBX 10 13 3 0
BITMAP
0800
0800
1FC0
3040
20C0
4080
8180
0100
0300
0600
0C00
3000
2000
ENDCHAR
STARTCHAR 30B0
ENCODING 12464
SWIDTH 1000 0
DWIDTH 16 0
BBX 14 14 2 0
BITMAP
0008
042C
0C10
0FE0
1860
3040
60C0
C080
0180
0300
0200
0C00
1800
2000
ENDCHAR
STARTCHAR 30B1
ENCODING 12465
SWIDTH 1000 0
DWIDTH 16 0
BBX 12 13 2 0
BITMAP
1800
1000
1000
3FF0
2100
4100
C100
8100
0300
0200
0400
1800
1000
ENDCHAR
STARTCHAR 30B2
ENCODING 12466
SWIDTH 1000 0
DWIDTH 16 0
BBX 13 14 2 0
BITMAP
0010
1868
1030
1000
3FF0
2100
4100
C100
8100
0300
0200
0400
1800
1000
ENDCHAR
STARTCHAR 30B3
ENCODING 12467
SWIDTH 1000 0
DWIDTH 16 0
BBX 10 11 3 -1
BITMAP
FFC0
0040
0040
0040
0040
0040
0040
0040
0040
FFC0
0040
ENDCHAR
STARTCHAR 30B4
ENCODING 12468
SWIDTH 1000 0
DWIDTH 16 0
BBX 13 13 3 0
BITMAP
0010
0028
0030
FFC0
0040
0040
0040
0040
0040
0040
0040
FFC0
0040
ENDCHAR
STARTCHAR 30B5
ENCODING 12469
SWIDTH 1000 0
DWIDTH 16 0
BBX 12 12 2 0
BITMAP
1080
1080
1080
FFF0
1080
1080
1080
1080
0100
0100
0200
0C00
ENDCHAR
STARTCHAR 30B6
ENCODING 12470
SWIDTH 1000 0
DWIDTH 16 0
BBX 14 14 1 -1
BITMAP
0008
0014
1058
1040
1040
FFF8
1040
1040
1040
1040
0080
0180
0300
0E00
ENDCHAR
STARTCHAR 30B7
ENCODING 12471
SWIDTH 1000 0
DWIDTH 16 0
BBX 12 11 2 0
BITMAP
3800
0C00
0000
E010
3020
0060
00C0
0180
0700
3C00
7000
ENDCHAR
STARTCHAR 30B8
ENCODING 12472
SWIDTH 1000 0
DWIDTH 16 0
BBX 12 13 2 0
BITMAP
0030
2050
3820
0C20
0000
E010
3020
0060
00C0
0180
0700
1C00
7000
ENDCHAR
STARTCHAR 30B9
ENCODING 12473
SWIDTH 1000 0
DWIDTH 16 0
BBX 12 11 2 0
BITMAP
7F80
00C0
0080
0180
0100
0200
0700
0D80
1860
6030
C010
ENDCHAR
STARTCHAR 30BA
ENCODING 12474
SWIDTH 1000 0
DWIDTH 16 0
BBX 14 13 2 0
BITMAP
0018
002C
7F90
00C0
0080
0180
0100
0200
0700
0D80
18C0
7060
C030
ENDCHAR
STARTCHAR 30BB
ENCODING 12475
SWIDTH 1000 0
DWIDTH 16 0
BBX 13 12 1 1
BITMAP
0800
0800
0800
0BF8
FE30
0820
0840
0880
0800
0800
0800
07F0
ENDCHAR
STARTCHAR 30BC
ENCODING 12476
SWIDTH 1000 0
DWIDTH 16 0
BBX 14 13 1 1
BITMAP
0028
0834
0810
0800
09F0
FF30
8820
0840
0880
0800
0800
0800
07F0
ENDCHAR
STARTCHAR 30BD
ENCODING 12477
SWIDTH 1000 0
DWIDTH 16 0
BBX 10 11 3 0
BITMAP
8040
C040
40C0
6080
0080
0180
0300
0600
0C00
1800
3000
ENDCHAR
STARTCHAR 30BE
ENCODING 12478
SWIDTH 1000 0
DWIDTH 16 0
BBX 12 14 3 -1
BITMAP
0030
0050
0070
8000
C040
C0C0
6080
4080
0180
0300
0200
0600
1800
7000
ENDCHAR
STARTCHAR 30BF
ENCODING 12479
SWIDTH 1000 0
DWIDTH 16 0
BBX 10 13 3 -1
BITMAP
0800
0800
1FC0
3040
20C0
7080
8980
0700
0200
0600
0C00
3800
6000
ENDCHAR
STARTCHAR 30C0
ENCODING 12480
SWIDTH 1000 0
DWIDTH 16 0
BBX 14 14 2 0
BITMAP
0018
042C
0C10
0FE0
1060
3040
78C0
CC80
8780
0300
0600
0C00
1800
7000
ENDCHAR
STARTCHAR 30C1
ENCODING 12481
SWIDTH 1000 0
DWIDTH 16 0
BBX 13 13 2 -1
BITMAP
00C0
0F80
3A00
0200
0200
FFF8
0200
0200
0600
0400
0C00
3800
2000
ENDCHAR
STARTCHAR 30C2
ENCODING 12482
SWIDTH 1000 0
DWIDTH 16 0
BBX 14 13 2 -1
BITMAP
0080
3F28
2234
0210
0200
FFF8
0200
0200
0200
0400
0C00
3800
2000
ENDCHAR
STARTCHAR 30C3
ENCODING 12483
SWIDTH 1000 0
DWIDTH 16 0
BBX 9 9 3 0
BITMAP
1880
C880
4C80
6180
0100
0300
0600
0C00
3000
ENDCHAR
STARTCHAR 30C4
ENCODING 12484
SWIDTH 1000 0
DWIDTH 16 0
BBX 11 11 3 0
BITMAP
9860
8840
CC40
C8C0
0080
0080
0180
0300
0600
1C00
3000
ENDCHAR
STARTCHAR 30C5
ENCODING 12485
SWIDTH 1000 0
DWIDTH 16 0
BBX 13 15 2 -1
BITMAP
0018
0028
0010
0C00
CC20
4420
6460
4060
0040
00C0
0180
0300
0600
1C00
1000
ENDCHAR
STARTCHAR 30C6
ENCODING 12486
SWIDTH 1000 0
DWIDTH 16 0
BBX 13 11 1 -1
BITMAP
1FE0
0000
0000
FFF8
0100
0300
0300
0200
0600
0C00
1800
ENDCHAR
STARTCHAR 30C7
ENCODING 12487
SWIDTH 1000 0
DWIDTH 16 0
BBX 15 13 1 0
BITMAP
0004
0016
1FC8
0000
0000
FFF8
0100
0300
0300
0200
0600
0C00
1800
ENDCHAR
STARTCHAR 30C8
ENCODING 12488
SWIDTH 1000 0
DWIDTH 16 0
BBX 7 13 6 -1
BITMAP
80
80
80
80
80
C0
F0
9C
86
80
80
80
80
ENDCHAR
STARTCHAR 30C9
ENCODING 12489
SWIDTH 1000 0
DWIDTH 16 0
BBX 8 13 6 0
BITMAP
82
8D
84
80
C0
F0
9C
86
80
80
80
80
80
ENDCHAR
STARTCHAR 30CA
ENCODING 12490
SWIDTH 1000 0
DWIDTH 16 0
BBX 12 13 2 0
BITMAP
0200
0200
0200
0200
FFF0
0200
0200
0200
0600
0400
0C00
1800
1000
ENDCHAR
STARTCHAR 30CB
ENCODING 12491
SWIDTH 1000 0
DWIDTH 16 0
BBX 12 8 2 2
BITMAP
7FE0
0000
0000
0000
0000
0000
0000
FFF0
ENDCHAR
STARTCHAR 30CC
ENCODING 12492
SWIDTH 1000 0
DWIDTH 16 0
BBX 10 11 3 0
BITMAP
FF80
0080
0180
2100
1B00
0E00
0600
0F00
1980
70C0
C000
ENDCHAR
STARTCHAR 30CD
ENCODING 12493
SWIDTH 1000 0
DWIDTH 16 0
BBX 12 13 2 0
BITMAP
1C00
0600
0000
7FC0
0180
0300
0600
1D80
74E0
C430
0400
0400
0400
ENDCHAR
STARTCHAR 30CE
ENCODING 12494
SWIDTH 1000 0
DWIDTH 16 0
BBX 9 11 3 1
BITMAP
0180
0180
0100
0100
0300
0600
0400
0C00
3800
6000
C000
ENDCHAR
STARTCHAR 30CF
ENCODING 12495
SWIDTH 1000 0
DWIDTH 16 0
BBX 14 8 1 1
BITMAP
0840
0840
1820
1030
3010
2018
6008
C00C
ENDCHAR
STARTCHAR 30D0
ENCODING 12496
SWIDTH 1000 0
DWIDTH 16 0
BBX 14 11 1 2
BITMAP
0018
002C
0010
0850
0840
1860
1030
3010
2018
6008
C00C
ENDCHAR
STARTCHAR 30D1
ENCODING 12497
SWIDTH 1000 0
DWIDTH 16 0
BBX 14 11 1 1
BITMAP
0018
0024
0018
0040
0840
1860
1030
3010
2018
6008
C00C
ENDCHAR
STARTCHAR 30D2
ENCODING 12498
SWIDTH 1000 0
DWIDTH 16 0
BBX 10 12 3 0
BITMAP
8000
8000
8000
8380
9E00
F000
8000
8000
8000
8000
8040
7FC0
ENDCHAR
STARTCHAR 30D3
ENCODING 12499
SWIDTH 1000 0
DWIDTH 16 0
BBX 12 13 3 1
BITMAP
0020
80B0
8040
8000
8380
8E00
F000
8000
8000
8000
8000
8040
7FC0
ENDCHAR
STARTCHAR 30D4
ENCODING 12500
SWIDTH 1000 0
DWIDTH 16 0
BBX 12 13 3 0
BITMAP
0060
8090
8090
8060
8380
8E00
F000
8000
8000
8000
8000
8040
7FC0
ENDCHAR
STARTCHAR 30D5
ENCODING 12501
SWIDTH 1000 0
DWIDTH 16 0
BBX 10 11 3 -1
BITMAP
1FC0
FFC0
0040
00C0
0080
0180
0100
0300
0600
1C00
7000
ENDCHAR
STARTCHAR 30D6
ENCODING 12502
SWIDTH 1000 0
DWIDTH 16 0
BBX 13 14 2 -1
BITMAP
0010
0028
0010
FFD0
FFE0
0060
0040
00C0
0080
0180
0300
0600
0C00
3800
ENDCHAR
STARTCHAR 30D7
ENCODING 12503
SWIDTH 1000 0
DWIDTH 16 0
BBX 14 14 2 -1
BITMAP
0018
0024
0024
00D8
FFE0
0060
0040
0040
00C0
0180
0100
0600
0C00
3800
ENDCHAR
STARTCHAR 30D8
ENCODING 12504
SWIDTH 1000 0
DWIDTH 16 0
BBX 14 7 1 2
BITMAP
0C00
0E00
1380
31C0
6060
C030
001C
ENDCHAR
STARTCHAR 30D9
ENCODING 12505
SWIDTH 1000 0
DWIDTH 16 0
BBX 14 9 1 3
BITMAP
0010
0058
0C28
0E00
1380
31C0
6060
C030
001C
ENDCHAR
STARTCHAR 30DA
ENCODING 12506
SWIDTH 1000 0
DWIDTH 16 0
BBX 14 10 1 2
BITMAP
0030
0048
0C48
0E30
1B80
31C0
60E0
C030
001C
0008
ENDCHAR
STARTCHAR 30DB
ENCODING 12507
SWIDTH 1000 0
DWIDTH 16 0
BBX 13 12 1 -1
BITMAP
0200
0200
0200
7FF0
0200
0200
3260
2220
6210
C218
0200
1E00
ENDCHAR
STARTCHAR 30DC
ENCODING 12508
SWIDTH 1000 0
DWIDTH 16 0
BBX 12 14 2 0
BITMAP
0020
04D0
0460
0400
FFE0
0400
0400
64C0
4440
C460
8430
0400
2400
1C00
ENDCHAR
STARTCHAR 30DD
ENCODING 12509
SWIDTH 1000 0
DWIDTH 16 0
BBX 13 13 1 -1
BITMAP
0038
0228
0238
0200
7FF0
0200
0200
3260
2220
6210
C218
0200
1E00
ENDCHAR
STARTCHAR 30DE
ENCODING 12510
SWIDTH 1000 0
DWIDTH 16 0
BBX 12 10 2 1
BITMAP
FFF0
0030
0060
00C0
3180
0B00
0600
0200
0300
0100
ENDCHAR
STARTCHAR 30DF
ENCODING 12511
SWIDTH 1000 0
DWIDTH 16 0
BBX 9 12 3 0
BITMAP
7000
1E00
0380
0080
3000
1E00
0300
0000
E000
3C00
0F00
0180
ENDCHAR
STARTCHAR 30E0
ENCODING 12512
SWIDTH 1000 0
DWIDTH 16 0
BBX 12 11 2 0
BITMAP
0400
0400
0C00
0800
0800
1980
10C0
1040
3060
2FF0
FC10
ENDCHAR
STARTCHAR 30E1
ENCODING 12513
SWIDTH 1000 0
DWIDTH 16 0
BBX 10 12 2 0
BITMAP
0040
00C0
0080
1180
1D00
0700
0300
0580
0CC0
1800
3000
C000
ENDCHAR
STARTCHAR 30E2
ENCODING 12514
SWIDTH 1000 0
DWIDTH 16 0
BBX 12 11 1 0
BITMAP
3FE0
0400
0400
0400
FFF0
0400
0400
0400
0400
0400
03F0
ENDCHAR
STARTCHAR 30E3
ENCODING 12515
SWIDTH 1000 0
DWIDTH 16 0
BBX 10 11 3 -1
BITMAP
2000
3000
11C0
7EC0
D080
1900
0B00
0800
0800
0800
0800
ENDCHAR
STARTCHAR 30E4
ENCODING 12516
SWIDTH 1000 0
DWIDTH 16 0
BBX 12 12 2 0
BITMAP
1000
1000
1870
0FF0
F820
0860
0CC0
0C80
0400
0400
0400
0600
ENDCHAR
STARTCHAR 30E5
ENCODING 12517
SWIDTH 1000 0
DWIDTH 16 0
BBX 10 7 3 1
BITMAP
7F00
0300
0300
0200
0200
0200
FFC0
ENDCHAR
STARTCHAR 30E6
ENCODING 12518
SWIDTH 1000 0
DWIDTH 16 0
BBX 12 9 2 1
BITMAP
7F80
0080
0080
0080
0080
0080
0080
0180
FFF0
ENDCHAR
STARTCHAR 30E7
ENCODING 12519
SWIDTH 1000 0
DWIDTH 16 0
BBX 8 9 4 0
BITMAP
7F
01
01
01
7F
01
01
FF
01
ENDCHAR
STARTCHAR 30E8
ENCODING 12520
SWIDTH 1000 0
DWIDTH 16 0
BBX 10 11 3 -1
BITMAP
7FC0
0040
0040
0040
7FC0
0040
0040
0040
0040
FFC0
0040
ENDCHAR
STARTCHAR 30E9
ENCODING 12521
SWIDTH 1000 0
DWIDTH 16 0
BBX 12 12 2 -1
BITMAP
3FC0
0000
0000
0000
FFF0
0020
0060
0040
00C0
0180
0700
1C00
ENDCHAR
STARTCHAR 30EA
ENCODING 12522
SWIDTH 1000 0
DWIDTH 16 0
BBX 8 13 4 0
BITMAP
81
81
81
81
81
81
81
01
02
02
0C
38
30
ENDCHAR
STARTCHAR 30EB
ENCODING 12523
SWIDTH 1000 0
DWIDTH 16 0
BBX 14 12 1 -1
BITMAP
0100
1900
1900
1900
1900
1900
110C
1118
1130
3160
61C0
C180
ENDCHAR
STARTCHAR 30EC
ENCODING 12524
SWIDTH 1000 0
DWIDTH 16 0
BBX 9 12 4 -1
BITMAP
8000
8000
8000
8000
8000
8080
8180
8300
8600
9C00
F000
C000
ENDCHAR
STARTCHAR 30ED
ENCODING 12525
SWIDTH 1000 0
DWIDTH 16 0
BBX 10 11 3 0
BITMAP
FFC0
8040
8040
8040
8040
8040
8040
8040
8040
FFC0
8040
ENDCHAR
STARTCHAR 30EE
ENCODING 12526
SWIDTH 1000 0
DWIDTH 16 0
BBX 8 9 4 0
BITMAP
FF
81
81
83
02
06
0C
18
30
ENDCHAR
STARTCHAR 30EF
ENCODING 12527
SWIDTH 1000 0
DWIDTH 16 0
BBX 10 11 3 -1
BITMAP
FFC0
8040
8040
8040
80C0
0080
0180
0100
0300
0E00
1800
ENDCHAR
STARTCHAR 30F0
ENCODING 12528
SWIDTH 1000 0
DWIDTH 16 0
BBX 13 14 1 -1
BITMAP
0080
0080
0080
7FF0
1080
1080
1080
1080
1080
FFF8
0080
0080
0080
0080
ENDCHAR
STARTCHAR 30F1
ENCODING 12529
SWIDTH 1000 0
DWIDTH 16 0
BBX 13 9 1 1
BITMAP
3FF0
0030
0260
02C0
0280
0200
0200
0200
FFF8
ENDCHAR
STARTCHAR 30F2
ENCODING 12530
SWIDTH 1000 0
DWIDTH 16 0
BBX 10 11 3 -1
BITMAP
FFC0
0040
0040
0040
FF80
0080
0180
0300
0600
0C00
7800
ENDCHAR
STARTCHAR 30F3
ENCODING 12531
SWIDTH 1000 0
DWIDTH 16 0
BBX 11 11 3 1
BITMAP
C000
6000
3020
0060
00C0
0080
0100
0600
1C00
F000
C000
ENDCHAR
STARTCHAR 30F4
ENCODING 12532
SWIDTH 1000 0
DWIDTH 16 0
BBX 12 14 3 0
BITMAP
0020
0890
0840
0800
FFC0
80C0
8080
8080
8080
0180
0300
0600
0C00
1800
ENDCHAR
STARTCHAR 30F5
ENCODING 12533
SWIDTH 1000 0
DWIDTH 16 0
BBX 9 9 3 0
BITMAP
0800
0800
FF80
0880
0880
1080
1180
2180
C700
ENDCHAR
STARTCHAR 30F6
ENCODING 12534
SWIDTH 1000 0
DWIDTH 16 0
BBX 10 10 3 0
BITMAP
1000
3000
3FC0
6200
C200
8200
0600
0C00
1800
1000
ENDCHAR
STARTCHAR 30F7
ENCODING 12535
SWIDTH 1000 0
DWIDTH 16 0
BBX 13 14 2 -1
BITMAP
0010
0068
0030
FFC0
8040
8040
80C0
80C0
0080
0180
0300
0600
0C00
1800
ENDCHAR
STARTCHAR 30F8
ENCODING 12536
SWIDTH 1000 0
DWIDTH 16 0
BBX 14 14 1 0
BITMAP
000C
0094
0088
0080
7FF0
1080
1080
1080
1080
FFF8
0080
0080
0080
0080
ENDCHAR
STARTCHAR 30F9
ENCODING 12537
SWIDTH 1000 0
DWIDTH 16 0
BBX 14 13 1 2
BITMAP
0008
0014
0018
0008
3FF0
0030
0260
02C0
0280
0200
0200
0200
FFF8
ENDCHAR
STARTCHAR 30FA
ENCODING 12538
SWIDTH 1000 0
DWIDTH 16 0
BBX 13 15 3 0
BITMAP
0030
0058
0020
FFC0
00C0
00C0
0080
FF80
0180
0100
0300
0600
1C00
7000
4000
ENDCHAR
STARTCHAR 30FB
ENCODING 12539
SWIDTH 1000 0
DWIDTH 16 0
BBX 2 2 7 5
BITMAP
C0
C0
ENDCHAR
STARTCHAR 30FC
ENCODING 12540
SWIDTH 1000 0
DWIDTH 16 0
BBX 14 1 1 6
BITMAP
FFFC
ENDCHAR
STARTCHAR 30FD
ENCODING 12541
SWIDTH 1000 0
DWIDTH 16 0
BBX 7 6 4 3
BITMAP
C0
20
18
0C
04
06
ENDCHAR
STARTCHAR 30FE
ENCODING 12542
SWIDTH 1000 0
DWIDTH 16 0
BBX 8 9 4 2
BITMAP
02
05
C6
62
30
18
0C
06
02
ENDCHAR
STARTCHAR 30FF
ENCODING 12543
SWIDTH 1000 0
DWIDTH 16 0
BBX 9 12 3 0
BITMAP
FF80
0080
0080
0080
0080
0080
0080
0080
0080
0080
0080
0080
ENDCHAR
STARTCHAR 31F0
ENCODING 12784
SWIDTH 1000 0
DWIDTH 16 0
BBX 8 11 4 -1
BITMAP
10
10
3F
23
42
82
04
0C
18
70
40
ENDCHAR
STARTCHAR 31F1
ENCODING 12785
SWIDTH 1000 0
DWIDTH 16 0
BBX 9 9 4 0
BITMAP
6000
3000
9080
C080
4100
0300
0600
1800
F000
ENDCHAR
STARTCHAR 31F2
ENCODING 12786
SWIDTH 1000 0
DWIDTH 16 0
BBX 10 8 3 0
BITMAP
7F00
0300
0200
0400
0E00
1B00
3180
C0C0
ENDCHAR
STARTCHAR 31F3
ENCODING 12787
SWIDTH 1000 0
DWIDTH 16 0
BBX 5 10 6 -1
BITMAP
80
80
80
80
E0
B8
88
80
80
80
ENDCHAR
STARTCHAR 31F4
ENCODING 12788
SWIDTH 1000 0
DWIDTH 16 0
BBX 8 9 4 -1
BITMAP
FE
02
02
24
14
0C
16
63
C0
ENDCHAR
STARTCHAR 31F5
ENCODING 12789
SWIDTH 1000 0
DWIDTH 16 0
BBX 10 7 3 1
BITMAP
3300
2100
6180
6080
C0C0
8040
8040
ENDCHAR
STARTCHAR 31F6
ENCODING 12790
SWIDTH 1000 0
DWIDTH 16 0
BBX 8 9 5 0
BITMAP
80
80
82
9C
F0
80
80
80
FF
ENDCHAR
STARTCHAR 31F7
ENCODING 12791
SWIDTH 1000 0
DWIDTH 16 0
BBX 8 8 4 0
BITMAP
FF
01
03
02
06
0C
18
70
ENDCHAR
STARTCHAR 31F8
ENCODING 12792
SWIDTH 1000 0
DWIDTH 16 0
BBX 10 6 3 1
BITMAP
1800
3C00
6600
C300
81C0
0040
ENDCHAR
STARTCHAR 31F9
ENCODING 12793
SWIDTH 1000 0
DWIDTH 16 0
BBX 10 10 2 0
BITMAP
0400
0400
7FC0
0400
2480
2480
6440
C440
0400
1C00
ENDCHAR
STARTCHAR 31FA
ENCODING 12794
SWIDTH 1000 0
DWIDTH 16 0
BBX 10 9 3 1
BITMAP
0800
0800
1800
1200
1300
2180
2080
FF40
0040
ENDCHAR
STARTCHAR 31FB
ENCODING 12795
SWIDTH 1000 0
DWIDTH 16 0
BBX 8 10 4 -1
BITMAP
7E
00
00
FF
01
03
06
0C
38
20
ENDCHAR
STARTCHAR 31FC
ENCODING 12796
SWIDTH 1000 0
DWIDTH 16 0
BBX 6 10 5 -1
BITMAP
04
84
84
84
84
84
04
08
18
70
ENDCHAR
STARTCHAR 31FD
ENCODING 12797
SWIDTH 1000 0
DWIDTH 16 0
BBX 11 9 3 0
BITMAP
2400
2400
2400
2400
2460
24C0
6580
4700
8400
ENDCHAR
STARTCHAR 31FE
ENCODING 12798
SWIDTH 1000 0
DWIDTH 16 0
BBX 8 9 5 0
BITMAP
80
80
80
80
83
86
8C
B0
E0
ENDCHAR
STARTCHAR 31FF
ENCODING 12799
SWIDTH 1000 0
DWIDTH 16 0
BBX 8 9 4 0
BITMAP
FF
81
81
81
81
81
81
FF
81
ENDCHAR
STARTCHAR 3220
ENCODING 12832
SWIDTH 1000 0
DWIDTH 16 0
BBX 14 14 1 0
BITMAP
4008
4008
4008
8004
8004
8004
BFF4
8004
8004
8004
8004
4008
4008
4008
ENDCHAR
STARTCHAR 3221
ENCODING 12833
SWIDTH 1000 0
DWIDTH 16 0
BBX 14 15 1 -2
BITMAP
4008
4008
4008
9FE4
8004
8004
8004
8004
8004
8004
8004
BFF8
4008
4008
2010
ENDCHAR
STARTCHAR 3222
ENCODING 12834
SWIDTH 1000 0
DWIDTH 16 0
BBX 14 14 1 -1
BITMAP
4008
4008
9FE8
8004
8004
8004
9FE4
8004
8004
8004
8004
7FF8
4008
4008
ENDCHAR
STARTCHAR 3223
ENCODING 12835
SWIDTH 1000 0
DWIDTH 16 0
BBX 16 14 0 -1
BITMAP
2004
4002
5FFA
9289
9289
9289
92A9
94B9
9CE9
9009
9009
5FFA
500A
2004
ENDCHAR
STARTCHAR 3224
ENCODING 12836
SWIDTH 1000 0
DWIDTH 16 0
BBX 14 14 1 0
BITMAP
4010
4008
5FE8
8204
8204
8204
9FC4
8444
8444
8444
8444
7FF8
4008
0010
ENDCHAR
STARTCHAR 3225
ENCODING 12837
SWIDTH 1000 0
DWIDTH 16 0
BBX 15 14 0 -2
BITMAP
2008
4104
4104
4104
9FF2
8002
8002
8442
8462
8C22
8832
5814
5014
2008
ENDCHAR
STARTCHAR 3226
ENCODING 12838
SWIDTH 1000 0
DWIDTH 16 0
BBX 14 14 1 -1
BITMAP
4008
4408
4408
8404
84F4
BF84
8404
8404
8424
8434
8434
4428
47E8
4010
ENDCHAR
STARTCHAR 3227
ENCODING 12839
SWIDTH 1000 0
DWIDTH 16 0
BBX 14 15 1 -2
BITMAP
2000
4008
4788
8088
8484
8484
8CC4
8844
8844
8844
9864
9024
7038
4008
4008
ENDCHAR
STARTCHAR 3228
ENCODING 12840
SWIDTH 1000 0
DWIDTH 16 0
BBX 14 14 1 -2
BITMAP
4010
4408
4408
8404
BF84
8484
8484
8484
8484
8894
8894
90B8
70E8
4010
ENDCHAR
STARTCHAR 3229
ENCODING 12841
SWIDTH 1000 0
DWIDTH 16 0
BBX 15 14 0 -2
BITMAP
2008
4104
4104
4104
8102
8102
9FFA
8102
8102
8102
8102
4104
4104
2108
ENDCHAR
STARTCHAR 322A
ENCODING 12842
SWIDTH 1000 0
DWIDTH 16 0
BBX 14 15 1 -2
BITMAP
2010
4010
4FC8
4848
8844
8FC4
8844
8844
8844
8FC4
8844
8844
5848
51C8
5010
ENDCHAR
STARTCHAR 322B
ENCODING 12843
SWIDTH 1000 0
DWIDTH 16 0
BBX 15 14 0 -1
BITMAP
2008
4104
4104
8112
8912
8922
8922
91C2
8282
82C2
8462
4C34
5814
2008
ENDCHAR
STARTCHAR 322C
ENCODING 12844
SWIDTH 1000 0
DWIDTH 16 0
BBX 15 14 1 -1
BITMAP
2008
4104
4104
8132
9F22
85C2
8582
85C2
8D42
8922
9932
7114
4704
2008
ENDCHAR
STARTCHAR 322D
ENCODING 12845
SWIDTH 1000 0
DWIDTH 16 0
BBX 15 14 0 -1
BITMAP
2008
4104
4104
8102
9FFA
8102
8382
83C2
8542
8922
991A
5104
4104
2008
ENDCHAR
STARTCHAR 322E
ENCODING 12846
SWIDTH 1000 0
DWIDTH 16 0
BBX 15 14 0 -1
BITMAP
2008
4104
4284
8642
8C62
9FD2
8102
9FF2
8122
8922
8542
4144
5FF4
2008
ENDCHAR
STARTCHAR 322F
ENCODING 12847
SWIDTH 1000 0
DWIDTH 16 0
BBX 15 15 0 -1
BITMAP
2008
4104
4104
4104
8102
9FF2
8102
8102
8102
8102
8102
4104
5FF4
4004
2008
ENDCHAR
STARTCHAR 3230
ENCODING 12848
SWIDTH 1000 0
DWIDTH 16 0
BBX 15 14 1 -1
BITMAP
4008
4004
5FE4
9024
9022
9022
9FE2
9022
9022
9022
9024
5FE4
5024
4008
ENDCHAR
STARTCHAR 3231
ENCODING 12849
SWIDTH 1000 0
DWIDTH 16 0
BBX 15 14 1 -1
BITMAP
2008
4944
4944
BDF2
8A42
8842
9FFA
9C42
A8E2
A952
895A
4A4C
4844
2008
ENDCHAR
STARTCHAR 3232
ENCODING 12850
SWIDTH 1000 0
DWIDTH 16 0
BBX 15 14 0 -2
BITMAP
2000
4204
4204
7FFA
8402
87F2
8C12
97F2
A412
87F2
8412
4414
4474
2404
ENDCHAR
STARTCHAR 3233
ENCODING 12851
SWIDTH 1000 0
DWIDTH 16 0
BBX 15 14 1 -1
BITMAP
4808
4844
4844
BE42
8442
85F2
8842
9C42
9E42
AA42
8842
4844
4BF4
4808
ENDCHAR
STARTCHAR 3234
ENCODING 12852
SWIDTH 1000 0
DWIDTH 16 0
BBX 14 15 1 -1
BITMAP
2010
4208
43C8
8444
8C84
9A84
8304
8604
8FE4
B424
8424
4428
47E8
4428
2000
ENDCHAR
STARTCHAR 3235
ENCODING 12853
SWIDTH 1000 0
DWIDTH 16 0
BBX 15 14 1 -2
BITMAP
2008
4884
4884
ABF4
BC82
ABFA
A822
8C22
9BFA
B822
8922
4924
48E4
4808
ENDCHAR
STARTCHAR 3236
ENCODING 12854
SWIDTH 1000 0
DWIDTH 16 0
BBX 15 15 0 -2
BITMAP
2000
2004
5E14
5214
9212
9FFA
9212
9E32
9252
9252
9E92
8D12
5214
5274
2004
ENDCHAR
STARTCHAR 3237
ENCODING 12855
SWIDTH 1000 0
DWIDTH 16 0
BBX 16 15 0 -2
BITMAP
2004
4804
49FA
490A
BF09
8509
8509
89F9
9CA1
BAA1
8AA1
88A9
492A
4B3A
2804
ENDCHAR
STARTCHAR 3238
ENCODING 12856
SWIDTH 1000 0
DWIDTH 16 0
BBX 14 14 1 -2
BITMAP
0008
4248
4A48
8AC4
BFF4
A214
A214
BFE4
8224
8224
8424
8C28
79E8
4008
ENDCHAR
STARTCHAR 3239
ENCODING 12857
SWIDTH 1000 0
DWIDTH 16 0
BBX 15 14 0 -1
BITMAP
2008
44A4
48B4
4892
889A
9BF2
9882
A882
A8C2
8842
884A
4874
4834
2808
ENDCHAR
STARTCHAR 323A
ENCODING 12858
SWIDTH 1000 0
DWIDTH 16 0
BBX 16 14 0 -1
BITMAP
2004
401A
5DE2
9429
95A9
94A9
94A9
9421
97FD
9C21
9021
4022
41E2
2004
ENDCHAR
STARTCHAR 323B
ENCODING 12859
SWIDTH 1000 0
DWIDTH 16 0
BBX 14 14 1 -1
BITMAP
4008
4B48
8948
BFF4
A014
AFD4
80C4
8184
8104
BFF4
8104
4108
4F08
4008
ENDCHAR
STARTCHAR 323C
ENCODING 12860
SWIDTH 1000 0
DWIDTH 16 0
BBX 14 14 1 -1
BITMAP
4008
7E88
A8F8
BE84
A384
BE04
A8F4
BE04
A004
9FE4
94A4
54A8
7FF8
4008
ENDCHAR
STARTCHAR 323D
ENCODING 12861
SWIDTH 1000 0
DWIDTH 16 0
BBX 15 15 1 -2
BITMAP
2008
4108
4384
4684
8442
9932
B11A
8902
89E2
8902
8902
8902
4904
5FF4
4008
ENDCHAR
STARTCHAR 323E
ENCODING 12862
SWIDTH 1000 0
DWIDTH 16 0
BBX 16 14 0 -2
BITMAP
2004
4102
49FA
425A
8CE1
9B19
8FF1
8FF1
8811
8FF1
8FF1
4262
4C3A
2004
ENDCHAR
STARTCHAR 323F
ENCODING 12863
SWIDTH 1000 0
DWIDTH 16 0
BBX 14 14 1 -1
BITMAP
4008
5088
57E8
9124
B924
92E4
9404
9444
9F74
9554
9554
5558
5FB8
5888
ENDCHAR
STARTCHAR 3240
ENCODING 12864
SWIDTH 1000 0
DWIDTH 16 0
BBX 15 14 1 -2
BITMAP
2008
4908
4EF4
9A94
B662
AC42
8FF2
B002
9FF2
8142
8D62
5934
5714
4008
ENDCHAR
STARTCHAR 3241
ENCODING 12865
SWIDTH 1000 0
DWIDTH 16 0
BBX 15 14 1 -1
BITMAP
4008
4884
9884
9084
97F2
B082
B1C2
F1C2
92A2
92A2
9494
9084
5084
4008
ENDCHAR
STARTCHAR 3242
ENCODING 12866
SWIDTH 1000 0
DWIDTH 16 0
BBX 14 13 1 -1
BITMAP
4008
4208
4208
9FE4
9024
9024
9FE4
9024
9FE4
9024
9024
5FE8
5028
ENDCHAR
STARTCHAR 3243
ENCODING 12867
SWIDTH 1000 0
DWIDTH 16 0
BBX 15 14 0 -2
BITMAP
2008
4004
5FF4
4204
8642
9FE2
8112
8102
9FF2
8102
8102
4104
5FF4
2008
ENDCHAR
STARTCHAR 3251
ENCODING 12881
SWIDTH 1000 0
DWIDTH 16 0
BBX 15 15 1 -2
BITMAP
0FC0
1830
2C28
5264
D224
8222
8422
8C22
8822
9822
5024
5E24
2008
1830
07C0
ENDCHAR
STARTCHAR 3252
ENCODING 12882
SWIDTH 1000 0
DWIDTH 16 0
BBX 16 15 0 -2
BITMAP
07E0
1818
3C7C
5A4A
524A
8209
8411
8431
8821
8841
5842
7FFE
300C
1C38
07E0
ENDCHAR
STARTCHAR 3253
ENCODING 12883
SWIDTH 1000 0
DWIDTH 16 0
BBX 16 15 0 -2
BITMAP
07E0
1818
3E6C
49D2
5192
8111
8221
8411
8C09
8889
48CA
7F76
300C
1C18
07E0
ENDCHAR
STARTCHAR 3254
ENCODING 12884
SWIDTH 1000 0
DWIDTH 16 0
BBX 16 15 0 -2
BITMAP
07E0
1818
3E1C
4932
5132
9151
8251
8451
8C91
88F9
4812
7F16
300C
1C18
07E0
ENDCHAR
STARTCHAR 3255
ENCODING 12885
SWIDTH 1000 0
DWIDTH 16 0
BBX 16 16 0 -2
BITMAP
03E0
0C18
100C
2E76
4942
9141
8171
8251
8409
8C09
88C9
484A
7F76
300C
1C18
07E0
ENDCHAR
STARTCHAR 3256
ENCODING 12886
SWIDTH 1000 0
DWIDTH 16 0
BBX 16 15 0 -2
BITMAP
07E0
1818
3E7C
495A
51CA
8181
82B1
84C9
8C89
8889
488A
7F76
300C
1C18
07E0
ENDCHAR
STARTCHAR 3257
ENCODING 12887
SWIDTH 1000 0
DWIDTH 16 0
BBX 16 16 0 -2
BITMAP
03E0
0C18
100C
2EF6
4912
9111
8111
8221
8421
8C21
8821
4862
7F46
300C
1C18
07E0
ENDCHAR
STARTCHAR 3258
ENCODING 12888
SWIDTH 1000 0
DWIDTH 16 0
BBX 16 15 0 -2
BITMAP
07E0
1818
3E3C
494A
514A
8149
8271
8489
8C89
8889
488A
7F76
300C
1C18
07E0
ENDCHAR
STARTCHAR 3259
ENCODING 12889
SWIDTH 1000 0
DWIDTH 16 0
BBX 16 15 0 -2
BITMAP
07E0
1818
3E7C
498A
518A
8189
8289
8479
8C09
8809
4852
7F76
300C
1C18
07E0
ENDCHAR
STARTCHAR 325A
ENCODING 12890
SWIDTH 1000 0
DWIDTH 16 0
BBX 16 15 0 -1
BITMAP
03E0
0C18
100C
2C72
5A52
8289
8289
8C89
8389
8189
518A
7956
3E7C
1818
07E0
ENDCHAR
STARTCHAR 325B
ENCODING 12891
SWIDTH 1000 0
DWIDTH 16 0
BBX 15 15 1 -1
BITMAP
07C0
1830
2008
4C24
5264
8222
8222
8C22
8222
8222
5224
5224
3C28
1830
07C0
ENDCHAR
STARTCHAR 325C
ENCODING 12892
SWIDTH 1000 0
DWIDTH 16 0
BBX 16 15 0 -2
BITMAP
07E0
1818
3C7C
7A4A
524A
8209
8C11
8231
8121
9141
5942
6EFE
300C
1838
07E0
ENDCHAR
STARTCHAR 325D
ENCODING 12893
SWIDTH 1000 0
DWIDTH 16 0
BBX 16 15 0 -1
BITMAP
03E0
0C18
100C
2C72
5A4A
8209
8209
8C31
8319
8109
518A
79CE
3E7C
1818
07E0
ENDCHAR
STARTCHAR 325E
ENCODING 12894
SWIDTH 1000 0
DWIDTH 16 0
BBX 15 15 0 -2
BITMAP
07C0
1830
2C18
5234
5234
8232
8452
8E52
8292
92FA
5214
4C14
2008
1830
07C0
ENDCHAR
STARTCHAR 325F
ENCODING 12895
SWIDTH 1000 0
DWIDTH 16 0
BBX 16 15 0 -1
BITMAP
03E0
0C18
100C
2C72
5242
8241
8271
8C51
8309
8109
51CA
794E
3E7C
1818
07E0
ENDCHAR
STARTCHAR 3280
ENCODING 12928
SWIDTH 1000 0
DWIDTH 16 0
BBX 16 15 0 -1
BITMAP
03E0
0C18
100C
2002
4002
8001
8001
9FF9
8001
8001
4002
6006
300C
1818
07E0
ENDCHAR
STARTCHAR 3281
ENCODING 12929
SWIDTH 1000 0
DWIDTH 16 0
BBX 16 16 0 -2
BITMAP
07E0
0818
300C
6006
4FF2
8001
8001
8001
8001
8001
8001
5FFA
6006
300C
1818
07E0
ENDCHAR
STARTCHAR 3282
ENCODING 12930
SWIDTH 1000 0
DWIDTH 16 0
BBX 16 15 0 -1
BITMAP
03E0
0C18
100C
2002
4FF2
8001
8001
8FF1
8001
8001
4002
7FFE
300C
1818
07E0
ENDCHAR
STARTCHAR 3283
ENCODING 12931
SWIDTH 1000 0
DWIDTH 16 0
BBX 16 15 0 -2
BITMAP
07E0
1818
300C
7FFA
528A
9289
92A9
94B9
98E9
9009
5FFA
700E
300C
1818
07E0
ENDCHAR
STARTCHAR 3284
ENCODING 12932
SWIDTH 1000 0
DWIDTH 16 0
BBX 16 15 0 -1
BITMAP
07E0
0818
300C
6FF2
4102
8101
8101
8FE1
8221
8221
4222
7FFE
300C
1818
07E0
ENDCHAR
STARTCHAR 3285
ENCODING 12933
SWIDTH 1000 0
DWIDTH 16 0
BBX 15 16 0 -2
BITMAP
07C0
0830
1018
210C
4104
9FF2
8002
84C2
8462
8C22
8832
501C
600C
3018
1830
07C0
ENDCHAR
STARTCHAR 3286
ENCODING 12934
SWIDTH 1000 0
DWIDTH 16 0
BBX 15 15 0 -1
BITMAP
07C0
0830
3008
4204
4204
820A
9FF2
9202
8202
8212
4214
43F4
2008
1830
07C0
ENDCHAR
STARTCHAR 3287
ENCODING 12935
SWIDTH 1000 0
DWIDTH 16 0
BBX 16 16 0 -2
BITMAP
03E0
0C18
100C
23C6
4042
8241
8661
8421
8421
8C11
8819
500A
6006
300C
1818
07E0
ENDCHAR
STARTCHAR 3288
ENCODING 12936
SWIDTH 1000 0
DWIDTH 16 0
BBX 15 16 1 -2
BITMAP
07C0
0830
3018
220C
4204
9FC2
8242
8242
8242
845A
8452
5874
700C
3018
1830
07C0
ENDCHAR
STARTCHAR 3289
ENCODING 12937
SWIDTH 1000 0
DWIDTH 16 0
BBX 15 16 0 -2
BITMAP
07C0
0830
1018
210C
4104
8102
8102
9FF2
8102
8102
8102
4104
610C
3018
1830
07C0
ENDCHAR
STARTCHAR 328A
ENCODING 12938
SWIDTH 1000 0
DWIDTH 16 0
BBX 14 16 1 -2
BITMAP
0F80
1860
2010
4FC8
4848
8844
8FC4
8844
8844
8FC4
8844
4848
5048
21D0
1860
0780
ENDCHAR
STARTCHAR 328B
ENCODING 12939
SWIDTH 1000 0
DWIDTH 16 0
BBX 15 15 0 -1
BITMAP
07C0
0830
3008
4104
4104
8D32
8922
8962
8282
82C2
4664
5834
3008
1830
07C0
ENDCHAR
STARTCHAR 328C
ENCODING 12940
SWIDTH 1000 0
DWIDTH 16 0
BBX 15 15 1 -1
BITMAP
07C0
1830
2108
4104
4114
9F22
85C2
8582
8542
8922
511C
4104
2708
1830
07C0
ENDCHAR
STARTCHAR 328D
ENCODING 12941
SWIDTH 1000 0
DWIDTH 16 0
BBX 15 15 0 -1
BITMAP
07C0
1830
2008
4104
4104
9FF2
8382
8382
8542
8D22
591C
4104
2108
1830
07C0
ENDCHAR
STARTCHAR 328E
ENCODING 12942
SWIDTH 1000 0
DWIDTH 16 0
BBX 15 15 0 -1
BITMAP
07C0
0830
3008
4384
42C4
8462
9FF2
9102
9FF2
8922
4544
5FF4
2008
1830
07C0
ENDCHAR
STARTCHAR 328F
ENCODING 12943
SWIDTH 1000 0
DWIDTH 16 0
BBX 15 14 0 -1
BITMAP
07C0
1830
2108
4104
C104
9FF2
8102
8102
8102
4104
5FF4
2008
1830
07C0
ENDCHAR
STARTCHAR 3290
ENCODING 12944
SWIDTH 1000 0
DWIDTH 16 0
BBX 16 14 0 -1
BITMAP
07E0
1818
2004
4FF2
C812
8811
8FF1
8811
8811
4812
4FF2
2814
1818
07E0
ENDCHAR
STARTCHAR 3291
ENCODING 12945
SWIDTH 1000 0
DWIDTH 16 0
BBX 14 14 1 -1
BITMAP
0FC0
3860
6890
4A88
FFEC
8A84
9BF4
9C84
A9C4
6AAC
4A98
2890
1860
0FC0
ENDCHAR
STARTCHAR 3292
ENCODING 12946
SWIDTH 1000 0
DWIDTH 16 0
BBX 16 16 0 -2
BITMAP
07E0
1818
330C
6206
5FFA
8601
87F1
8C11
9FF1
B411
87F1
4412
6476
300C
1818
07E0
ENDCHAR
STARTCHAR 3293
ENCODING 12947
SWIDTH 1000 0
DWIDTH 16 0
BBX 14 16 1 -2
BITMAP
0780
1860
2010
4888
4888
BC84
87E4
8884
9C84
BA84
8884
4888
4BE8
2010
1860
0780
ENDCHAR
STARTCHAR 3294
ENCODING 12948
SWIDTH 1000 0
DWIDTH 16 0
BBX 16 14 0 -1
BITMAP
07E0
1818
2304
43E2
CC62
9A81
8301
8FF1
B411
4412
47F2
2414
1818
07E0
ENDCHAR
STARTCHAR 3295
ENCODING 12949
SWIDTH 1000 0
DWIDTH 16 0
BBX 15 16 1 -2
BITMAP
07C0
1830
3898
788C
6BF4
BC82
ABFA
A822
8C22
9BF2
A822
4924
682C
38F8
1830
07C0
ENDCHAR
STARTCHAR 3296
ENCODING 12950
SWIDTH 1000 0
DWIDTH 16 0
BBX 15 16 1 -2
BITMAP
07C0
1830
3018
7E2C
5224
9FF2
9222
9E62
9262
92A2
9F22
4A24
726C
3018
1830
07C0
ENDCHAR
STARTCHAR 3297
ENCODING 12951
SWIDTH 1000 0
DWIDTH 16 0
BBX 15 15 0 -1
BITMAP
07C0
1830
2808
49F4
4914
BF12
8512
85F2
9EA2
A4A2
44A4
4534
2638
1830
07C0
ENDCHAR
STARTCHAR 3298
ENCODING 12952
SWIDTH 1000 0
DWIDTH 16 0
BBX 16 16 0 -2
BITMAP
07E0
1818
300C
6936
45A2
9FF9
9109
9109
9FF1
8111
8311
4612
6CF6
300C
1818
07E0
ENDCHAR
STARTCHAR 3299
ENCODING 12953
SWIDTH 1000 0
DWIDTH 16 0
BBX 15 16 1 -2
BITMAP
07C0
1830
3018
648C
7854
8892
BCA2
89B2
9ED2
9ECA
AA9A
4994
6AEC
3018
1830
07C0
ENDCHAR
STARTCHAR 329A
ENCODING 12954
SWIDTH 1000 0
DWIDTH 16 0
BBX 16 16 0 -2
BITMAP
07E0
0818
300C
6FF6
4912
8FF1
8911
8FF1
8101
9FF9
8119
4312
6E76
300C
1818
07E0
ENDCHAR
STARTCHAR 329B
ENCODING 12955
SWIDTH 1000 0
DWIDTH 16 0
BBX 16 15 0 -1
BITMAP
07E0
0818
310C
6102
4302
9FF9
8221
8461
8641
81C1
41E2
7E1E
300C
1818
07E0
ENDCHAR
STARTCHAR 329C
ENCODING 12956
SWIDTH 1000 0
DWIDTH 16 0
BBX 16 15 0 -2
BITMAP
07E0
1818
304C
6BFA
43FA
8249
9BF9
8A49
8AA9
8AE9
4A9A
77FE
300C
1818
07E0
ENDCHAR
STARTCHAR 329D
ENCODING 12957
SWIDTH 1000 0
DWIDTH 16 0
BBX 15 16 1 -2
BITMAP
07C0
1830
3018
6FFC
57E4
97E2
97E2
BFF2
BEB2
9BC2
93E2
5F44
73EC
3C18
1830
07C0
ENDCHAR
STARTCHAR 329E
ENCODING 12958
SWIDTH 1000 0
DWIDTH 16 0
BBX 16 14 0 -1
BITMAP
07E0
1818
2204
5EFA
D08A
9089
9E89
9089
9089
5EBA
5082
2084
1818
07E0
ENDCHAR
STARTCHAR 329F
ENCODING 12959
SWIDTH 1000 0
DWIDTH 16 0
BBX 15 16 1 -2
BITMAP
07C0
1830
3018
718C
5884
87F2
B082
9082
8FF2
8882
9882
5084
67FC
3018
1830
07C0
ENDCHAR
STARTCHAR 32A0
ENCODING 12960
SWIDTH 1000 0
DWIDTH 16 0
BBX 16 16 0 -2
BITMAP
03E0
0C18
100C
23F6
5C42
89F1
8911
89F1
89F1
8F11
B9F1
40A2
631E
300C
1818
07E0
ENDCHAR
STARTCHAR 32A1
ENCODING 12961
SWIDTH 1000 0
DWIDTH 16 0
BBX 16 15 0 -1
BITMAP
07E0
1818
304C
6442
4842
8BF9
9841
98E1
89F1
8951
4E4A
6846
384C
1818
07E0
ENDCHAR
STARTCHAR 32A2
ENCODING 12962
SWIDTH 1000 0
DWIDTH 16 0
BBX 16 15 0 -2
BITMAP
07E0
1818
300C
7FFA
520A
97F9
8401
87E1
8021
BFFD
4022
6066
33CC
1818
07E0
ENDCHAR
STARTCHAR 32A3
ENCODING 12963
SWIDTH 1000 0
DWIDTH 16 0
BBX 15 14 1 -1
BITMAP
0FC0
1830
2008
5FF4
C104
8902
89E2
8902
8902
4904
7FF4
2008
1830
07C0
ENDCHAR
STARTCHAR 32A4
ENCODING 12964
SWIDTH 1000 0
DWIDTH 16 0
BBX 15 15 0 -2
BITMAP
07C0
1830
2108
4104
4104
81F2
8102
8102
8102
8102
5FFC
4004
2008
1830
07C0
ENDCHAR
STARTCHAR 32A5
ENCODING 12965
SWIDTH 1000 0
DWIDTH 16 0
BBX 14 15 1 -2
BITMAP
0F80
1860
2210
4208
DFE8
9224
9224
9224
9FE4
9224
4208
4208
2210
1860
0780
ENDCHAR
STARTCHAR 32A6
ENCODING 12966
SWIDTH 1000 0
DWIDTH 16 0
BBX 15 16 0 -2
BITMAP
07C0
0830
1018
200C
5FFC
8102
8102
81C2
8162
8112
8102
4104
610C
3018
1830
07C0
ENDCHAR
STARTCHAR 32A7
ENCODING 12967
SWIDTH 1000 0
DWIDTH 16 0
BBX 15 15 0 -1
BITMAP
07C0
1830
2108
4204
5FF4
8202
8602
8402
8FF2
8882
5084
47FC
2008
1830
07C0
ENDCHAR
STARTCHAR 32A8
ENCODING 12968
SWIDTH 1000 0
DWIDTH 16 0
BBX 16 14 0 -1
BITMAP
07E0
1818
2304
4202
DFFA
8601
8401
8FF1
9C11
6412
47F2
2414
1818
07E0
ENDCHAR
STARTCHAR 32A9
ENCODING 12969
SWIDTH 1000 0
DWIDTH 16 0
BBX 15 16 1 -2
BITMAP
07C0
1830
3018
7FFC
5204
97E2
9502
9FF2
9182
91C2
9622
5404
7FFC
3018
1830
07C0
ENDCHAR
STARTCHAR 32AA
ENCODING 12970
SWIDTH 1000 0
DWIDTH 16 0
BBX 16 16 0 -2
BITMAP
07E0
1818
310C
6106
5FFA
9009
97E9
8001
9FF9
8081
8891
588A
6786
300C
1818
07E0
ENDCHAR
STARTCHAR 32AB
ENCODING 12971
SWIDTH 1000 0
DWIDTH 16 0
BBX 16 15 0 -1
BITMAP
07E0
0818
300C
6D12
44A2
9FF9
9009
97E9
80C1
BFFD
4082
6086
338C
1818
07E0
ENDCHAR
STARTCHAR 32AC
ENCODING 12972
SWIDTH 1000 0
DWIDTH 16 0
BBX 16 16 0 -2
BITMAP
07E0
1818
300C
7F46
54FA
9E81
9F01
94F9
9F01
8FF1
8A91
4A92
7FFE
300C
1818
07E0
ENDCHAR
STARTCHAR 32AD
ENCODING 12973
SWIDTH 1000 0
DWIDTH 16 0
BBX 15 16 1 -2
BITMAP
07C0
1830
3018
630C
4684
8D62
993A
A902
89E2
8902
8902
4904
7FFC
3018
1830
07C0
ENDCHAR
STARTCHAR 32AE
ENCODING 12974
SWIDTH 1000 0
DWIDTH 16 0
BBX 16 15 0 -1
BITMAP
07E0
1818
310C
69FA
425A
84E1
9B19
9FF1
8FF1
8FF1
4FF2
6676
380C
1818
07E0
ENDCHAR
STARTCHAR 32AF
ENCODING 12975
SWIDTH 1000 0
DWIDTH 16 0
BBX 16 14 0 -1
BITMAP
07E0
1818
2844
4BF2
DC92
8B71
8921
8FF9
8AA9
4AAA
4AFA
2DC4
1818
07E0
ENDCHAR
STARTCHAR 32B0
ENCODING 12976
SWIDTH 1000 0
DWIDTH 16 0
BBX 15 16 0 -2
BITMAP
07C0
1830
3118
610C
5FFC
8502
89F2
8922
9BE2
AD62
88C2
49E4
6E1C
3018
1830
07C0
ENDCHAR
STARTCHAR 32B1
ENCODING 12977
SWIDTH 1000 0
DWIDTH 16 0
BBX 16 15 0 -1
BITMAP
03E0
0C18
100C
2C72
5A5A
82C1
8281
8CB1
83C9
8189
518A
798E
3E7C
1818
07E0
ENDCHAR
STARTCHAR 32B2
ENCODING 12978
SWIDTH 1000 0
DWIDTH 16 0
BBX 16 15 0 -1
BITMAP
03E0
0C18
100C
2CF2
5212
8211
8211
8C21
8321
8121
5162
7946
3E4C
1818
07E0
ENDCHAR
STARTCHAR 32B3
ENCODING 12979
SWIDTH 1000 0
DWIDTH 16 0
BBX 16 15 0 -1
BITMAP
03E0
0C18
100C
2C32
524A
8249
8249
8C31
83C9
8189
518A
798E
3E7C
1818
07E0
ENDCHAR
STARTCHAR 32B4
ENCODING 12980
SWIDTH 1000 0
DWIDTH 16 0
BBX 16 15 0 -1
BITMAP
03E0
0C18
100C
2C72
5A8A
8289
8289
8C89
8379
8109
514A
7956
3E7C
1818
07E0
ENDCHAR
STARTCHAR 32B5
ENCODING 12981
SWIDTH 1000 0
DWIDTH 16 0
BBX 15 15 1 -2
BITMAP
07C0
1830
2468
4C94
4C94
8C92
9492
9492
A492
BE92
4494
4464
2008
1830
07C0
ENDCHAR
STARTCHAR 32B6
ENCODING 12982
SWIDTH 1000 0
DWIDTH 16 0
BBX 15 15 1 -2
BITMAP
0FC0
3830
6428
4C64
CC24
9422
9422
A422
A422
BE22
4424
4424
2008
1830
07C0
ENDCHAR
STARTCHAR 32B7
ENCODING 12983
SWIDTH 1000 0
DWIDTH 16 0
BBX 15 15 1 -2
BITMAP
0FC0
1830
2468
4C94
CC94
9492
9422
9462
A442
BEC2
4484
44F4
2018
1830
07C0
ENDCHAR
STARTCHAR 32B8
ENCODING 12984
SWIDTH 1000 0
DWIDTH 16 0
BBX 15 15 1 -2
BITMAP
0FC0
1830
24E8
4C94
CC94
9412
9462
9462
A412
BE92
4494
44E4
2008
1830
07C0
ENDCHAR
STARTCHAR 32B9
ENCODING 12985
SWIDTH 1000 0
DWIDTH 16 0
BBX 14 15 1 -2
BITMAP
0FC0
1860
2430
4C68
4C68
9464
94A4
94A4
A524
BFF4
4428
4428
2010
1860
0780
ENDCHAR
STARTCHAR 32BA
ENCODING 12986
SWIDTH 1000 0
DWIDTH 16 0
BBX 15 16 0 -2
BITMAP
07C0
1830
3018
64FC
4C84
8C82
94E2
9492
9492
A412
BE12
4494
646C
3018
1830
07C0
ENDCHAR
STARTCHAR 32BB
ENCODING 12987
SWIDTH 1000 0
DWIDTH 16 0
BBX 15 15 0 -2
BITMAP
07C0
1830
2468
4C94
4C94
9482
94E2
9492
A492
BE92
4494
4474
2008
1830
07C0
ENDCHAR
STARTCHAR 32BC
ENCODING 12988
SWIDTH 1000 0
DWIDTH 16 0
BBX 15 16 1 -2
BITMAP
07C0
1830
3018
64FC
4C24
8C22
9422
9422
9442
A442
BE42
4444
64CC
3018
1830
07C0
ENDCHAR
ENDFONT
